<mxfile host="65bd71144e">
    <diagram id="oYPYgKO181y4bJEMsXK-" name="Page-1">
        <mxGraphModel dx="1204" dy="823" grid="1" gridSize="10" guides="1" tooltips="1" connect="1" arrows="1" fold="1" page="1" pageScale="1" pageWidth="1100" pageHeight="850" math="0" shadow="0">
            <root>
                <mxCell id="0"/>
                <mxCell id="1" parent="0"/>
                <mxCell id="2" value="" style="shape=image;verticalLabelPosition=bottom;labelBackgroundColor=#ffffff;verticalAlign=top;aspect=fixed;imageAspect=0;image=data:image/png,iVBORw0KGgoAAAANSUhEUgAAA7EAAAJhCAYAAACXajfCAAAAAXNSR0IArs4c6QAAAARnQU1BAACxjwv8YQUAAAAJcEhZcwAADsMAAA7DAcdvqGQAAAASdEVYdFNvZnR3YXJlAEdyZWVuc2hvdF5VCAUAAP+HSURBVHhe7J0FmNTGH4Zxa/tH6gXaoi2UFneXQnGKa4u3uLu7FIcWd3d3d3d3P+P8OKRAv38mtwnZI2fc7t7s3vd7nveB20yyv02yk3l3JpM4YDAYDAaDwWAwGAwGw0mCEstgMBgMBoPBYDAYDKcJSiyDwWAwGAwGg8FgMJwmKLEMBoPBYDAYDAaDwXCaoMQyGAwGg8FgMBgMBsNpghLLYDAYDAaDwWAwGAynCbtJ7OvXr+Hr6wsPDw+4ubkRQgghhBBCCHEivLy8EBAQYDE8ecJmEvvs2TPs2LEDEyZMQKtWrfDLL7+gWrVqqF27NurUqUMIIYQQQgghxImoWbMmKlWqhCpVqqBbt26YNWsWTp48if/++89igTET0ZbY+/fvY+LEieoH69OnD1asWIHz58+rUstgMBgMBoPBYDAYDOcOHx8fHDlyBHPmzEHLli1Rv359LF++HIGBgZYSjo33ltjg4GD89ddf+PXXX1UjF13NDAaDwWAwGAwGg8Fw7bh8+TKGDh2qdmSuX7/e8qrj4r0k9vTp02r3spBYIbMMBoPBYDAYDAaDwYhdIUbl/vnnn+jSpQs8PT0tr9o/oiyxa9euVcdGHz9+3PIKg8FgMBgMBoPBYDBiY4gJfRctWqSO0L1586blVftGlCRWCKzogXV3d7e8wmAwGAwGg8FgMBiM2B4HDhxQJ/a9ceOG5RX7RaQldtOmTRRYBoPBYDAYDAaDwWCYxsGDB1WRvXPnjuUV+0SkJPbBgwfqTbviXzGdMiGEEEIIIYQQEpoNGzagadOmePXqlcUmbR8RSqwY4yye+yqGEpslSQghhBBCCCGEaHTv3h3Tpk2zGKXtI0KJFc997dSpE968eWOaICGEEEIIIYQQovHkyRN1WPHVq1ctVmnbCFdiRS9s7dq1cf36ddPkCCGEEEIIIYSQ0MyfPx+DBw9WndLWEa7E7t+/H23atDFNihBCCCGEEEIIMcPHxwcVK1bEo0ePLHZpuwhXYsUw4l27dpkmRQghhBBCCCGEhMWQIUMwc+ZMm0/yFKbEvnjxAuXKlVP/NUuIEEIIIYQQQggJiyNHjqB9+/bw9/e3WKZtIkyJvXTpElq0aKFO6EQIIYQQQgghhEQFMcFTpUqV4OHhoUqtrSJMiV21ahXGjh1rmgwhhBBCCCGEEBIRNWrUwNmzZ/Hy5UuLaUY/wpTY0aNHY926daaJEEIIIYQQQgghESGeGbthwwYEBARYTDP6EabEDhw4EDt37jRNhBBCCCGEEEIIiQjxmJ0VK1bA19fXYprRjzAltm/fvti7d6/6XB9CCCGEEEIIIRLy7xMcm90dv1evjv7bA/Dy0U4sWH/DvGwMMGLECCxevBje3t4W04x+hCmxffr0ocQSQgghhBBCiMQEbv4TxWtPxNqR1VBzqjv+DViO36uNMS0bEwiJXbRoETw9PS2mGf2gxBJCCCGEEEKiwTM8Pn8RD/81W0bsy7949Hct/L48AIHLf0ftaYrEBq5D80qDTMrGDJrEihmKbRWUWEIIIYQQQkik+NdtM/r88iMyZimBtssu49LqQahfKAO+zd8He4LN1yH25eW1v1GtQFV0/K0g8jUYhB41cqFQr4OmZWMCh0vsnj178OrVK0IIIYQQQkis5wUuDSuBYn334/blFWie9wtkKtYW0/feQZBpeeIoAq5vw7TBPdC5a1+MXnQUbi/My8UEw4cPp8Q6jJceOPhPJ9SvXAV9t/rhxYPtmLv2unlZQgghhBBCXJ6n2NX+Z3TeG6z8PwgrGhZA1wPi/2ZlicPwf4B7Hs/f/v3CE3fu+VqXiUEosQ7Eb11zFKs7CetGVEWNf9zw0n85fqs8yrQsIYQQQgghrk8wdrX7AV//VAAFCxZAls+T4+scBZX/F0ShUr2x/anZOsTePN30J6oOuYAX2mt+i1Gv5MB3ysUUMSKx//77byzkBe5OrIkmK/3hv+x31P7nMV74r0XzX/qZlCWEEEIIISR28NzrLq5cuoiLF625dO0B/EzKE3vyDMeG/Izv06bER5+lR+bMmVUypkmNHG03mJSPGSixDuT5xUmokl/cIF0AeRsMRPfquVCo90HTsoQQQlwFP9w8th/nHj83WUYIIbGdZzjSrzh+KPwr/hw4DetOPECgaTniMF48h9+egWg39SqCnj7F02fP8PyFSbkYxOESu3v3brx8+TLW4ntlM/4Z2B2duvTBqEVH8Oi5eTlCCJEFv7Pz0aX2LyhRrCiKFCmCIkV/Rp9tgaZlHc2zhwcxq9fvqFyyKIr9XAMtBy/Bac/npmWjyrPAAASbvB5lgvagfaakKDP5IZ6HXuZ3BDP6DMOa68+sX48mQfuGoHKpllhwMyr7IhCn5/dG+3Zt0bathXbdMOtEkLIsCDc2jkSrWuVRvGgpVPm9J2Yf9VQ/T9DZRejboSP6zDgID7NrWtBlrBjSGe17zsJxP5PlhBCi1DGPzm7D/L+6o3Glgsj+U0FUatIbk1afMa9XiP3w2YK+TSfgyMkZaF2nFmrV0qiN3/7ab75ODDBs2DBKrOMIhq9PgN6ICfbxhE9w6DKEECIT7phZ9UfUmboX565cxdWrCtdu4JEEMvLs6hzU+jYJPsnTCH0nzsSsSQPRolR6pK6zFL4m5aNE4Db88c3/8OsCP/PlUSEciX1+bwJKJkmDFlts+6NA8PFJaFynN9bcj4LEPr+HCSUT4aMfq6Lln3/iT0GrTph+NAi+29oic9KvULLDWMycNRmDW1XGL713IfDlc9yfWBKJkiRD0kQ50PdkcKjtPseDOVWR6sOP8EHCPBh0zrayTghxQZ554crO6ej8SwZ88FF1LOSPX47l2R0c2HoSd/eOx4BJa7Fjxw4LO7H33CPzdWIASqwDCdjaCsWar4Wn+vdzPFzVFCVbb3mnHCGEyIMvNvxRGX2Py9HzqvP8PuZU+xhJsnfHPh/jMm9cv2aQxaAHOLlhEWZOn42lOy/DS/9FPxget27CPeg5fK7swKJZc7DqyH0EiWXPvXHn9AzU/jIpSo88jrNnr+BBQMh6wR63cNM9EAE392DxrEXYd8cibWG+j1gWDYkNb7tKnpd3LMGsmYuw+fAZJc+zuHDXJ2RZsCduiXvJtLI+N3F4/SLMnrsS+2/4vt2GEVVikyBNiy2KnBqXBWF3uwxInGsAzj4zvi54jnsTSiJJul9Rp8AHSN96BwKMy59dxIjCyZH7twb4MUkeDKTEEkJMCLp/HKv/7o8/qxfFD5myoECVZugzcRn2X/d+p94kjsFjYV2U7X861PVAHhwusbt27cKLFy9iIc9wc0xZVJnm8fY136VoWLy3oUxM8QyP909Bh3qVULn3JngH38WW2atxJdisLCEkdhGM81OrImO6AqiiDSmq/Rv+2hdoUtZxPLs/BWWTfYCyU+7imclytczNZWj5Y3J8mCYnihXPi/TJE+PLMiNx2FdZHrgb7TJ9iZ8b18YP32ZD4YIZkSLhZyg36SKCHsxB3Qyf4sP4cZE0VWqkTpsTnbYFKNsMVGQuE74q+xsqZUyHXIXyofGch+G/j8hFvFdGRWInPXgn12d3x4dI7Gax/VDLwtvus9tY1CgDUmUojpq1y+GHVPER/4NPkaH+XDxW1g3c3Q4Zk5bB5Icv8PTidFRPlwwpMxVEicJZ8XnyH9Fjv8nxe3YX41WJ3YwAq2XBODMgNxImL4ERJ30Nrwue4e54RWIztMayKRWQ4vO6WOr+dnng/s74PmU5TNrUGzlUiQ02rEsIIYJAHOqdE8ni/w/fVemF+Qdvw+eZWTniSILPT0GVb7/ADz/XMAwn3mdaNiagxDqQp6eGo1SOX9B++CRMnfIXulfNhmx/bjAt61C816BZ0TqYsGY4qlSfgofPfLC0USWMvMzGBiHkGTwvHcCO7duxXWPHHpx7+MykrOMI2PoHvkmYBd0OPTVd/uKFJ1Y2+gof5OqJ/U9CXgs4PxalU3yI0hNu4JkqlgnwvzxdsPWB+Cze2NoqAxJl742TT5XyAZvRIs0HqDLXKG1CYjMifoL0+H3lfYuQRvA+osx7SWz42w06Pxh5k+bGgLMh9bTH4tr4In0rbA8IKatJ7KQHD7GgxqdIXnwUzgWGLHtydhcO3TU5fqrEJkaqEp0w6e+/8bfCP9NW45Ty/s8erEPbnz5CvA8zoly7Kdh9R5NgTWLbYufDZaj3RXKU+/u2Yd+kxlf1l+PxyT6UWEJIODyDz+0jWDd9KDo0/AVF8hZAyV9bos/fO3GbnSoxwjPPSziww3Dt374De849NC0bE1BiHcyTc2swoW8ntG3fHUNn7cEdS6MiJnl2ezxqNF4BX9+l+K3W34rE+mJNs3LoezKsxiEhJDYQfG0tZm24iWDl/4Fu9/HYIkieu//B7CMx2xPrv7oRPk2YC/3PhCFFAZvQPE1iFB970yCO7phR8QMkr7EIviZi6TOnMj74qjHWi88ZjsQmKTwK17RegojeR/z9PhIbwXa9DnZFlg/LYapbyDL/Dc2QNlUdLPUP+VuX2Jvr0PSrJMp7a9IdDqrEJkLi1DlRvHhxlRKlW2Ludcs+9j6PFQPqINfnCRHvf9nQdOFV5dx4K7G7Av2xrVU6JM0/BOeURuez23+jXMqMaLcrAE8psYSQSBLseRV7l41Fu18y4n+f1MdyS71GHMuzJ3dwwy1mr/XhESMS+/z581iJz9EFmLvfy3RZjPL0PCZUzo8qHRqiQN766N/tV+Qs1Av7/E3KEuIggt0OYUbXRqhWrQ+2eD/F3W1zsObKU9OyxD74b2uDMp12I+B5APZ1/Rmttvgrrwfjxl9lUH2WzzvlHUnAng7ImPBr/LFN5GRSxmceqn3wAarNM+bph5UNP0XiclPhFrBLFcvSitwFW5b7zKuGj774DWv8lL/9NysSqUjsHOP6AdilSGzS0pNwP9jyWkTvI/42eS+N4DvjUUKR2OabQ32OiLbrtwUtv0mGDJV7YvzkoWiUIwXS1F+i5xWwS0hsaUy6NhfVPkyOmouM2wmD4DsYXyIJ0jTfDH+z5RoeRzGu4ldI8EkdLHYPxp3xJZAkfVvsDHiOoMM9kS3xd+i0zwen+ufGR3kG4PRT5fUTIRI74Cy/w7LivX0oGtTWZiE1UhuNRu81XYcQW+Fxdi0m9WmBqoWz4NtMeVGxSW9MXLYf173NyxP7E3RyPKrn/B7Zi9VG++Fzsf2SB56alIspKLEO5MGcWig74HT4jYMYwRt3zh3C+r8HoFvHzug9ch62HLkGD62R5qz4nMLczrVQukhBFCxQAAUKFESJnlvMyxLJ8MGGlkVRa9wqDKtSHVMeBMN7SSNUGXXNpCyxF9YSW0YqiX3utQR1PkmA7zvtNa9T/TehWerEKDzi6tuLriJpE0omxZe/r4V/ZCQ2bSQkNqL3EX+/j8RGsF2vnW2R8Zuq6Nm/LX5v2BgdR63FZZ+36+sSe2MNGn+VGMXG3nrnvd8hshKr4L++Cb5KlBeDzgVaSezzpxcwvFAypK7fC43TJ0fZKSHvS4mVn+B7p7FTDBncugqTutTGz4ULo+HIddiydDR6TTpkug4htiEIp6d3QJsB07Du+F0J28mxmafwuLILC0f+gZLfpMA3zdealIkZKLEOJOjMRFT4+nOrG6Qbjd5jWtah+K1BsyrDcOmp9toTLKhbDH1OBFmXcyqCcf+fisjecCb2X7qG69evK9zA7cd+JmWJdATfxaSajbDE2wdLGtXC34rE+qxuigr9T5mXJ3YhYHsbZP36R+QvkB8/pkmBr37IjwIFCiB3ui9QZXYMS+xzP+zr/hOSfJgTrZZdgZ/6WgDu7J6I1n1Wwv25O5Y3+BJJsrbC+ntCnJ7i3qY2+DHZ12i63stULK0kNmAPOmRMjNz9zyBIqU+CVWk1kdiI3keUiUhiE3+Fhouu4c6dOyp3H3kry8Lfrv+6xvgqZU407DMCf42bhL9nLsH28+769nWJvf8A86p/jGQ5u2G3u7Is2B1H/+mK0btMerDDkljl9ZXDB2PpGY+Q7QfdwepmmZHo6xbY7GPdEyvq3tv//IL/xYuH+J/Xw1Lxnso6lFjnwWdDSxStNQ6rhlVB9SkPEOy9BI2qjDItS4hteYpb2yagx5+N0ahRQzRs2BCNmo3HfrVuIQ7H+wq2zx6KdnVKIk/2fPi5QSeM2SxPZ4LDJXbnzp149uxZrMR3cxcU+zEbsmXT+BF5Wyw1Leso/Pf3R8nvUiPFR58hXaZMyCTIkBqps7fGmsfm6zgLXquao0r/4/A3WUZkJwgXJ1ZBvsrt0DB/XtTr3xW/5iyA7nv9TMraiCfbMLR+LdSsWfMdajUahb3+Juu4OkFuuHnxPM6dO2fF+fNXcd/XpLyj8b+IBX/mxxeJEuCjL79FutQp8MFnOdFo+mkEKsuf3liG1nk+RsJkn+Lrrz/DB0nToEz/7Xj4VKy7F52zJEf5qQ/17fkuqoVUaZpho5/4+wm2dciKpAmT46vUmdB0la/ymj/2ds6C5OWn4qGWQ0TvI8qYvJfOo5mo8r+4iBMnjk68rxqry8Lb7tPbC1E7zcfIXrk+6tWugSolsuKTpKlRY/Z1PFXW9d/bGVmSl8fUh88QeH466mRMhgTJPkOaL5MjxXf1Mfty0Lu5PL2HKeU+QvrW20PVm4+xvlMefJIoKT5J+y1Sp0yCZGlKo/fme8p7KXI9uSz+932nt98RtyWo/1USZG6/E76WbQSdHoi8HxXEsIsm70sk4inuTKyBRoufwHtxI9Scch9PvVehaYX+JmUJsTGP56J6lrLoNWMZ1qxdi7UK6zYfw12tLiUOJfDICJT99hOkKfg7Bs/dgtP37NgGew8osY7E9z6untcagiewpk91NJhy3rysw3iKIKXx3qftNFz184e/fyACg56alHM+Ak9PRuUM6VCgiiYjtdBo1B7TskRGvHF5098Y2LUDOvUaifkH7yPItJyNeHoXp3Zux7Zt295h++4zuB8LL6KBB/qgWNZCqPZHf/yz+ijuyCCuJgQ+uoRDu7dj54GLePjOjw3euH1qL3buOoCLDwNDLYsIb9w8tgs79l+GW4THPzrvEx5m2/XHvk7f46NS43FTz+sJltT5BB/9Oh/eVutbCHyEiwd2YdfBK3APMlkeCfwfXcaR3Tuw69BlPA40L0Ocn6CLE1ElX2W0a5gfeev1R9dfc6JA972mZWOGIPh5+9n3ekBiBq+VaFq5P07Exh+NpcUf909vwdzhLVHi20+RsdVakzIxg8MldseOHQgOFkOzSLDnAtQt3sd8mUNww9peTTHhyGFMaVH7nZ6n3X5m6zgPQQ8P4O/21VGyQAHUH7YGmxeNQI/xB0zLEvnwunUTDwLe/h348DpueliXIfbH794pbJ4zCl1/r4AC2X9CgQqN0XPCSpx4FGRanjgCP+zr/D0SZ6yDSVtO4NKVczi0chDKp06JkmMvINB0HUIiz5NLGzFlQFd06NQLI+YdxL1A83KOxRcn/2mInGm+QJpvvkbqDPnReNop+JqWJc5JAE6PLIMfCv+KunXrqtRrPAZ7nbw96rR4Xcb2WUPQtmYx/JD+OxSo+ieGrb1iXjYGGDp0KCXWUQQc/wet6od8KevWrYXyub5FtlYbTMs6hkBc37cVJx89woW927B161adbbtO416Q2TrOg+fKpihSezxWDq2MXyffQ5DXYjSsONy0LJENX6xtURkDTwfqr3nOr4MS/U4aytiLIDw6OA1dGlVF1d6b4BV4G1tmr8IlKRpxMUkg3C5uwz8dyyH9Bx+h2rwnJmWIw3A7jGntq6FI9sxInz4TfipUGa0m7MZdJ6+3CQkTjwWonasJVtwKUP8OergdHQpXxdS7/EHNZXBTjvGP5dFn9kps2LgRGxU2bTvBei2G8Ds0Fs2a9cbklUdw21d5ze8OTp6+ZVo2JqDEOpCgh6ewbe0arFmzBmvXbsC2Q9fgZVLO4Tw5jPlz9sHDbJnTEoSb46rj92VP8ETc1yMk9slKNC3X26QskYqAQxhY5jukSfkRPktnuU87Uwak/io7Wq95bL6OLXmyDi2K1sTYlUNR+dfJuBfkhcWNKmPklVjYUPK7jcMrJ6NvS0WWfsiI7/NXQtNe47FkzxV4sFFBiEsSdGcXVuy4haBgH5yY2R5167bH9GOepmUdSdCdiShffjxu63WPJxbWK4W+J0KklrgAnko7rWIfHBPCZLacOIgg3F3XE2WzZcD3xVph0dkzWN6vLgqk/wZ5e243KR8zxIjEPn36NFYT6OsJdy9/02Uxwt1ZqPlzf5zwMVnmxAScGYdK+SqjfYP8yFO3H7pUy4GCPfaYliVyERjgie392mDKBR/4+vrC3z8AgSblzPA5uhBz9j42XRYZAm9PQI2Gi+DptQgNa07G3UAvrGxSHv2OS/SddRC++3siR7L4+N93ldFjzj7c8Aw0LUcIcR3uTK6JevM8EHB+BErlbY6Zi7uhZMUxpmUdSsBFTKmcDcWaD8DYSRMwrEMF/JC7C3a5WNslVhNwGn9XyYh0+Su/vb2t4Ujs9jUpS+xHwBkMLl4UPXddxdnFTZD784wo0upv7LjmbV4+hqDEOhLvo5hU5yek/iItvv0mDdLnbYR/jktwQvifxPjyafHZD2VQ3VBp7HKBSsPzwnpM7t8F7Tv2xPB5BxQhMS9H5MFjQ280HnsAR6f+idqW81GlVkOM3O1ruo6Rh3ProEzfY/AxWRYpAs5jQuV8qNSuAfLnqYt+XaohR4Fu2B1LG0qBnjdwcPVUDG5fH+UK50H+EtXQvNdkbLsRYFqeEOLceCxvjOJ1B6JHhez4deZtpQ5Yht8qDDIt63C8LmL9xD7o2KYdug2djX13WA+5FIGPcX7vVmzZskVn685TbLs5Gp8taFO6PXYID/BejHr5Okr5QwIl1oE8ml0duZutxu0A8XcgHm7vgIKVJr9TzuEEPsL5Pa5VaXic3YMjt429RoG4f2w7jt5hT5LsBNzYg41H7+PRhb3Yajgnt2zdiVN3Iz5+AacnofI3n+OH0tUtAlwLDUfuNi0bJkpDacOUAejSviN6Dp+LA3fZUHoa8BiXdi3GX23LIeP/PkHdJXL9IksIsRGB97Fv9nAMm7EHd5R2gP+pORg2/6x5WUficxQL5+zFY7NlxEVQ2sYHpqFzQzEnxUZ4BtzG5lmrcFFtNxOH4bsVrbOmRbZ8+ZE/3/f4LHla/JRf+X/+AijZfaP5OjGAQyW2d+/e2L59O4KCgmIhAbgxthwqTrrz9jX3BahTtKehTAwR8ACXzt3CE7NlzojPHnQtVgtzbgdYve6+pTWKNllp9RqRFW8cXTAHex6ZLQufgEfnsMcovwo7Thq+dxGhXDR3LNuGmwFBeHJ8BtrVqYN2047C3aysq/PoJFaN74XmVQrh+28zIY+YmXjcYuy54mFenpBYhwe2DK6HmjVqoEZoajbEyF0+JusEwWPLYNSrabJOjZpoOHKX6Tp2x+8QBpbMhPTp04eQIQMyfp8DJX/7CzvvWV9PY4QHc1G7TB8c8zZZRlwDz7VoUaQGxiwfgsq/TsSdAA8sbFgZIy5JcP7FKvzx8Po5nDl9GqetOIMLt+S5/lNiHYj/ufGo8GMxtOg/FhPHD0WHClmRq9MO07IOxe8IxvyaA5mzFETVlgMwbeMp3PczKeckBNwZj/KVJuNB6GVPluG3kr2sXyOS8gBza5dBn2PeJssiwOMmrt/ze/u3/31cve5mXSY87kxCjXrz4O5/DiNK5UXzmYvQrURFjLkS+y6ifif+QbtW/fD36iO4xYYjISYE4PaJbVY/mr1lB07eMa83Am6fwDbTdaL4o5uN8fP2VBuEGu73L2HrsArI3XS1aXmH4n8KEyt/g8+zlsavFumvKW598jEpS5ySgFvjUb3hQnh4LkTDGpMUifXEiibl0fe44ZpOHIP3eSzqUgk5vvkEKVN9hm+yl0PrGcek+kGfEutgPM+vx6QBXdGuXTcMmb0Xd/zNy8UEAe6XsWvhKPxR4mskT9MEK5+Yl5OeJ2vQLE9tzLsZqid2ZwfkLjvW6jUiK/44NbEyvvk8K0r/aumhCKdXw4j3mhaoPOAk/LXX3OehdvG+75QLE/dlaFysLgb0qIDsv87ErQAPLP2tAgae8jcv7/L44cTMsVhx8Q7uuIU0JALubMeEHl0xcs0l+LxTnhASaQIeYP/UzmhYtSp6bfSA/63NmLXygnnZmOLJUjQq1dt8mSMJeIRze0JJ/46TiuiYlCXOif85jBdzUrQNmZOir2VOil38EdXB+OBAr/z4sfY4bLv4CH5B3rhzZAHaF8mJFuuj0ClgZxx+T2xsltiAm9uwdPstBAR54ujU1qhVqw3+OexuWtaxuOHMxn/Q749fUTTHj8j7cwN0HrsZVyUS7Kjhj4uz6iJL+ryo1rwTevbqgXa//Yzv0+RGl80PTcoT+fDDtZ1LsXy9scESdq9GCH44MKA0vkuTEh99ms7yaJ5MyJD6K/zUKiq9CAG4t3c2hg+bjs1HD2PP/k2YOmw+zjjt9yG6eGNNk4xI82N+5MmSA78tuIzdXYuibPexaFuyIkaci61yT4g1AQ/2Y2rnhqhatRc2evjj1uZZWHkh/O+H59oWKFJjDJYPqYxfJ95BgMdCNKw8wrRsTOG+pysKlJ9gusyxBODB/qkh90v22ggP/1vYPGslLsTautlF8byADZP763NS7L/Da4zD8TuGXsVqYPYD69d9dnZEsWZrrF6LSYTELlmyxDESO2jQIPXBxYGBgbEQf9wYVx0NF7rD79QQlMjTArOX9kCp8qNMyjoY730YXCY9PvkqLxr2m4Y1R27Cy6ycE+F2ehd27t6IGSP7oUe3Hug/ejZWrtuAw7f9TcsT2fDF0THVkOO7n1C0ZlsMmbUFZx/6mZQLhb8f3Lf1RevJ5/DE2xvevr7w8zcpFwb+N1ejR+WCyF24NgaP64B8GbIh/4/fIkfbDXhoUj5W4H8bE6vXweyHyv/vTEKVmlMwvX4FjLjki5vjfkWjRV7m6xESq/DAmuZFUOOvZRhcqRomKg1v94UNUWn4RZOyGv64OT6kXeChlK0x6Q78PZajcfm+JmUdgO9RjKldFIUKFdIpmDcrvslYCv13PDRfx5F4rEHzIjXw17LBqFRtIu74u2Nhw0oYfpHXdZfA2w337t7BnTvW3L3vBl+z8sR+PNmM1qXbY7u39ev+l0egzK8zrF6LSfr374+VK1c6RmLHjh2rGrNZIrGBh4sboWi9fuhc7idUn3kL/u5L0Khcf9OyMYHvvVPYPHsImhf/BqnSt8AqL/Ny0uO9G12K1cLsW9YXNrfNrVG08Qqr14jk+D3E+e3zMKxFCXyT4hs0XRmxMPnf2oGl227AP9ALx6a3Q5067TD1iJtpWWv8cLxvYRTsuh7H901DvUxZ0GGnt3I+7UKnIo2w1Fm/D9HGC5vbFkHZDiMwol0J/FilJ/7M8x0azdmN+U3KoN02ZR+ZrkdILML/JsZXb4iF7mIimhqYpEiseFRN+b7HzMtb8Ds7HpXyVURb9XnmfdG5ag7k77rTtKz9eYK7l07j1KlTFk7j7IWbcPMzK+t4/G+G3C/pLnqrxf2S/h5Y3rg8+h7zNS1PnAlvbGudEcm/+g7ZsmWz4sf8HbDmidk6xG54b0GrLJbZidVZiS3kSofPK8kjsZ06dcLmzZsdI7Hr169Xu37NEokV+N/A5smDMWzmbqXyDYTX/snoP/u0eVlH4XYauw6dx7kt0zGodQ0UzZoB3+UpgSpt5uC8JBeuqOJ/ezzKV5yM+6GXeS1Fo5I9rV8j0uJ+fgtmDG6DWiVy46e8ZVCvwyisvxRxb+ztSTVQb66b0jgcjlJ5m2HGoq4oUeEv07LWPMHm1qXQfruQMg/MqV0J4276K9/bKxhZuhqme5itE0vwOocNU4Zj2JQlWDSuB3pMmI4RjSug4h+zcNZJ6wlCbIsfzo6vhHwV26JB/jyo27czqubIj647n5iUfYv40W3e3LmY2L8D6pfNixwFamP0wcj86OZAnlzEnv3XzJc5Er+zGF8pHypq90t2rooc+btiJwXHBfDH/R2j0LBEHhSq1gETNpyHm2k54hj88ODaWZzWf9CycPo0Lt6RZ/RVlSpVcOnSJTx58sRimtGPMCX2+vXr+P33300TiQ14bWiJIk1W4IH6tz9uL/0dxf9Y/045x+GN3V2Kodb01RjZuBl6TVqBw7eUC67bZrQu2hgr3MzWcQK8VqNpntqYeyNUT+yOkImdjK8RWfHFwaE/49uP06BAo4GYtfEEbkeyoeKmfK+K1R2A7hWyo9qMm/B3X4pGFQaalrXGG1taZUHabPmQP38+ZPokFTLkFr8+5kK6zythRiyWWP/7+/BPp4bKBaMXNrj74eammVhxPhLDuwmJNfjj1o55mDt3Ivp3qI+yeXOgQO3ROBjBdfT9f3RzHP5XRqJ0temmyxyDHy4tG4IBsw/jocd5rJ/cH53bd0CPYZMxsssQbKPEuhDeuLV3Nvo0KIYcucvjjxHLcOI+h4vHBN5u93A31NDuO3fu4r6bHCMfbt++jWrVqsHNzQ0+Pj4W04x+hCmxr169Qrly5eDu7o6AgIBYhh8ujyyDSlPuv33NfQHqFe1hKONg/G5h3C8VMele6GWeWNqoJHoe8gn1urPgi/Mz6iBL+jyo2qwjevTsjraNyuC7NLnReaNh/xP5eXIbxzfMxJDmxfHtJxnwxyov83JGHm9H73I/IdN3PyFvwUIomCMzMlaZal42FL73r+LM6VC/PJ46jdMXbsPTpHzswB2rxb1+o0Pu9Ztw2w9uCxqg0vALJmUJia3cwsQadTHnsS/ODC+FPM1mYGHXEqgw+pJJ2bc8Fj+61emP7uXFj2434Oe2BI3KDzAtG1P4XQ6RWLNljsELG//IiZ/yZceP5Xpg2TnPkNf9LoeMknEPXZ64Ak8uLMKfOZMjwWcNsMzTvAyxE0+2olWG5PjqO+uh3dmy/Yh87Vebr+NgxISfYjixkFg/Pz+LaUY/wpRYEWKG4uXLl5sm5Or4HBmMEtnLos3gcZg8YQS6VP4BP7SIyZPBE6ua5kbtOdfhZ3z98Q60z/0zxlz1M5R1PtzObcKMkX3ViZ36jZqN7ZctFz7iFLiJ4cSDWqNG0axInzk/qvwxBKsu+JqWNXL3n0rIVmsStp84i3Pnzimcx8XbkfnhzAd7ehZFloJV0KLPZKw4eCMWi6sBvxsYV70BFri5Y0GDGpioSKz78sb4pc9R8/KExEoeY+nvxVCnf3eUz14NM274wW1JI5QfcNKkrAG/u9g9cxiGTtuFW35KO+HELAyde9q8rL3xOYJR1QsiX7581ljugzNdxyEoEvtnabTf/gBnl3TDzz/mRp2R23DThxLrevji7pFFGNr8Z2TL8CPKNh+MBQdvwce0LLEbfvewfVQDlMhdCNU6jMf6c4/Ny8Ug3bp1Ux+vIyT26dOnFsuMfoQrsaJnQwwpNksoNvDoxHKM6dkerdp0wcBp23HtiXk5R+F7fgbqZEmPPFWboWOPnujethHKfJcGuTtvxH2T8oQ4hifYN7opmvacgOWKTHoprz25eQwnrkf8w4rbquao0POAuo7Z8vB5gtvHN2DmiM5oVD4/fvoxP8r/1h1jlx3FPaWBab6Oq+OLM+MqIW/FNqifT2k89tHu9YtErzghsQi/u7sxc9hQTNt1C34BPjgxayjmno74h7cQ3HHt8G4cvOxmssxRPMHdi8aJnY5hx5K/0KVBaeRvttCkvKPQJPaJ+rff/QOY0rQAshaujXI/VqbEugR+uLdjFBoUyYIsReqixz9bcJHHNeZ5chN7ZvVG/WI5kPuXPzBi2XEp2kI3btxA5cqVce/ePVViX79+bbHM6Ee4EiuiUaNGOHjwoGlirokfbq7uhpIZP8fHqXOg1pgDcDMtF0O4ncOmGSPRt0c39Og3CrO3X3byHijJ9zcJH79bWN29DH5I/x2K/jEfp04uQZ/a+ZH+mzzoviVicfI9ORmVM3yLfJVqoEYNQU00GLHTtGy4+D7A2c1T0P7n9Pjgo6qYHasvqO44t24S+nVuhw49hmH6mq04GokfFAiJlfjcwqHFI9Gmagm0XR7WCCA/3FjVA5UL5kbh2oMxtn1epM+WDz9+mwNt1j8wKe84vG7sxfwhf6BizjRInvIn1B00F7uvxeSPVr44OWMI5pw1/iDgg+ubhuH3Gv2wxctYljgnT7Dlz/RInjY7Chge8SQoXKYHNvIYxzBPcGHRn8iZPAE+a7DMZLljmTBhAv766y9VYG05qZOICCV2x44daNy4sXojrllyLofPUfQuVBi99j6A17VV+CPPLxjn5EN1pYb726nxPTUQxYr0wI5Lp7GwcW58nqEw/pi8DZcjeU+M34Mz2L15EzZt0tiM7Sdum5YNzZMbB7BsQm+0qFoYWTN8h3wVG6PHmIXYeeGR9ZD72EI0f1AgJPbghRt752PIHxWRM01ypPypLgbN3Y1rYTW+fY+hT+GC6LruGPZOq4uMWdpj5xOlDtrVCUUaLTVfx974nsY/9XLhuxxl8Fvvqdh8ahO6lG+DLTE8YozEDnwfmM1JcQqnz91gR0RM4XsXRxYNRfOfsyHDj2XRfPACHLwVs+52+fJldVbiixcv2nwosYgIJVZEr1698M8//5gm6HJ4rUPLUh3VC5S40G1qVUYfFhPT+N1cjW4lM+Lzj1MjR60xOOBmXs6pkHh/k4jx2tQKpdttwxPl/54L6yJvh53q/83K2pYn2NMjB5LF/x8yV+qOWbuvwi3WDiEOIbo/KBASG/A9/Q/q5foOOcr8ht5TN+PUpi4o32ZL+PWW1ya0KtUO28R1yn02alcaixtKfROjkyj5nsWMpiWQr2gV/DFkDnad30qJJSQ24ncPO0Y1QJEsWVCkbg/8s+Ui3M3KORhfX180b94cCxYsUAXW09MT//33n8UsbRORkljRCyumRj5+/Lhpoi6F1wa0yJwGWXPnRu7cufD9l8nx5fe5lP/nRtEu68zXcQg+ONq7EAr32osHXtew6o88+GXcVefvcZJ2f5PI8GTzn8iSNhvy5suHvN99huRpfwqZXCR/CXRbH07vX1iTkuTLjxLd1puv8w5+cLu6Dyv/Hoi29cqiUO58KF61GXpO3IKrvmblXZuY+0GBEOfB9+wMNC2RD0Wr/IEhc3bh/NZISOyTzfgzS1pky6vUUXkz4ZNU6ZFb1FcxPomS8nnuHceqsZ1Qq4iS1yc50GDYAuyJ0eHEhBCH8mQL/kyfHGmzF7Aa2l2oUGGU6bHRfB0HMG3aNLRr104VWMGzZ88sVmm7iJTEijh27JgqsmK4gL+/vwvjjXtXzuDUyZM4acUpnLv+2KS8o/DEuhYl0XGHl/q350alwdp+G7zeKedsyLq/SaTwuYcrZ06FOnYKp87h+mOT8jpeuHvBZL33PO4+989h+4JRaF02A/73cR0s9DAv58p4bQr7B4Wu6zxN1yEkduKDe8dWYmzHmiiS6RN8kqMBhs7fg6ueZmUFSnmz65TSHjp/y8OkfEzgi/un1mFit3qo0HmlyXJCiGvig/uStaNF72vt2rXV4cT2uBdWi0hLrIgjR46gatWqsUBkZcQT65tnRpqsuZArVy7k/P5LJP/ye+RU/p+7aGesC/PiS4hrcv/4Cozr0RSVC36PbzPmRvnfu2Pswl24GK48uzDv/YMCIbEY3/s4tW4iutWrgM4rZRFSQghxToTA1qlTR78P1sPDw6YzEhsjShIr4vDhw+pUyUuWLFEfWGv2AYh98L53BWdOhWqgKpw6dx2PTcoTYm+8D4/CrwW1ocAG7N77542jU9riz76TsfLgdXialiGEEEIIIfZGCOuQIUNQt25dXWAFL1++tBik7SPKEitCPOunRYsW6lhn8fwfsw9DCIkFeN3FBZMfVtj7RwghhBDi+uzbtw81a9ZUJfbOnTuqvLq7u+P58+cWc7RPvJfEinj16hVmz56NihUrom/fvjh69KjpB3N2gidPxvOBA+GvHAyz5YQQQgghhBASWxD3ua5fv17t1BT3v27fvl3vffXy8lI90d7x3hKrhbe3N+bNm4d69eqhUaNGGDlyJFavXo1z586pFi5mNhbTLDsjATt3KntI2UUKT8ePNy1DbIf/hQv4t0ABvKxYEb6enqZliLw8nToVr7//Hk8nTzZdbg+edemCVz/8gMCNG02Xx1aeTpvm8GNBXIegGTNCzh9e95yCoFmzQo7X2LGmywmxB34XL+LfQoXwsnx5+Hp4mJYhjiV4yBC8zpIFQUuWmC5/X4SwPnr0SJ0bSdzz2q9fP3WyXzEid8OGDeoyTWCF4L5588ZiifaNaEusCPHcn6CgIBw4cEDtnRU9s/Xr10d55cQuXbo0SpQo4ZT0z5pVl9hdefOibdu2KFmypGlZEn1mpEun7++e2bObliHy4pYkiXrsvBInRpkyZUzLhEWhX0qieEnzZWFRuXBh/Gc5Xw5//LFT1zW25rF2LBIlivKxIORB0qTq+eObMGGsOX/KFS1q+npoBikNxLMpUqD7jz+aLo8J7iVLph4vfwmPV+FyJVGslPky4txMTZ9ePe8EfX76ie3jGKZU8eJ4GS+eejwu/+9/NmsTieMq6hUx8rZ58+YYNmwYli5dirNnz+riKhCdlo7ofTWGTSRWCyGz4jlAYsIn0Qtr/HDOiO+MGfoX1KdlS1y/fh337983LetwOnSAm5LT43bt1LzEfcqm5ZyIoPbt9f39eNw43Lp1C48fPzYtS+TjdapU6rF78+GHUT4nh55dgpXX9pouCwuPU6f08+VZvnzqez548MC0bGzjtSL16rH44AOXqR+I43j9+ech50+iRLHi/PEbMwb/KQL4rEIF0+VGtO/Wv4rMmi2PCV5/9ZWak/gMsh2vMedXYuGVHabLiHMT2KmTet4J3P76C2yzxTDK9147Hi8zZlTrAns7i+ihFZ2YjpZXLZRPa58QQvvvv//ixYsXCA4OVj+ks/FswQL9hPBv1Uq9MIjh02ZlHU7RogjKmRMByr8iL9GVb1rOiXjZtau+v70mT1Y/lxiWYFaWyMd/n3yiHjshsVE9Jwvv64HmJydH6Xg/vXZNP1+e58+vvqeYyt2sbGzjjXYsFIl1lfqBOI43X3yhnj//JU6snj8PHz40LecqvCpSRK9LfJWGeGBgoGk5gRBFUe71l1+q+0b0PpiVcyRvUqcOOV5KbrIdr5IH+qLh8XG8lrsgL3v21L83TyZMUM890YllVpY4AKUu0o6HkFhxPIRompZ9T54+fapO1iRmHLbXY3OiEsqnZYQZK1fqJ0RQ27bqySB6mqWI//1PzUv8KizyEnLt9NG7t76/fadOVT9XTP26w3iP+PRT9dgJidV+oYtMPH7mg7jrquGzLb/jiY935I+50lDTzpcXBQqo7ykaSgwlPvss5FgoEhuVY8FgqKH17CkSGyvOn8KF9brE4/x5VUzDjESJ1HJCYsW+CbesoyJt2pDjpUisyElMqiJDeL3wR/x11ZFycwN4+TxROzYYLhT9++vfG9/Jk9Vzj8c4BkM8ysZyPP7NlEk9HuJ+VlcO5dMywgyZJVZpnIq8XiviIPKixDJiPN5TYifd3oQ4isQKVl3bp/7aF6mgxIYdlFhGdCKWS6wY0RFmhJJYKa69kkrs9Lvb9bp98dVdag83w4WCEitXUGIZViGzxFom3nj9xRfyXEijG5RY5473lNiiB3rpDZ1GR8ZGvgFGiQ07KLGMd+Ip9o76DfXq1lUfRm9FvSYYf8TwQHpKrGWBSVBiIx2lD/XT6/a6h0ZJkxfDRkGJlSsosQyrkFlitQup0tiQ5kIa3aDEOne8h8RqQ4m1hs7HmxriweOHkTvulNiwgxLLeCfewOPSAezbuxd7Q7PvEK54GR6JQIm1LDAJSmykwvOFH+Kt+1Wv21NsrI/7jx5SclwpKLFyBSWWYRUyS2yCBGper1KnVvOS4r6c6AYl1rnjPSTWOJRYY8W1vZEbUkyJDTsosYxw4o3vSczt2QQ1agzErqev4b5nETbdNkzSQYm1LDAJSmykYuqdre/U7YuvcEixSwUlVq6gxDKsQmaJtTwL6tXXX6t5UWIZMR7vIbFFDEOJNSI9pJgSG3ZQYhlhRjC2tS6BupM3YPSvtTDd6w2ermqCX8fdtSxXghJrWWASlNhIRclDfd+p2+sdGs0hxa4UlFi5ghLLsAqZJdaS16tvv1XzosQyYjyiKLGPnnlbDSXWSBXZIcWU2LCDEssIK964Y2qdJlj1NBirmtTFDEVigze2ROUhFy0FlKDEWhaYBCU2wnB/7ms1lFhDG1LM67qLBCVWrqDEMqxCVol980bP61X69GpelFhGjEcUJXbirY3vNHI0IjWkmBIbdlBiGWHGa9yc+isKVuuMxoXyo9GQXqiZuzD6HHlhWa4EJdaywCQosRHGlNubTet1wRLOUuw6QYmVKyixDKuQVWJFJaGdqBkzus6JSol17oiixJoNJdZoeHhMxA0xSmzYQYllhBvBuL1zJob16oru/cdi6UkvRW0NQYm1LDAJSmyEUexgb9N6XVD/MIcUu0xQYuUKSizDKmSV2Bcv3p6omTO7zolKiXXuiILEiqHEZg0cjUgNKabEhh2UWIZpvFYuH291NfjmNsyePANrz3nDMDcxJZYS+94Resb50KTc1IBDil0lKLFyBSWWYRWySqzIQTtRs2RxnROVEuvcEQWJDW8oscbyq3vCH1JMiQ07KLEMk3h5oDOKNVsHMZjzzf0FqJE+M8o1a4Zy2Yth0EmlAaQFJdaywCQoseGG2YzzoVmm1O0cUuwCQYmVKyixDKuQVWJFw147UX/4wXVOVEqsc0cUJLbwgZ6mjRsjEQ4ppsSGHZRYhkl4z6iCXyY9whsEY3/HH5G7zwmIO2EDlzXAz0MvhxQSQYm1LDAJSmy4Ed5tIhqRul2EIX9QYuUKSizDKmSV2ICAtyfqjz+qefn5+VkWOnFQYp07IimxEQ0l1ki1qUH4Q4opsWEHJZZhEq9O9keRvPXRo3MVfJ+5EVZ5ikHEb/B4ahVUnHg/pJAISqxlgUlQYsMMm9XtDOcISqxcQYllWIWsEiuE1ZLXy+zZ1bwosYwYj0hK7IRbG0wbNmaEO6SYEht2UGIZphGEyxsmYWC/0Vh67J4qO15eN7ByYC8svWe4K5YSa1lgEpTYMGO8rep2hnMEJVauoMQyrEJWiRUXTUteL3PmVPOixDJiPCIpsYX29zBt1JgR7rAzSmzYQYllmMTLAx2ROUUaZM2eHdmN5CiEbtv4iB0BJfb9o6Ct6naGcwQlVq6gxDKsQlaJFRW/Ja+XefKoeVFiGTEekZDY569fovHpifhdoe7R0ah1aASybG+tN2zy7+6qvqbx57EpYZ8HlNiwgxLLMIk3vocwsUkZ5C9WC92n7cLtsDrCKLGWBSZBiTWNZ69foNmZyWhyZhLqHx2D2odGIuv2Nnrdnm9XF9Q4OFylukKLo5PUXHmNd+KgxMoVlFiGVcgqse7uel4v8+VT86LEMmI8ojCx03///aecxu5quQ4npukNnX8ublBfC43psDNKbNhBiWWEEy89TmDJ4MYolTsfKrcbjw2XffmIHUtdQomNXhjr9o4nput1+98X16uvhYZDip04KLFyBSWWYRWySuzjx3peL/LnV/NyicY7Jda5IwoS+/r1a7XxIuh+bu47EhsQEKAvF5h+7yixYQcllhGZeHkXazrkQYqEX6DJhueWF5WgxFoWmAQlNtwQdfvTp09Vepyf9351O8M5ghIrV1BiGVYhq8QaG++FCql5UWIZMR5RkFhj9L2y+J2GTqQuhJTYsIMSywgnXntfwJoxrVEhe2bkqNgao1edhaexqqXEWhaYBCU20vHedTvDOYISK1dQYhlWIavE3run5/WiSBE1L0osI8aDEitPUGIZJvHG9zAmNimBbNlK4Lf+c7H/XrBlSaigxFoWmAQlNtJhrNunUmJdLyixcgUllmEVskrsnTt6Xi+KFVPzosQyYjwosfIEJZZhEi/3d0CmFN8gV5FiKKZcO3SK/4L+ezg7sYASa7voc2URJdaVgxIrV1BiGVYhq8TeuqXn9bxECTUvcZ+J0wcl1rmDEitPUGIZZvHaH49uXse1a9esuX4b7k8tZURQYi0LTIISG+kwSuy0ixvV3Cg5LhSUWLmCEsuwClkl9vp1Pa/npUqpeVFiGTEelFh5ghLLMI2XCPLxViXHCm9fBPGeWBVKrO2i9+WFlFhXDkqsXEGJZViFrBJ79aqe1/Off1bzosQyYjwosfIEJZZhEi8PdETmFGmQNXt2ZDeSoxC6beNwYgEl1nZhlNjplzapufGa7kJBiZUrKLEMq5BVYi9d0vN6Xq6cmhcllhHjQYmVJyixDJN443sIE5uUQf5itdB92i7cDusRnZRYywKToMRGOnpRYl07KLFyBSWWYRWySuyFC3pez8uXV/MKDAy0LHTioMQ6d1Bi5QlKLCOceOlxAksGN0ap3PlQud14bLjsizeWZWpQYi0LTIISG+noeXmBXrfPoMS6XlBi5QpKLMMqZJXYc+f0vJ5VrKjmRYllxHhQYuUJSiwjMvHyLtZ0yIMUCb9Akw3PLS8qQYm1LDAJSmykwyixMy9tVnPjNd2FghIrV1BiGVYhq8SePq3n9axyZTUvSiwjxoMSK09QYhnhxGvvC1gzpjUqZM+MHBVbY/Sqs/A0VrWUWMsCk6DERjp6XJpPiXXloMTKFZRYhlXIKrEnT+p5PataVc2LEsuI8aDEyhOUWIZJvPE9jIlNSiBbthL4rf9c7L8XbFkSKiixlgUmQYmNdBgldhYl1vWCEitXUGIZViGrxB47puf1rHp1Na+goLBm6HCioMQ6d1Bi5QlKLMMkXu7vgEwpvkGuIsVQrJiB4r+g/x7OTiygxNouul+aR4l15aDEyhWUWIZVyCqxR47oeQXXqKHmRYllxHhQYuUJSizDLF7749HN67h27Zo112/D/amljAhKrGWBSVBiIx3WErtFzY3XdBcKSqxcQYllWIWsEnvokJ5XcO3aal6UWEaMByVWnqDEMqITlFjLApOgxEY6ulFiXTsosXIFJZZhFbJK7P79el7BdeuqeVFiGTEelFh5ghLLMIlXFyahTtFCKFQoFIXLoO8uDicWUGJtF0aJnX2ZEutyQYmVKyixDKuQVWL37tXzCq5fX83r6VPjWDAnDUqscwclVp6gxDLM4qUP7l0PNZSYw4kpsXaKrhfnUmJdOSixcgUllmEVskrs7t16Xk8bNlTzosQyYjwosfIEJZYRnaDEWhaYBCU20tHl4hy9bp9zeauaG6/pLhSUWLmCEsuwClkldscOPa+nv/2m5kWJZcR4UGLlCUosIzpBibUsMAlKbKTDKLFzL29Tc+M13YWCEitXUGIZViGrxG7bpuf1tEkTNS9KLCPGgxIrT1BiGdEJSqxlgUlQYiMdnSmxrh2UWLmCEsuwClkldvNmPa+nzZqpeVFiGTEelFh5ghLLiE5QYi0LTIISG+kwSuw8SqzrBSVWrqDEMqxCVonduFHP62mLFmpewcHBloVOHJRY5w5KrDxBiWVEJyixlgUmQYmNdHS6OJsS68pBiZUrKLHAmzdvsHz5csyfPz/Ws7dNG/2EuFWrFrZs2YJly5aZlnUkuzt00PO6U726mpcrHLMLlSvrn+tMjx7q51q0aJFpWSIfzz/6SD12/yZNqh67DRs2mJYLTZVlPfSGTo+NkyJ93FeOH6+fL97ZsqnrrV692rRsbOOZ5Vi8iuKxIEQQnCKFev68VqQoNpw/nkqDT6tLdi1ejM2bN5uWE7yOH18t9+zjj9V9s27dOtNyjuRpqlRqTm8SJJDqeJVb3kWv2wdsmqrmtnDhQtOyxPk4V7Wq/r05162benwXK98fs7LE/iycPVs/HoFp06rHY+3ataZlZeah6KCIZCif1jr27t2rfP44qFu3bqxnvOHX2ZNlymDSpElo27ataVlHMrZIET2vU6VKqXm1b9/etKwzsTZrVv1zbW3cWP1cTZo0MS1L5CMgcWL12L1MkkQ9dsOGDTMtF5qsw2roDZ3fZ/VR123atKlpWSOtq1TRz5dHGTOq6/Xq1cu0bGzDXzsWyr9RORaECHyU77A4f14pUiTOn+HDh5uWcxWuffKJXpfMHDoUY8eONS0neBUvnlouSBF9sW8GDx5sWs6ReCdLpuYkBFvkNGLECNNyjibzqLd1e8sZ/dXcfv/9d9OyxPlY9cMP+vdmW6NG6vFt1qyZaVlifxrUqqUfD58vvlCPx4ABA0zLysqXX36Jxkr7P7KhfFrr2LVrF4oVK4bAwMBYz7MFC/QTwu/PP3H37l11WJVZWUfybOFCPS9/ifKKLi+6dNE/l6fy5ROfy8/Pz7QskY83H3+sHjsxnFgcO/Frmlm50HQ79/a+qUlnVqvriiEwZmWNBF29qp8vz/PnV9dzd3c3LRvbeGNplIvhxFE5FoQI3igNIPX8SZQoVpw/r5T6Q6tL7p84gfv375uWE4ghu6LcK2UfiX3z6NEj03KO5E3q1GpOIjeZjlfrU1P1un32+U1qbrymuw4vevTQvzde48erxzcy125iJ8StDZbj8TJjRvV4PH782LyspEyZMkX9oSuyoXxa66DEvkVaiZ0//21erVtLk1d0ocQ6N5RYeaDEkuhAiaXE2oJWp/6hxLowlFjJoMRSYo1IK7Fz5rzNq21bafKKLpRY54YSKw+UWBIdKLGUWFvw56m/9bp9zvnNam68prsOlFjJoMRSYo1IK7GzZr3Nq0MHafKKLpRY54YSKw+UWBIdKLGUWFtAiXVtKLGSQYmlxBqRVmKnT9fz8u3YUZq8ogsl1rmhxMoDJZZEB0osJdYW/GGQ2Lnnt6i58ZruOlBiJYMSS4k1Iq3ETp2q5+XbubOal3hWnVlZZ4IS69xQYuWBEkuiAyWWEmsLjBI7jxLrclBiJYMSS4k1Iq3E/v23npdvt25qXpRYEtNQYuWBEkuiAyWWEmsLWp6cQol1YSixkkGJjU0S645L+3fgxJ2wK1RZJfb55Ml6Xj7du6t5UWJJTEOJlQdKLIkOlFhKrC2wltitam68prsOlFjJoMSGI7FPjmJW9zZo3ao1Wrdph049h2DKimO45xeqXET4PYGXr8nrEeKNY7N7oE3rVmjdui06dB+MqRvPw820rBl+eOJl+HJ5b0ebjElRavxt+FuVe4u0Ejtxop6XT8+eal6UWBLTUGLlgRJLogMllhJrC1qcnPyOxPr7+5uWJc4HJVYyKLFhS6z/jTEonugjZKvUDC2aN0HDKkWQMXkCpMz1BxZfiqxoPMHG5l/jf1Vmw8N0eTj438TY4onwUbZKaNaiCRpUzI0vkyTDd02X4pa/SflQPNnYHF//rwpme1hec2aJHTdOz8unTx81L0osiWkosfJAiSXRgRJLibUFRomdf4ES62pQYiWDEhuBxCZJjabr30qc7+WlaPp9EiQvMRpn9R5Zb9w+tgELpk7B37NX4fAtTa788fjaUfxd8wskLTkUB4+fwLlbXuoy79vHsGHBVEz5ezZWHb4Fb8v2rfC/gTHFkyB10/V4or7mj8sTf0byRPkw6HSI6IS1Hf/H13D075r4ImlJDD14HCfO3YKXLrG38PD0Jsz9ZzqW7rtp9d7SSuyYMXpePv36qXlRYklMQ4mVB0osiQ6UWEqsLWhOiXVpKLGSQYmNmsQKHi6tj88T/ogeh8WJ642tHbIg1ZfZUbJSZZTN8SWSfFwSo08qIuJ/GzNqp8cnH8ZH3KSp8NVXaZCjwyY83toBWVJ9iewlK6Fy2Rz4MsnHKDn6pNV7qLwjsYq07umE7xNlRJvt3vAOczv+uD2jNtJ/8iHix02KVF99hTQ5OmDTYyGxiZCpaElkTJsVBfNnRIqEn6Ls+NPws2xfWokdPVrPy3vAADUvHx8f07LOBCXWuaHEygMllkQHSiwl1hYYJXbBhW1qbpRY14ESKxmU2KhLbODdSSiTKBkqzRSNR0UYT53ADW/LMu996JI1CXL0Omop/wTrm6bGB5Vm6sOJ/W+fwokbWi+iN/Z1yYokOXpZ/jbwjsS6Y1+PXEiaqipm3Y14O0/WN0XqDyphptVw4gT4X+6O2HhbVKpu2NgyAxL91ANHLPfsSiuxI0boeXkPGqTmRYklMQ0lVh4osSQ6UGIpsbag2clJlFgXhhIrGZTY95BY9+momCQxyk817CiPGzi2fR2WL52BljkSI32rrZZl70psCB64cWw71i1fihktcyBx+laGZRZUiU2EZBmKonLVSiib7xt8lCw9avx9yjAEOOztmEus9T2x7jMq4oMvf8OqJyF/Syuxw4bpeXkPGaLmRYklMQ0lVh4osSQ6UGIpsbag6Ym3EruQEutyUGIlgxIbdYn1Pd4HORKlQbMN4nVfnJv1G35KlRLf5imBcuV/RvbPEiDdn2FLrO+5Wfjtp1RI+W0elChXHj9n/wwJ0v1pKW9AldjESFGgGQYOHY4xfy/Grsse+vKIthMZifWYXQUffd4IK7xC/pZWYhVx1fJ6ogityIsSS2IaSqw8UGJJdKDEUmJtgVFiF13YruZGiXUdKLGSQYmNqsS6Y0eHLEj0ZUMsfaz8/WQDmqVNgnz9T1h6R+9iUpmkoSQ2jUFin2BDs7RIkq8/TliGIN+dVAZJw5RY63ti3xLxdoTEpnERiX0xaJCe15MRI9S8KLEkpqHEygMllkQHSiwl1hY0OTGREuvCUGIlgxIbgcQm/hIN5l/CjeuXcfrgOkxpXwxfJvkSlf4+FzIZktdyNPwsCYqMuKiKodepKaiS2tgT640d7TIica6+OOGrbNPfA8sbfoYkRUbgonhMjtcpTKmSOpye2LAk1ivC7XjvaIeMiXOh7wnlC6ZUov7OLLEDBuh5PRk9Ws2LEktiGkqsPFBiSXSgxFJibYFRYhdTYl0OSqxkUGLDltjAe9NQ6X9xlX0TRyEeEiX/ElmKN8Lg1RcN96S6Y2efAkiV7AtkzZsDmbNXxu8VMuD79jv07bhvbo8sSRMi+ZdfIVPj5bi7sw8KpEqGL7LmRY7M2VH59wrI8H17vbyO/21M+vkjpPtjs4nEKtuNaDvum9E+S1IkVPL+KlNjLH+0Cx2/T45fptzVy3gtqIlUaZpgneT3xL7o21fPy+uvv1ym4qDEOjeUWHmgxJLoQImlxNqCxicmUGJdGEqsZFBiw5HYSOOHhxf2YfvO47hlkcHQeFw7jO1b9+D8g5DKzO/hBezbvhPHb0VPECPcjsc1HN6+FXvOP9B7X8NDWont3VvPy2vsWJepOCixzg0lVh4osSQ6UGIpsbbAKLFLLu5Qc6PEug6UWMmgxNpCYl0HaSW2Z089L68JE1ym4qDEOjeUWHmgxJLoQImlxNqC3ymxLg0lVjIosZRYI9JKbLduel5eFtmjxJKYhhIrD5RYEh0osZRYW2CU2KUXd6q5UWJdB0qsZFBiKbFGpJVYo+xNnuwyFQcl1rmhxMoDJZZEB0osJdYW/HZ8PCXWhaHESgYllhJrRFqJ7dRJz8vzn39cpuKgxDo3lFh5oMSS6ECJpcTagkbHx1FiXRhKrGRQYimxRmSV2JcdOuh5eU6bpublCrJHiXVuKLHyQIkl0YESS4m1BZRY14YSKxmUWEqsEWkltl07PS+PGTPUvCixJKahxMoDJZZEB0osJdYWGCV22cVdam6UWNeBEisZlFhKrBFpJbZ1az0vj1mz1LwosSSmocTKAyWWRAdKLCXWFhgldjkl1uWgxEoGJZYSa0RaiVVy0fLymDNHzYsSS2IaSqw8UGJJdKDEUmJtQcPjYymxLgwlVjIosZRYI9JKbMuWel7u8+apeVFiSUxDiZUHSiyJDpRYSqwtMErsiou71dwosa4DJVYyKLGUWCPSSmyzZnpe7kqOrnJhoMQ6N5RYeaDEkuhAiaXE2oIGx8ZQYl0YSqxkUGIpsUakldgmTfS83BctcpkLAyXWuaHEygMllkQHSiwl1hYYJXblJUqsq0GJlQxKLCXWiLQS+9tvel7uS5e6zIWBEuvcUGLlgRJLogMllhJrC+pTYl0aSqxkUGIpsUZkldh/GzXS83JbtsxlLgyUWOeGEisPlFgSHSixlFhbUO/YX3rdvurSHjU3SqzrQImVDEosJdaItBLboIGel9vKlS5zYaDEOjeUWHmgxJLoQImlxNoCSqxrQ4mVDEosJdaItBJbt66el9vqkEY/JZbENJRYeaDEkuhAiaXE2oK6BoldfWmvmhsl1nWgxEoGJZYSa0Raia1dW8/r8Zo1al4BAQGmZZ0JSqxzQ4mVB0osiQ6UWEqsLTBK7BqLxLpCW4WEQImVDEosJdaItBJbs6ae1+P1613mwkCJdW4osfJAiSXRgRJLibUFdY6OpsS6MJRYyaDEUmKNSCuxv/6q5/V440aXuTBQYp0bSqw8UGJJdKDEUmJtgbXE7lNzo8S6DpRYyaDEUmKNSCuxVavqeT3evNllLgyUWOeGEisPlFgSHSixlFhbUPvoKEqsC0OJlQxKLCXWiLQSW6mSntejrVtd5sJAiXVuKLHyQIkl0YESS4m1BUaJXXuZEutqUGIlgxJLiTUircRWqKDn9Wj7djUvs3LOBiXWuaHEygMllkQHSiwl1hbUosS6NJRYyaDEUmKNyCqxr8qX1/N6pBwvkZdZOWeDEuvcUGLlgRJLogMllhJrC2oeHanX7esu71dzo8S6DpRYyaDEUmKNSCuxZcvqeT3cvVvNy6ycs0GJdW4osfJAiSXRgRJLibUFlFjXhhIrGZRYSqwRaSW2TBk9r4d7Q6atNyvnbFBinRtKrDxQYkl0oMRSYm1BjSMj9Lp9PSXW5aDESgYllhJrRFqJLVVKz+vhgQO4d++eaTlngxLr3FBi5YESS6IDJZYSawuMErvh8gE1N0qs60CJlQxKbNgSu2XLFgwaNChWMaR2bYxUTgbBAOUi1717d/Tr18+0rCMZli6dnldPRa57KBWJWTlnY2jRovrn6lu5srq/BwwYYFqWyMfwZMnUYzdcafiKY9erVy/TcqEp1r4m4jTKqlK5XUN13f79+5uWtaJzZ/18GZI2rbpenz59zMvGMvRjoTRqo3IsCBEM//DDkPMnfvxYcf4MU+oPrS7p2aYNevbsaVpOMCJePLXcMGUfybJvhv/vf2pOIjeZjtcPrX7R6/bfOv2h5jZw4EDTss7A4MGDVTEI3T6OrVBiJYMSG7bEfvXVV4gbNy7iKZVkrEH5vPGVk0EQT2BWJiaw5KTmZbbcWTHu79h2rrkC2rGL4nkZN15cxIkbR0X836xMWOjnSxTf0+XhfiHRIbadP5bPq35ms+VGtHKRKesoZMxJIY5V3W5expkQbeBRo0a90z6OrVBiJYMSG7bEfvvtt8p+USojQgghhBBCXJz48eMjQYIE6v8TJUqEkSNHvtM+jq1QYiWDEkuJJYQQQgghREOILCXWGkqsZFBiI5ZYMaRC/Js7d2788ccfLk2rn39GO+WzClpky6bu2ObNm5uWdSRtPv9cz6txnTpqXmblnI1WOXPqn6uZcg6Kz9WiRQvTskQ+2iZJoh67tsrFXhy7xo0bm5YLTa66pRGnYjqVYnXKR/64N2yony+tlO+EWK9p06bmZWMZ73ssCBG0TZo05PxRrvex4fyxuqbWrh3u520bN65aro2yj8S+adKkiWk5R9L2gw9CjpeSm0zHK13NgnrdXqlBDTW3li1bmpaVFU1iRduXEmsNJVYyKLGR64n93//+hx07drxTxtWQdXbi13ny6HndP3Mm3JkUnQnOTuzccHZieeDsxCQ6cHZizk5sC6oeHqbX7ZuvHFJzc7bZievVq6fs2pC2LyXWGkqsZFBiKbFGpJXYXLn0vO6fO0eJJVJAiZUHSiyJDpRYSqwtoMS6NpRYyaDEUmKNSCux2bPred27cIESS6SAEisPlFgSHSixlFhbUOXwUEqsC0OJlQxKLCXWiLQS++OPel73Ll2ixBIpoMTKAyWWRAdKLCXWFlBiXRtKrGRQYimxRqSV2B9+0PO6pzTkKbFEBiix8kCJJdGBEkuJtQWVDRK75cphNTdKrOtAiZUMSiwl1oi0Evv993ped69dw4MHD0zLSY1S0QXdvGnFC2Ufa5/rydCheKA0JvyVz6cuv3XLfDtEGiix8kCJJdGBEkuJtQVGid1KiXU5KLGSQYmlxBqRVmIzZ9bzunvjhnNKrPJl+y95cv1zRMRrpZFhuh0iDZRYeaDEkuhAiaXE2oJKh4ZQYl0YSqxkUGIpsUZkldg3mTLped29fds5JVbh34YN9c8REU+HDYOPjw8rSImhxMoDJZZEB0osJdYWGCV225Ujam5m5WSGEhs2lFjJoMRSYo1IK7Hp0+t5iZycVWKDV63SP0dEPDgScgH08PAw3RaJeSix8kCJJdGBEkuJtQUVDw2mxLowlFjJoMRSYo1IK7HKsRA5/acgcnJWiVWHFKdIoe/jsHieO7f6OVlByg0lVh4osSQ6UGIpsbaggkFit1+lxLoalFjJoMRSYo1IK7Fp06o5/Rc/vpqT00qsQmSGFHv366d+zvAaFiTmocTKAyWWRAdKLCXWFlBiXRtKrGRQYimxRqSVWEkvWO9D8OrV+j4OiwdHj6qfk0OJ5YYSKw+UWBIdKLGUWFtQ4dAgvW7fcTXkOm5WTmYosWFDiZUMSiwl1oi0Evvll2pObxInluqC9V74+IQ7pJhDiZ0HSqw8UGJJdKDEUmJtASXWtaHESgYllhJrRFqJ/ewzNac3SZNKdcF6X/5t1Ejfz6Hx7t9f/YzOPGQ6tkCJlQdKLIkOlFhKrC0of3CgXrfvvHpMzc2snMxQYsOGEisZlFhKrBFpJdbFGqjhDSnmUGLngRIrD5RYEh0osZRYW2CU2F2UWJeDEisZlFhKrBFpJTZVKjWn1x99JNUF670JY0jx8zx51M/HitE5oMTKAyWWRAdKLCXWFvxCiXVpKLGSQYmlxBqRVWI14XudPLlUF6zoYDakmEOJnQtKrDxQYkl0oMRSYm2BtcQeV3MzKyczlNiwocRKBiWWEmtEWolV9r/I6XWqVGpOMlxEo0vwmjX6vhaIZ+ByKLFzQYmVB0osiQ6UWEqsLSh3cAAl1oWhxEoGJZYSa0RaiVUapiKn10pDVeTkChKrDilOmVLf3xxK7HxQYuWBEkuiAyWWEmsLyhokdjcl1uWgxEoGJZYSa0RaiU2aVM3p1aefqjm5hMQqvDQMKfYeMED9bBxK7DxQYuWBEkuiAyWWEmsLKLGuDSVWMiixlFgj0kps4sRqTjJdRG1B8Nq16udShxIfC5kEgkOJnQdKrDxQYkl0oMRSYm3Bzwf663X7nmsn1NzMyskMJTZsKLGSQYmlxBqRVmITJFBzevXVV2pOriKx2pDiF/nyqZ+LFaJzQYmVB0osiQ6UWEqsLQgtsffu3TMtJzOU2LChxEoGJZYSa0RaiY0XT83pX+XCJctF1Fa8/O03BA4frn4uqYcS+3rjwfn7uHjoLm5c9YKPWRkr/OF58xGuHr6Dy2fc4PbErIxzQ4mVB0osiQ6UWEqsLShzoJ9et++lxLoclFjJoMRSYo1IK7GWnP79+munPEk1rioSkiNHDv28el8KFSoUxX3gjytTt2Bo2eXo/3MIA35ZiaG1N2Ja/xM4dNwL/qbrBcL/3l3sHKCsW3w+OuaYp9Pt5/WYPeka7oWWUz8vXJy/H5OrLkEXQ/lOBZZjTJfjOHHVz7q8E0OJlQdKLIkOlFhKrC2gxLo2lFjJoMRSYo1IKbEBAXpO/yrHxBlPUo0BAwao55MtmDZtmul7mOOLA20XqDLZ85c1GFFjLYZXWYE+BSySmXsZJk+/D+9Q6/levICZ5UPW61pmPaYPOIJ1E49h1YAdGFduITrlmI9Bg2+/XcfnMfZ1WhEir/mWYUz7/Vg1/jjWjdqPGQ2Xo3vOeehc/gDOeVu/j7NCiZUHSiyJDpRYSqwtKG2Q2H3XTlJiXQxKrGRQYimxRqSUWD+/tydp+vROeZJqdOrUST2fbMFff/1l+h7maBK7ANNWvq1w/T3ccHL8JvRR5LJj3nVYd8r/7TpP7mFt7YXKOvPRr9UZXHusbcuCjwfO/r0DE4besLzmh8vj16GbIrCdy2zD9pPe1uUD/fFw70nM+P0gTrnI0GJKrDxQYkl0oMRSYm2BUWL3U2JdDkqsZFBiKbFGpJRYFzhJNYwSm63iH6g37XyUSF/oV319W0isir87djQNkdWR47V7cgPwYOFW9FCEtFPZvTjxKMB6HRP8b57D34UVGc61HPO3eIc5PNmVoMTKAyWWRAdKLCXWFpQ60JcS68JQYiWDEkuJNSKlxHp5vT1JM2d2ypNUwyixP1ZujQYzL0eJjEVr6uvbTGID/XFh2Ep0VoS1bx9Lr6qfO7b+LsrPx6gJD+FnVd6MANybuRFdRS9s7WO44WtWxvWgxMoDJZZEB0osJdYWGCX2wLVTlFgXgxIrGZRYSqwRKSXWw+PtSZoli1OepBpySqwvjnZdot7fOnSU5YL7+BKmFRT3yq7CisOGIcZh4q1sf5EqvUOGK5W6aRnXgxIrD5RYEh0osZRYW1Byfx9KrAtDiZUMSiwl1oiUEquckFpOL7JmVXNyc3MzLys5Mkqs78UzmFxEDANegSV7Q5b5nTmGkbnFfbJbseehcTth4PsA62qJ2YsXYMqiGD5fHAglVh4osSQ6UGIpsbaghEFiD14/TYl1MSixkkGJpcQakVJilYuTltOLbNnUnCix7yux8zHur2s4teMGTm25gj1T9mFcaSGf89G/0yU88Asp73vwEAYLiS24E4e9Qm/LBJ87WF5RbGchZqyNPRU6JVYeKLEkOlBiKbG2gBLr2lBiJYMSS4k1IqXEKhcBLacX2bOrOVFi31diFTENTb5lGD/oEm55vi3ve+QwhgiJzbcN+z2M2wkDn7tYWTmkJ3bqMh/zMi4IJVYeKLEkOlBiKbG2oPj+3pRYF4YSKxmUWEqsERklNkjJQcvpeY4cak6U2PfviR3e7SS2TD+FrbPOYt/6W7h5z++d8v7XTmOckNjc67DhQsQzE6sTQTUK6dEdPflRrJiZWECJlQdKLIkOlFhKrC2gxLo2lFjJoMRSYo1IKbG3b+s5Pc+dW82JEmvLiZ1M8L6FxWVFT+0i/LPEKxJS6oezA5ajU4556NHqAtz8zcq4HpRYeaDEkuhAiaXE2oJi+3vpdfuh62cosS4GJVYyKLGUWCNSSuyNG3pOz/PmVXOixNpZYpXyp/qGSGm3hqdwKxKPzPHesQ/9cyniW2ADNl+IzIzGzg8lVh4osSQ6UGIpsbbAKLGHKbEuByVWMiixlFgjUkrstWt6Ts7ecHceiQ2E39mTGFtAkdKcizF23G14vNO76of7245j3tjrIX/7PsSmBguV95iHng2O4vzDd4ch+167jvU9j+KEm/XrzgolVh4osSQ6UGIpsbag6D5KrCtDiZUMSiwl1oiUEnvlip7Ts4IF1ZwosfaXWCGpN+duRV/Ru6qs16/hbqyeeR4HVl/C3llHMa/JCnTPOQ892l7U1/E9dwZTSony89ClzAbMHXMae1dexsHFp7Gm1yYMEs+eLbQdBx6Ffi/nhBIrD5RYEh0osZRYW2CU2CPXz1JiXQxKrGRQYimxRqSU2IsX9ZyeFS6s5kSJjarE+uFY9yXonHsJ5m58dyKnsPHF7XWHMbnCInVosXFW4075l2Ncr9M4f8e6x9X74hWsbLES3VX5NZBzIfo33Itt+z1dZuInSqw8UGJJdKDEUmJtQZF9PSmxLgwlVjIosZRYI1JK7Pnzek7PlOMkcqLERlVio4svHp26hWNrLmLv4os4suMe7rmFP2ux950HOLvpMvYvPo/9627g8jUfl5u1mBIrD5RYEh0osZRYW1DYILFHb1BiXQ1KrGRQYimxRqSU2DNn9JyCixdXc6LEOlpiiRmUWHmgxJLoQImlxNoCSqxrQ4mVDEosJdaIlBJ76pSeU3DJkmpOlFhKrAxQYuWBEkuiAyWWEmsLCu3rodftx26co8S6GJRYyaDEUmKNyCixT0+e1HMKLlNGzcnDw8O0rOxQYl0LSqw8UGJJdKDEUmJtASXWtaHESgYllhJrREqJPXZMz+npzz+rOVFiKbEyQImVB0osiQ6UWEqsLSi4t7tetx+nxLoclFjJoMRSYo1IKbFHjug5PS1XTs2JEkuJlQFKrDxQYkl0oMRSYm0BJda1ocRKBiWWEmtESok9dEjP6WmFCmpOMkmsuEjdvHnTdFloKLGuBSVWHiixJDpQYimxtqCAQWJP3DhPiXUxKLGSQYmlxBqRUmL379dzelqpkpqTLBLbuHFjJFQuoqKir1+/Pu7cuWNaToMS61pQYuWBEkuiAyWWEmsLrCX2AiXWxaDESgYllhJrREqJ3btXzymoShU1J09PT9OyjkTkET9+fPX80Cr7ZMmSoV+/fmHuM0qsa0GJlQdKLIkOlFhKrC3Iv7cbJdaFocRKBiWWEmtESolVjo+WU1C1ampOMkisIHny5Or5YSRp0qT4RGlQz5kz553ylFjXghIrD5RYEh0osZRYW5B/b1e9bj+pSGx4+1VWKLFhQ4mVDEosJdaIlBKr7Hctp6Dq1dWcZJHYffv2IUOGDPhAaThr54qG6JXNmjUrdu/erZenxLoWlFh5oMSS6ECJpcTaAkqsa0OJlQxKLCXWiIwSG7x9u55TYM2aak6Ollhx0Rbva8bt27cxePBgJEiQQK3wtXNGI168eChYsCAuXbpEiXUxKLHyQIkl0YESS4m1Bfn2vJXYUzcvUmJdDEqsZFBiKbFGpJTYLVv0nAJr11ZzcqTEXrhwQT0HEidOHC7G+2MF4m8hsMbXcuXKpf8/uhLbrFkzrF69WmXNmjUqa9euVVm3bp3O+vXrVTZs2KCyceNGnU2bNqls3rxZZYuyrwVbt27V2bZtm8r27dtVxPcgNDt37lQR3yWB6H0W7NmzR2fv3r0qovdasH//fp0DBw6oHDx4UOXQoUMqhw8f1jly5IjK0aNHVY4dO6Zy/PhxnRNKY0xw8uRJlVOnTr3D6dOnVc6cOaNy9uxZnXPnzqmcP39eRRx7wcWLF3XEjxGCy5cv426KFHigHIt7yZKpuYn3vqqI5rVr11SuX7+ucuPGDR0xk3WrXeMRZ94vKsN2zVFzFcvExGACcY4bEfdVCR4on9dXeT+Be+7cao5i+6IBJxqWAlGBa7i5uakI0RWICdE0xHdI4OXlpSK+5wJv5aKg4ePjoyIu0gI/Pz8Vf39/nYCAABWz744jocSS6ECJpcTaAkqsa0OJlQxKLCXWiJQSq0iWllNg3bpqTo6UWCFVH330kXoeRBYhtdr/48aNq//fKLrRlVhCnAXxHRCIH3UE4nugIUYwCMQs39pM3wLjD0RJkiRREfebC8RQfYEYxq/xobL9j5T3Enz44Yfqd1bU2wJx77ogRYoUKilTplRJlSrVO3z88ccq4r52waeffqrz2WefqXz++ecqXyiNesGXX36p89VXX6mkVhrZgjRp0uikTZtW5euvv1b55ptvVMS1RiNdunQq6dOnVxG3KwgyKhdojUyZMlmROXNmle+++07n+++/V8mSJYuKuLVB44cfflDJli2byo8//qjy008/6WTPnl0lR44cKjlz5lQRP8Rp5M6dWyVPnjwqefPmVcmXL59OfkWWjBQoUEBHjFARFCpUSKVw4cIqRYoU0SlatKiKuEYLihcvrlKiRAmdkiVLqpQqVUqldOnSKmXKlEH37t3VH2nM6nYjlFhKrC3Iu6eLLrGnKbEuByVWMiixlFgjUkrs+vV6TgH166s5RaZRYiveR2LDQjTWtf9TYgkhxP7MmDHDtG43QomlxNoCSqxrQ4mVDEosJdaIlBK7dq2eU0DDhmpOMSGxxh5VY8+LhrZMQ/QGCYyvVaumXNws/4+uxIoeGdELofVMaD0VWs+FsTdD6+HQejy0HhCB1isSusfE2Jui9bBoPS5aD4yxV0brqdF6brSeHGPvjtbjo/UAaT1CAq2XSOs50nqSjL1LWo9T6J4oYy+V1nOl9WRpPVsCrbdL6wHTesS0HjKB1mum9aRpPWvGY631wH2hnBNfKsfic+Xf0D132t9az56xty9J8g8Q56OEiPNhQiT734dWvYUaWi+iOPcE6vmULBk+VN5P8EG8eHrPpIbWY2nsxdR6NrWeTq3nU6D1hmo9pFqPqXaOEeLsiPN72bJlpnW7EUosJdYW5NnTWZfYMzcvUWJdDEqsZFBiKbFGpJTY1av1nAKUAy1yismeWCE0xuXiXsYaNWqoEqGV0RASIdYdM2aMei8hJ3ZyLWLjxE7aPbDG+2K1e2XFZxBo99Ia768V9YhAfHcF2j25Au0+Xe3eXe1eXnEx0hANZ4HYx4IHDx6oiEaiwDtVKvgo++WJIvriXmdxL7PYPwLtXmOBmIhNcOvWLRVxj7KGdt+ydi+zdm+zuM9Z48qVKyrinmiBdo+08b5p7V5q7d5q7V5rgXb/tXZPtnaPttn929q93dq93sb7v7V7wrV7xLV7xo33kWv3los6TKDdey7Q7kfX7lHX7lk33seu3dsurpEC7d53cS0MjXbPvHYPvfG+eu1ee+3ee+1efIF2f752z752D7/xvn7tXn/t3n9tLoBVq1bprFy5UmXFihUqoo4UP+hoPyRGdAsKJZYSawuMEnuWEutyUGIlgxJLiTUipcQqDRItp4AmTdScZJHY8UolJuTVOExYIH79Fw2o1q1bW13wKbGuBWcnlgdO7ESMiJEFWl0pRiBE1LChxFJibUHu3ZRYV4YSKxmUWEqsESkldtkyPSf/pk3VnGSQWNHTJHpatdc1hNT+8ssvao9M6G1RYl0LSqw8UGKJEUps+FBi7UOu3co13lK3n7t5mRLrYlBiJYMSS4k1IqPEPlu6VM/Jv0ULNScZJFZcNEUFr70uZksV93KK4Xaht6FBiXUtKLHyQIklRiix4UOJtQ+UWNeGEisZlFhKrBEpJXbRIj0n/z/+cHhO4Q0nnj59ujoZkJgAaPbs2VbrmUGJdS0osfJAiSVGKLHhQ4m1DzkNEnv+1hVKrItBiZUMSiwl1oiUEmvMqVUrh+cUnsRGFUqsa0GJlQdKLDFCiQ0fSqx9oMS6NpRYyaDEUmKNSCmxc+e+zalNG4fnRIklYUGJlQdKLDFCiQ0fSqx9yLG7IyXWhaHESgYllhJrREqJnT37bU7t2jk8J0osCQtKrDxQYokRSmz4UGLtAyXWtaHESgYllhJrREqJnTlTz8m3QweH5+Roia04cB0qD9lsuowSKxeUWHmgxBIjlNjwocTah+y7Ouh1+4VbVymxLgYlVjIosZRYI1JK7LRpek6+igSKnLyVE9esrD1wpMQWajZSXRYvQUKU7jz7neWUWLmgxMoDJZYYocSGDyXWPlBiXRtKrGRQYimxRqSU2H/+0XPy7dJFzckVJbbu1LNIkDiZvvyjz7+1Wi6gxMoFJVYeKLHECCU2fCix9uEng8RepMS6HJRYyaDEUmKNSCmxygHWcvLt3l3NyRUlNm/9vvoyjWKtJ1uVocTKBSVWHiixxAglNnwosfbhx13t9br90q1rlFgXgxIrGZRYSqwRGSX2+aRJek4+SgUicnI1ia37z1kkTfm5vkwjZdrvUX/GJUqspFBi5YESS4xQYsOHEmsfKLGuDSVWMiixlFgjUkrshAl6Tj69e6s5uZrE5qnXR389NMVaT6LESgolVh4oscQIJTZ8KLH2IduudnrdfpkS63JQYiWDEkuJNSKlxI4dq+fk07evmpMrSazaC5viM/31nDW64LtSDfS/jb2xlFi5oMTKAyWWGKHEhg8l1j5QYl0bSqxkUGIpsUaklFhF1rScvPv1U3Py8fExLWsP7C2xeer11l9L/GFK1JlyCtX/2od4CRLprxdrNZESKyGUWHmgxBIjlNjwocTahx92vpXYK7evU2JdDEqsZFBiKbFGpJTYUaP0nLwHDlRzchWJrfvPGSRN/qn+Ws6aXVVZFXxXuqH+eoo036m9sZRYuaDEygMllhihxIYPJdY+UGJdG0qsZFBiKbFGpJTY4cP1nLwHD1ZzchWJzV23l/534o9Sqb2wmsRWH7MP8RMm1pcXbTWBEisZlFh5oMQSI5TY8KHE2oesO9vqdftVSqzLQYmVDEosJdaIlBI7dKiek7fyf5GTK0jsDxVaIknyT/S/c9Z62wur8V2ZRvryFKkzI0ORGvrflNiYhxIrD5RYYoQSGz6UWPtAiXVtKLGSQYmlxBqRUWJfDB6s5/Rk+HA1J1eQ2C9/KKz/P8lHH1v1wmqE7o39IksB/f+U2JiHEisPlFhihBIbPpRY+5BlZxu9br92+wYePHhgWk5mKLFhQ4mVDEosJdaIlBI7cKCe0xOlMhU5uYLEJkicTP9/rlrd3hFYje/L/KaXS5Tsf/r/KbExDyVWHiixxAglNnwosfbheyuJvUmJdTEosZJBiaXEGpFSYvv313N6ooiboysNe0mshtoL+/dpU4EVVB+7H/ETJXlnPUpszEOJlQdKLDFCiQ0fSqx9oMS6NpRYyaDEUmKNSCmxffroOXmNGePwSsPeEpurdndTeTXy/c+/v7MeJTbmocTKAyWWGKHEhg8l1j58t6O1Xrdfp8S6HJRYyaDEUmKNSCmxvXrpOXmNG+fwSsOeEpvkf5+E2wurUWPsgXd6YymxMQ8lVh4oscQIJTZ8KLH2gRLr2lBiJYMSS4k1IqXEGiuNiRMdXmnYUmLbtWunb0eQ6IPk+Klqu0hhXE8wevRo0/cgjoMSKw+UWGKEEhs+lFj7kNkgsTfu3KLEuhiUWMmgxFJijUgpsV276jl5Tprk8ErDlhJbvnx5fTvRpXnz5qbvQRwHJVYeKLHECCU2fCix9oES69pQYiWDEkuJNSKlxHburOfkqRxsR1catpTYtm3b6tuJLhMnTjR9D+I4KLHyQIklRiix4UOJtQ+ZdrTS6/ablFiXgxIrGZRYSqwRKSW2Qwc9J8+pU9Wc/Pz8TMvaA1tKrL+/P1q0aIE8efK8N3nz5kXv3r1Nt08ijziHhg0bhp49e743/ZMmxQDlnOivNKQ6KOepuOfZrFxoCv1RBXHqfKfyS8va6rrdu3c3LWukV5s26vsJ+iiNOLFely5dTMvGNt73WBDXRKuvBUJoO3fubFpOo/8HH4ScP0rZ2HD+9FPqD60u6di8OTp27GhaTiD2iSjXT9lHsuyb/so1WcbjlaphHr1ub9e+Xbj7VVayZcumf3fix4+P0qVLm5aLjewqXFhvjx5U2sgLlDbzwIEDTcsSB9Ctm16P9U2ZUq0LIqrrY5IBAwbA09PTqi1KibUhMkrsy/bt9Zw8p093aokl8nDs2DH9mBJCCCGEhMcgBeU/KrNKlkTLli3x8ccfW5UhJDzWrFlj1RalxNoQKSW2bVs9J4+ZMymxxCYIiTUeV+PwQ0IIIYQQI5RYElUSJEigty+FS1Ji7YiUEtuqlZ6Tx+zZlFhiE0JLLCGEEEJIWFBiyfsihuZTYu2MlBL7xx96Th5z51JiiU0wk1hxL0VU6JkkCXop6/VMmBCtWrVCmzZtTMuFJn/TCohTI5NKmSbV1XXFvVNmZY10adFCfT9BN+U8FOuJxzaZlY1t9EyaNORYJEgQpWNBXBPj9zpu3LjqpHpm5TR6fvBByPkTL16sOH96KPWHVpe0VhpQrVu3Ni0n6KnsP1Guh7KPxL6JaF86gp4ffhhyvJTcZDpeKerk0Ot2Zz2PsmbNqn93RMO7RIkSpuViI9sLFNDbo/sVgZ2rtEnFHCVmZYkD6NBBr8e6p0ghTf1kxHgtosTaGSklVmm4azm5z59PiSU2IbTEfvLJJ6blwoOzE8sDZycmRjg7cfhwdmL7kGH7H3rdfufOHc5O7GJwdmLJcILZiX/88Uf1uySgxNoZKSW2aVM9J/eFC9WcxCy/ZmXtASXWNaHEuhaUWGKEEhs+lFj7kH57S71uF3lRYl0LSqxkUGIpsUaklNjGjfWc3JcsUXOixJLoQol1LSixxAglNnwosfaBEuvaUGIlgxJLiTUipcQ2aqTn5LZ0qZoTJZZEF0qsa0GJJUYoseFDibUP6SixLg0lVjIosZRYIzJK7L8NG+o5uS1fruZEiSXRhRLrWlBiiRFKbPhQYu0DJda1ocRKBiWWEmtESomtX1/PyW3VKjUnSiyJLpRY14ISS4xQYsOHEmsfvt3WghLrwlBiJYMSS4k1IqXE1qmj5+SmHHyREyWWRBdKrGtBiSVGKLHhQ4m1D99sa06JdWEosZJBiaXEGpFSYmvV0nN6vHatmlNAQIBpWXtAiXVNKLGuBSWWGKHEhg8l1j5oEht33a9qXpRY14ISKxmUWEqsESkltnp1PafHGzaoOVFiSXShxLoWlFhihBIbPpRY+/C1RWLjUWJdEkqsZFBiKbFGpJTYatX0nB5v2qTmRIkl0YUS61pQYokRSmz4UGLtAyXWtaHESgYllhJrREqJrVJFz+nRli1qTpRYEl0osa4FJZYYocSGDyXWPqTd1kyt1+Ovq67mRYl1LSixkkGJtZ3E7tu3D7lz50amTJlQtmxZVKhQwemomDMnqiifV1D+m29QpkwZlCtXzrSso6j02Wd6Tj8XKKDmVL58edOy9qBw4cJIkCCBfi5QYl0DSqxrQYklRiix4UOJtQ+UWNeGEisZlFjbSawoo5Unrgsl1jWgxLoWlFhihBIbPpRY+5Bma4jEJrBIrDOeR5TYsKHESgYl1nYSq5Ulrg0l1jWgxLoWlFhihBIbPpRY+0CJdW0osZJBiaXEkqhBiXUNoiuxPj4+GJ8sGUYq6w5XLvTdu3dHr169MGjQoAgp1r4m4jTKqlK5XUN13f79+5uWtaJzZ/X9BEPSplXX69Onj3nZWMZw7VgojdqoHAvimsSNG1f/bguh7d27t2k5jeEffhhy/sSPHyvOn2FK/aHVJT3btEHPnj1NywlGKPtPlBum7CNZ9s1wpU0mchK5yXS8/tckj1qvx/stm9OeR9mzZ9e/O/GV7wMl9i2UWMmgxNpHYr///ntcvXrV6bgxYQIeKvkLLjVsiCNHjuD8+fOmZR3F3cKF9ZxOrFiBo0ePmpazF6tXr8aHysVbO7aUWNcguhK7detWdb34FkRDWVzwI0PceEoDO57yvgpxlfXCXFdpiGvbjxRRyMHlMOyHqBwL4ppo32sNszJWiDIWYsX5Y/i8EdYbhrLS7BsZc1KIY6jbnfU8Cv3dET9wmF0DYyOUWMmgxNpHYkXSZmVkR8bZiV+VKKHn9PDgQdy7d8+0nL3g7MSuSXQldsuWLUhuWTeugnHyL0IIIcTZEde1vXv3ml4DYyOUWMmgxFJijUgpscqx0XJ6cOgQJZbYBFtJbDzL+oQQQogrkSxZMly+fNn0GhgbocRKBiWWEmtESoktUkTP6cHRo5RYYhNsJbGiF1YgttG4cWO0bNkyQnLWLYU4FdKpFK1THr/99huaN29uWrZVunRoq2w7IpqWKKFuJ7I5ODVKhd+yfn0r2iROrO6HNvHj4/caNdCkZs23y0V5s+0Ql0X7XgvE/bFNmjQxLafRJmnSkPMnXrxY8T1q/fnnet3xe61aaiPKrJygjbL/RLnWyj6SZd+0+eCDkOOl5CbT8UpWKYtar8erkMFpzyPxnRFDocW/lFhrKLGSQYmlxBqRUmILFtRzenD8OCWW2ARbDicWiPrCHrMTP5s7Vz//w0LMyHvv2jV1O15eXqbbcSWezZtnuh/C4tnUqabbIa6L1ggXcHbid+HsxPbhiy2N1Xo98fpaTnseGecAocRaQ4mVDEosJdaIlBIb6mJLiSW2wFkkNtDNDf8lSaJ/B8wIqlpV3YbA39/ffDuuhLt7hPtE478ECeBz+za8lYtdrNg3RIUSGz6UWPtAiXVtKLGSQYmlxBqRUWJf58un53T/9OlwL7b2gBLrmjiNxCr8q0iq8iZh4jFjhroNGRqXjiKifaIRXLKkum8Efn5+ptsirgclNnwosfbh8y2/q/V6EkqsS0KJlQxKLCXWiJQSmzu3ntP9s2cpscQmOJPEhjd8NrYNJdaI7JBir7/+UveNq0sJsYYSGz6UWPtAiXVtKLGSQYmlxBqRUmJz5tRzunf+PCWW2ARnktjwhs8GVaumri+IVcNlIzGkWAwlvq/UGWLfeHp6mm+HuCSU2PChxNqHzywSm3RDbac9jyixYUOJlQxKLCXWiJQS+9NPek73Ll6kxBKb4FQSqxDW8NnYOJRYI6IhxRxKHHuhxIYPJdY+UGJdG0qsZFBiKbFGpJTYbNn0nO4plSklltgCGSW2ffv2yKhUxJ07d36n5/DZ/Pn690DjjdLYiI1DiTXM9okRrzFj1H3j6kJC3oUSGz6UWPvw6ebf1Ho9GSXWJaHESgYllhJrREqJzZpVz0k02CmxxBbIJrGXLl3StyX45ptvsHr16rfrmQyfjbVDiTXCGVLMocSxG0ps+FBi7cMnmxtRYl0YSqxkUGIpsUaklNjvvtNzunv9Oh48eGBazl5QYl0T2ST2hNKQ1LZlpHr16rh586a63r+KtCov6njMnKmuGxuHEmuE3icawaVKqftGwKHEsQ9KbPhQYu2DJrEfbKjjtOcRJTZsKLGSQYmlxBqRUmIzZdJzuqs05imxxBY4i8QKRP0zXrlgBhtm5BVDie/G4qHEGsY6y4jX2LHqvnF1GSHmUGLDhxJrHz62SOyHlFiXhBIrGZRYSqwRGSX2TYYMek5379yhxBKbILPEJk6cGHXr1tX/1siXOzfOK8uUPxD066/qeoJYOZRYw8MD/yVNqtcRAtGwFTOZi33DocSxE0ps+FBi7QMl1rWhxEoGJZYSa0RKiU2XTs9J5EOJJbZAZokV98OK2LZtG9KnT6+/LogfNy66K//eUSo+sV5sHkqs8a8i9MrO0QkuXVrdNwIOJY6dUGLDhxJrH1JtbqjW6x9tqOu05xElNmwosZJBiaXEGpFSYkWDXsnnP6VRIvKhxBJb4AwSK+LZs2fo2bOn2hDXlgvSKI24efPmxeqhxBqhhxRzKDGhxIYPJdY+UGJdG0qsZFBiKbFGYlxilZMv6NYtBN25g8B79xCoCOsbRRpFPv/Fj6/eA/hALHPg8ElKrGviLBKrxcWLF1GoUCG9jEa1atX0iZ9iLYYhxaJRy6HEhBIbPpRY+5BqEyXWlaHESgYllhJrJKYl9tnChfr7R4bnI0eabseWUGJdE2eTWBH//fcfpk+fjhQpUuhlBaJ+GjduHAICAkzfLzagDSnmUGIioMSGDyXWPlBiXRtKrGRQYimxRmK8Jzac5z6G5j8FP6VyFRWIPSe2ocS6Js4osVp4eHigXr16enmNfPny4ejRo6bv6epoP4B5KTLvrI1HYjsoseFDibUPKTc1UOv1/22s57TnESU2bCixkkGJpcQakeGe2H8rVdJzCM19hceW/3tm/x5/9WqPP/9sjyEztuLaE/PtBQZ64PKOufirb1d07NQDgyctwd7rkf9MlFjXxJklVovt27e/O/FT/PhYqAid2fu6NGJIccqUeKQ0uMT+5FDi2A0lNnwosfYhxab6lFgXhhIrGZRYSqwRGST22cyZeg5GXiikU8itsEMhdfy3+ztOnHhIlbcz1t8N1SP7cC9GVkqHpHo5Cx9kQsO5kauYKbGuiStIrAgx8VOvXr30dQXi3lmz97U1169fR4sWLVCmTBkp+DlbNpQsWVKtz0uXLm1axtmoXbu2WgeZ7X8SNpTYtzzduVOdINHIf5ZHdQleKde0V2nT6ste9OxptT4lNvJoEpt8Y32nPY8osWFDiZUMSiwl1ogMEhuoVPr/JUig56EhJPZbhRQKyRSy/9oF05atxpqZvVElYxKlSDykbrgU97Xt+N/B0kZfI36cuEj+UwMMW7QFu3dvwZKx7VE+40f4stHKd9/bBEqsa+IqEqvFrFmz9PV/+ukn0/e1NS1bttTfk9iPXLlyme5/EjaUWAM+PuooBfH5IsPT9evV++u1e+wpsZEnOSXWpaHESgYllhJrRAqJVXj18896HhqaxIr9WzpDblxWctMqEK89nfFDAmXZh2Ux+WZIb6zfyYHIlzgO4qaqgClXQvXQelzGuSuRezQJJdY1cTWJFffCaus7SmLLli2rvyexH6lSpTLd/yRsKLHWvGzU6J1rqhmvlXPt7s2bVtd+Smzk0SQ2hUViZdhXUYUSGzaUWMmgxFJijcgisc+Vg6rloaFJbCKFM6PHqLnpz4z1PYTu2RIgTtxP0GCZkFM/XBhWCAnjxMXHdRbDLdT2owIl1jWhxEYfo8Q2adIEGzZsIDZi2rRp+r6lxEYdSqw1wUrDSXy+iAisHyJf9+7d0ydMpMRGHnEvrKjXU25sIM2+iiqU2LChxEoGJZYSa0QWiQ1S3vc/pRGi5SLQJTZufJy+cEHN7e3kLY8xvWJSpVhClBh7E/6BT7CuSWrEi5MAeQeegl+o7UcFSqxrQomNPkaJFRUzw3YhLsTavqXERh1KbCgiOaTYffHidxqClNjIQ4l1bSixkkGJpcQakUViBa+UY6LlItAl9uOsOKXkJXJ7+xxILyyslQJxFYktMvKyIrFeWFI3lfp3sb+uK3+/u/3IQol1TSix0YcSa7+gxEYPSuy7RDSk2GwosYASG3k+2lhXrddTUWJdEkqsZFBiKbFGZJLY52PG6LkIdInNUleVWOuL1j1MKZdYKZYE5f8Rr7/tic3d/yR7Ysk7UGKjDyXWfkGJjR6U2HcJXrvW6poamgCTocQCSmzkocS6NpRYyaDEUmKNyCSxQdev67kIhMR+o5Age2fsvhXqOZBe69E0rdJoiZ8JHXZ6K6/54cLQgkgQJy5S/joHDwzbjSqUWNeEEht9KLH2C0ps9KDEmhDBkGKzocQCSmzk+dAisR9vaijNvooqlNiwocRKBiWWEmtEJokVvDY8kF1I7NcKceJ+hBx/LsEtX+2XYn9cmVoJn8SNg3jftsSmJyHr+h7piexixuKPCmPwcSG22nb9cWvzADQbHP7x1KDEuiaOllhvpbLV/k+JZUQUlNjoQYk15+Vvv+nXVCOvP/7YdCixgBIbeT7YWIcS68JQYiWDEkuJNSKbxD4fNkzPR0hsWkVU4yROgiRxkyFj+XYY8fc0jOteDd99GFeR25QoPfbc26HD/jcwp8aXiKeslzB1UbQYPAUzZ0xA398K4cuE8fBx/aXvvJ8ZlFjXxFESu3btWnXb8ePHVyuq+/fvU2KdOt7A69QazJk5AzNmzMDMWatwwutNyBLP41g5a6b6+oyZc7D2jHKBfc+wm8T6uWFv5zUYWHYFhjQ9jkuWH/1cDUqsOWENKQ5rKLGAEht5NIn9hBLrklBiJYMSS4k1IpvEBl24oOcTnDQhUseLg0RFe2BB79JIm+jt/o6T6CuU6LkBt/xDbePhHoyqlgkfCvnVysZJgjTFO2DJhchVPJRY18RREps2bVq9TOLEidUGQpmeDRBnTVVKrDPG61sYXTih/rnjxPsSzTY9Vxc939QMXyp1lLYsUfHx6uvvE/aSWL8zxzAy9zx0zKGQaxnmb3XNBhglNgzEkGLlfBKf1Yj7kiVhNgApsZEn2YbalFgXhhIrGZRYSqwR2SRW8Dp7djWfJ8UzhEhssaGKrPrD/eIOLJn+N6bOWYV918WzYc3XF/fH3j+1FUtm/o2/ZyzG5pP34GtazhxKrGviKInNli2bXkYjYdJEiPNFMsQZVoQSG9l4eRRDS2XG12nTIE2aNEib9mt8ky4TfshbBnU7TcDWW8GWgnaO11cwNJ8isQmLYPDRa7h+8zH8QzpilWX+eHTzOq4eGYTCCZXjXHi0ZUHUwz4S64/Lo1ajc86lmNp5M3ooItu78xV4mpZ1biixYRN6SLE6lPjWrTCv95TYyPNWYhtJs6+iCiU2bCixkkGJpcQakVFiX/Tvr+Zzr1eZEIktPgJ3TMrZC0qsa+Ioid2+fTtSpkyJJEmS6GV1EsXHD0Vy4dChQ5TYiCJ4AaomVt4rXgp8+1N2ZM/+E37InBopEsVFXOX94yXPje67fKD5pN1Ck9hEZfCPh/m7vXGbgtKJJJRY79tYVmE+Ov28D6duXsL0IvPQqch2HLgfYF7eiaHEhk3wunX6dV4Q0CBkJl2zocQCSmzkSWqR2E83/SbNvooqlNiwocRKBiWWEmtERokNOnUKbz79FDcWNQyR2JJjKLEk2jhyYicPDw906NABSZMmtWpcC+LFj6cKbpMmTfTXKLEmoUls4qpYYOh0feV5DBN//RoJ4sZFwqw9cOylZYG9wokl1nvHPvTPNQ8DBtyCT6A3jnRegk45FmHKQs9oPUtbRiix4aA0uo1DisMbSiygxEYeSqxrQ4mVDEosJdaIjBIreD5hAu6tbIw0QmJLjafEkmhjK4mNb1lfkD59emTKlClMRD2ilVVJlgBJPkxm/ZoCJdYkwpBYEa9v/4UiCZVlCQti5M3XlleN8RreFzdj1ugB6NmtO/qPmoUtl/3Me21feeLsuqkY3rcHeg2aiKV7TuLcuXMq5y/eg9+/ziqxPjjWfSk65V6JZQf81NeebN6DvjnnoWvj07jvZ7aO80KJDZ+XotGkfN6IhhILKLGRJ8mGWqrEfkaJdUkosZJBiY3dEvtvjRp4nTu3zhulEa58AJVXn32GF9mz49+cOUOW58+PQA8P0+3YnYAAPLm6GWN6dMWwpafgbVbGTlBiXRNb98S+L0lNJFY0ukXDISoRmyUWQQtRLVlcRWLzYPClUBL78jaWt86DjxOIGczjqnIjhh/HTZQapQfthbfBQ9+4bUSnPCkRP66yXCkXTymvfT6VBFnR4/A555TYh5cxo9g8dK50CJd8LK953sCCn+ehY94N2HTRtYYUU2LDRxtSHNFQYgElNvJQYl0bSqxkUGJjt8S+6NhRPwEi4lXJkqbbsAWjR49GlixZkCFDhjARvVwCs2XvS/Xq1dWT3iwnDUqsa2JriQ09TDgqiMfvhH5tzJgxlhoqchF7JfYNvNf8hjTxlf2Yuhk2Wy0LwqEeOZA0bgKkLjcQG6764fWbYDw6PA2/ZU2GuPFTo94y95Ae2TdeWFb3C+U4/g95OqzCVf83eOV7Ccta5cAHcePh0xJtMWLCCpz1c8ae2AA8XroNPXLMx7C/jBPb+eHcoBXopLw+cvyDt48ncwEoseFzYO9elEmQAM3Ll8fp06fD3T+U2MiT2CKxn2/6XZp9FVUosWFDiZUMSmzsltinBw7oJ0BEeI8cqf5aa+uLhTjpzBrxjmLIkCGmeWlQYl2T6Ersnj171PWEyArEtgSirggP7f1UEsZDis8/tn5N4QvRoI5ixBqJTVQSQw+fxMmTJ3Fs/ybMG9IQOVPGQ9wEqVFt5k0Y+2Hf3P8HZT+Ki/jfNMNGX8uLlgg+0AmZE8RFkuLjcEesFLQMtVMoZb/+EztCnpgTEkHr8PsX8RA/TUtse6H87Yz3xPp7YGezheiYey3WnrbubfM9dAhDcs9D56qHcVnroXUBKLHhI9o82v4R+2rixImm5QSU2MiTaH1NSqwLQ4mVDEpsLL8nNiAAb5TPqSQdLv8pF7n7p0+rJ4iYpMZ0W++J+BXYuO8cTbt27Uzz0qDEuibRlVjBieTJcVBZd3/SpFixYgVWr16tzkZsxty5c9VzR3s/I6F7cXlPrEloEmt5P5248ZEqe10M2XQHwjHfxhu4Ty2LpMryb1rvCrVMiecb0ORzRX5T1MXKYKX0o4koKcSz0CjcMprwq5Po86MirYkrYraf8rcTSqz/ldMYn28eOuZbgbGttmFqawOt1qO/eG6s4V5ZV4ASGz6ijtD2j0bhwoVx6tSpd8pSYiOPJrFfbKbEuiKUWMmgxHJipxedOuknQVg8K1pUPTns8YUNLbGiwrQ3DRo00N+PEhs7sYXEvvn4Y/X78Ua56IvvhllDysfHB71791ZnJk6QIIH+fipxlQZ24kRqBbZ37179dUqsSWgSm+A7VO3aA927tEL9khnwUby4SPhFKQw9JAzTGC+xv0NGJIgTDym+L47y5ctb80tBpPsgriKjZTHVUyn+dA0afhoP8b5ohNWGTb15MBXlRG/u162wyyl7Yv1xa/J6dMkxD10KL0Hv4iYUWoCOyvL+fW84dL4Be0KJDZ/s2bPr+8eI2Ffdu3e3muQppiX26b59eDFokBVvlDaZyEn8wO6j5Ovfq5e+LHjLFtPtOIKE62tQYl0YSqxkUGIpsZEZUvxkxAj15Hjw4IHpNqKDUWLfp/H+PjFs2DD9PSmxsRNHSWy9evVUgdXeRydxfMT54WP0XTdZXZfPiY0gTO+JDcLJESWRUohsptbYGWh5WY0X2NzsK8RXJPaD1FnURvs75MiBfJVH4IjaTRuM/R0zI0HchEhbrjfmbNyNXWv/QZuCnyBe3KTI0eco1FHGziaxvvexpvp8dMy9BmtOmk/c43vsMIbmnodOpXbjmNu7y52R2Cqx+xThE9c0Mc+El5eXaRmBOP+1/VOwYMF3bunJqDQIN27cqJaNcYlVrsHi/SNLcKhGoiPRJPbLzY1jZF/ZAkps2FBiJYMSS4mNaEixOpT4zBn15LD1UGIBJZbEBI6S2I+VMtp7CESj4MNPUyBO3wJqY2fSmdXqupTYCCKsiZ1enkL/nIkQN+7/UPbve4bH5mg9sQmRvd8ZvLK8Gma8OI5+uZIhfsrUSP1hyAzG4nPFTfwVirZbjpva82edTGJ9D1vuea1+FNd8zcuoovurIro5F2PG6ph/pJotiI0Se/XqVbV+iRs3rvqvOG+mT5+OAOUaH7qsUWKPHDmCM8o1Pm/evPprGnXr1oVXggTqvomx4cSijZIund4mCY83KVLA7f59uLm5xYhcJLBI7FeUWJeEEisZlFhKrCC8IcXGocR+fra/Z4oSS2ICR0msGLouemITKY1j0SAYOHAgOp+coTZ0KLFRiLAkVtHWxzMrIrnScE+Ysz/O6rb6Bm5/l0GSuPGQouZihB5sHDpe7PwTX8dPiLxDr+CF/z2c3b8Nm3cewTVvzV4t4VQS64ezA0NmHx4x7n44sw/74/r4teicYx56tL6Ax/5mZZyL2Cix4t77Dz74QP/cAvG3mIl/w4YNVmVDS6yIN2/eYNKkSWp7x7iNVAqzFf79/HN138SEmL3o3NmqXRIWgbVrqzkKwnpkkD2hxLo2lFjJoMRSYgXhDSl+MnKkemLYYyixgBJLYgJHSawY0rdgwQIMHjwYt27dUl/rdm4OJTaqEabEKuG3Go2+UKQl/rf4Y8dTy4uKb96ZiFIfxEXc/xXH6IvvTO1kFS+2NEfq+Irw5m+DqWt2YN+hYzh1/jJu3nNHoLEb15kk1uceVv86H50KbsDGM+E36P3OncS4gvPQqeguHPEwL+NMxEaJFY3pTJkyqeKhfXYN8ZoYNizqCVHWTGK1EOJVo4YiY4b1BUWV/bhz584YEbPIDil2nzdPPX4xJY/x11dX6/XUm5vEaB7RgRIbNpRYyaDEUmJVwhiuY++hxAJKLIkJHCWxZlBi3yPCk1g8x74OmdRJnD6uvhCeulsGYl/XH5FE9NKmLoY/Ry/Ahl37sG/nBiya1B/NK+RE7o6WmYtfXsXsmt8iYdyQz/OWuIiX9AvkrDEIWx+8dr57YmMpsfWeWNGg/uuvv9S6LUmSJPo+EIhhxuK1mjVrImvWrPrroSVWC3FPrKiLjNsQ+1JcM8O73zayiCHM+fPnR+nSpbF06VLTYc86oo2SPr1V+yQ0r5Mnx90bN9TjZ5yYypFQYl0bSqxkUGLllNgrV66YTnVvT8yGFD9T9os4KQT2GEosoMSSmIASG30cKrHPV6PRpwmR8NNGWG18jqslXl0chaLJ4yP+Jw2wKsjyoohX97G+18/4NllcPdcQFLFNkQV1ZlxRny37xnMLOmT/EPE+zI7Go6Zj6pSJGPfXSAzp0wa/5vgYCRQB+KjYX7jykhLrDGgSq80IXqFCBdSqVStM6ilyV18pV085zlWrVkW1atVMyzkL4vNq548gceLE6m0N4l/j64KwJFbE06dP0bVr13dmVk+vCOX69etN931kMT4lQPDdd9/hn3/+UWd0Nysf0ZDimB5KLIi37leHSKz/lfOYVX0FBvyyCpMm3YWPSRmB7+5DGF1xJUaPuAlfk+Vv8cWpYWsxqOIGJE0WtsT67j2M0RWU7Y0MGVXkUHx98OiaBzy8TZY5CEqsZFBi5ZNYcUHRfgkTQ37E8yXtJZBGzIbrPBk1Sj0p7DWUWECJJTEBJTb6OFRioxmvfK/j0MZlmDdrFuYvXYudx2/BR7/d9SUOd/1OEdUPUGzMNVVqrcJ/HX7/Kr4irqUx5eElSqwTYOyJJSGYDTMWtG/fXr0fNrw4d+6c2msaet3aijjeuXPH9BhExK+/KsIXansCcY0dOnToO43Rp4cOvdNGMeI+f75al8Zk72dch0isP25Y7mEXj8bqVHovToRxC4D3yu0hj9dqeymCx2f5YF8r8aitRUiSNGyJ9V61A92U7XVVtme9vr0JwP0ZG5XPMh8jxz8I5/5++0KJlQxKrHwSO3bsWKttCdKlS4dx48bZZAhPmIQaUvxf/Pi4f/aselJ4enqar2MDKLEkJqDERh9nktjwwwvTyyVGnPjp0W5fqImcRPitRP3P4iFu8upY7CNXT+zt27fVkTvvi5jF1Wy7zo5RYim0cd55hE5ohIhGFEJ0RYNLtIeM62bLls30GEREWBKrkTx5cnTp0kU9x9V1whlS/DpFihgfSizQJDbNlqZqLnaRWJ97WFV1PjqV2oZZTRehY84lmLXO27SsK0ns3akbFHGfj+Fjw5ukzr5QYiWDEhszEuvu7q5O9CIq6Js3b1otE/ezGLdlRDS0+/bti/v371utYyuMw3WCHTCUWECJJTEBJTb6uI7EvsSBTpmQIG48fFqkI2bvvogHYsia72Nc2b8Qfct/jYRxE+DbZhvg8/oKhgmJjZcC6XPnQ/6C1fDXyRDxfXlsJKoUzI98udMjRTz7S6wY8qqVeV/EPZLiMSxm23dmxGcT329x7Y4MYnbr5Mo6ArFeVNaVFeO9jYLUqVNb/a2xadMmy1kXuRA/fIj7ao3buHbtmulxCA+jxE6cOBFDhgzBp59+arVdgRgC3bRpU7U3+IXSZlJefIfAOnX09kpMDSUWaPW6JrH2aFD7HjiIQbnnoX/fG3iwcgd65pyHnm0vws1kVvH3kdjESd7OcC3qh6hIrL/bY5xdeRrrxxzGytHHsHnxNVy/9+7x8H/sgVsX3OFh8tgvfw9P3D7vBjdt2LDvE9w7+wCnRoje5/kY0u8Krp15gBtnH+L+43Duo7YDlFjJoMTGjMT++eefetkvv/xSneBAWxZaYlOkSGH1t0BMm9+mTRv1uXDG7UYX45BiRwwlFlBiSUxAiY0+riOxwBvvfRhaIR2SvTOxUxzETfgxcjWegXPqxMdBODC8JsqUKomSJUuiVJkGmHwuZPriV+cmo0GZUurrJUuVQa1Rh9TX3ycikljRi2rMMTrky5fvne07O0J4xCNnIst+ZR8fVPbF/gQJsGLFCqxevdq0nDOwZcsW9fmu4tiG1QttvMc1vHtiwwvj9oyiE1mMEitmcBfx7Nkz9b5Ycc+tcfsCMTHVr8p365Tyf+UFK9yV9UU9GtMTKWn1etotzezUoPbFqb7L0SnXcize44fAx1cwq/g8dCy4FbvvvCt07yOxiRK9nRBMnCeRk1h/PNh0CONKz1eHOBvpVGQ15i5+aHh/PxzvsQSdcizEjDWhBdAfV/5arcrquOnu6ms+2/eiryLqobfbUSkzaIill95BUGIlgxIbMxIbetKFL774QhdZo8S2aNFCfW3MmDGmv6KKCqZ+/fpqA9i4/ffGMlzHUUOJBZRYEhNQYt9FDMOrVKmS2oPzyy+/4OLFi6blNFxJYkPiFbwu7cTSaeMwYvBApYE0CpPmrsPRe08R/h2Dto+IJFZcL7TlgiT/+yRKGNeN6HoVG3CV2YnXrVunthXM7n8Vr4l5Nnbv3h3uI3YiG59//rm+DVtJrBavX7/GsmXLkDNnTr2MkdIK2xWUP0KGEt+8qR63mBxKLLC7xLpdxdxS89C5wkGcV3sqfRQhXKoI4QJMmOUO/1Dl30tiE76d/EsMQ4+MxHofPoKR+RSxzLMck4afw4mD93D5wFXsHLIJ/XIrr+dehcU7tSHPfjjWbbEqsdNXvSuxl0eFSOzYqSG3Ovjfv4sDM09hTZsV6n3A/VocwuZpp7Bl+mkcOm4+jNpeUGIlgxIbMxIrppMP/QupJrKhJVaLly9fYs6cOciSJYvVehrly5fH3r17Td8vKoghxS9LlVJPBoG9J5WixJKYgBL7LqNHj9YfyyEaL+L/HTp0CPPxWq4nsfJEVCQ2Waov0WDm5ShRrtdSfX1KrGtIrBjSm0jJXzuuGmLk1tdff43ly5frZWWXWGOItleZMmX0skZyKswpWFB9Bve9e/didCixQKvXv7aTxHqs3oleOedjyAhFniyvee/Yh/65FFGtfxK3/azLO0Ri/T2ws/kiZd2FGDPpQaiZkn1xecxaNYduTc/gvjrkOWoSGwLviSUmUGJjbmKnmTNnmops9+7d9b+NEqvFf//9p05tX6hQIat1BeIC9j4zBY4cORJp06ZFo0aNcHfjRjz7+2/1gmDvocQCSiyJCewtseLHn507d6q9CaF/CJJVYidNmqRLrIb4O2XKlGp9Fbo8JdZ+QYl1LK4gsWvXrlWFVTuu4pE64rv7t3I9Dy13ziSxWojHDorZkM0mqUqTJo06o7G9R45FhFavf7Olue0b1P5e2NdakcXcq7H6mOF4PrmFJeVFb+darDtjfZzfR2ITxLd+nJL4gUArZyax/nfPYbLohS2yAwceGrdpWX7jNCbkVZYX3I79j8RrlFhiIyixMSexglmzZr0jsuK9tP+bSawxhGCJ4X/G9UUvr9l7hYex4SpmBJwydqx6IjjigkCJJTGBvSW2Tp066vA90agU57WYPEVbJqvEih+ufvjhB9OhiOJziFlI9+/fr5enxNovKLGOxRUkVjxfVQy/FT9mi+9wv379wryGO6PEaiGkSswrEvoHN8HHSp3cp08ftS4ze097Y0+J9b95FpMKzEPnGsdw3WpCJH9cHLZKFbyho+5ZPQ/2fSS2TZP++v4U7UtjOTOJ9d13AANzKXnVPo6bJhM1BXrfwuKyIZK99rSQbEossRGU2JiVWIGZyGpEJLFaiEfwaOtEVWIDAgKs3lOjYMGCakPfbB1bQoklMYE9JVb0eoTuLRCNSjEkTtxnKqvECkR9ICpV8WOWmBVU26aG6N0RM5OKhiQl1n5BiXUsrnJPrEBM+BjWLQAaziyxWghBF8Iqepu17WiI+rZ169bqBGhm720P1LaUpV7/1uYSq0jcjI3oKgTylw34p/U2TDXwT73liuAZ75UN4X0ktnf78fp+bNiwoVU5IbFqDu3eSqzP5j3onVN5j99P44HJDMmBPnexssp89b7YFYcpscSGUGLtI7GifOXKlSNNrly5rNbXqFq1qiXL8ENMwqKtE57Emk16EJbEChImTIiuXbva9fm0lFgSE9i7J1Z8p40zgAqE2AoJzNekAuIsr2Q3iRW9pqJOiw558uTRtycQkz2J/WUcrphRuWho/39XYt8gyP0Wrl+7huvXb+LOIx8Ev7YssnO8CXLHrevXcO36ddy88wg+jnpjGwYl1rG4ksRGBleQWC2CgoLU5+uLIcXa9jREnStmanbED/L+Af72k1jfR9hQV8z8uwA9ii9BbxN6iCG7uZZjwY63UhV5ifXF4Q7ivtb56PnHBH3/WUtsAB7N3axur3ePt49U8t2zHwNET2ytY7hh2hN7AwtKi57Y9dh4QcygLCRWzE68ANMosSQ6UGLtI7G2QgyXiUxEJLGiZ0jMiCwqdFFWHGhtWWiJbd++/TuNbzHdvbgP17hNW0GJJTGBvSVW/C2GYglp1d5DI0HihIjzoULn3HaRWHshhhob/zaOIHlHYp+vRv2UxhEmcZEwRQaUaDYRBzwiOdfvm8fYOPgPDFz/KAqzAz/H6vopEU9/X/GInBTIUKIZJh7wcPgsw+8blFjHQomNesgisVr8+++/mDdvHrJmzapv14gYObJ161bTXGyBUWLTbW2hnke2alD7nTiK4bkVUax+FNfMRFGXv3no2/0qvCyvR15i/XF17Bp1/c6/TkFiyz6zllhvHOmyVJHP+Rg37a1gqve85lEktdB27Hvw7mN+/M4ewygl906l9+LkE/GaH073XaZuZ+Jcz1AzKnvjWI+QZe9I7LQQiR022nrItCOhxEoGJdZ2Ems22UB0Ec9Fi0xEJLGrVq2y2q64t00cbLEstMSKC8HZs2fVZwcaXxeISRXeZ+Ko8KDEkpggtMSK+8hu3rwZJR6nTAl3Zd3HyZKpEirO5dBlFi1apN6nZTZraJwEcZHi84/Vx2LILrFGYTX7LKKOsYrgZaj1UWKUmvQAL16+QKDndRyY1x2l0yRCsmwdsMMnEjr56gz6/pQE2XqdQMiTWCMTwVhW6yMkLjUJD168xItAT1w/MA/dS6dBomTZ0GGHj1OILCXWsVBiox6ySawWYvLLDRs2oHDhwvr2jeTNmxdLlixR2z5meb0vfnaTWH9cHB5yz+uIcHohNdHtVHQnDlkmWIq8xCrrHz+KEeJxOLlmo7jl2vhWYgPgse8QRuZXlhfcjO1XDfvO7xE21RdDkRdg9Ni7eKK9LvD3xOGuyxUpnYeB/W9acgjAHbVXdR56tr6AR/oQZF/cnL8N/XIp72EisY/nW3qBu121fg8HQomVDEqs7SS2cePGenlbkSlTJkuW4UdEEnv48GGr7QpEr4o44GYSK+LNmzfqzhWf3bhc3H8yefJkm10AKLEkJggtsQLRaxolxDoWxKgJgVm50BOQiB+n4iSyvg/e+B2OrsQK4RTDf6OLceiwQDT+jH8beacn1iKxpae4WUnj8zODkC9ZYuQacFb56wXubBuH9jVLIk+2LMiWrxyajtqFx2L0b9B+jGteDbk+ToBUOavi9ybN0H3RVXUbL+5sw7j2NVEyTzZkyZYP5ZqOwi51JREWiS09BW7Wb4xB+ZIhca4BOBt5I46xoMQ6Fkps1MMosSVKlFDP0+bNm+P+/fum7xkae0msMQ4dOoQqVaqE1LmW99IQ7SvRxvFWGsJm+UUVo8Smt6XEitmHfxHDcddg7Unr2Yet8H2AtTXEkONFmLrUS+3h1CS2U+l179xHO7XNTqzdZrjFzP8JTg1araw/Dx1+GoMaaauiecWuOLT8LDb034JBBZQcci7GhGmhH6OjCO72/RiiCvBijOx8FNuXXcLBRSextMUK9R7azmV34dDNt21G/4unMb5gyPZG9zqJvSvOY0Ov9eidezH+arhayTm0xAbCVzmWg4WkF1mPRXMu4cC849i43rqMvaHESgYl1nYSKxA9L2LilqggJOm7777T38tIZCd2ikhiBWICBOO2BUJkRc+q8TVNYrUQJ4SYyMVYRiAmfjp58qTpe0UFSiyJCYwSK+791o6vvbHqxYwf0rASEygZh/BHV2LFMyHFsLro0KBBA317ZgjJLVKkiP53ZCUWbzww/ZdkSJh/OPDyIPqUKY1mQ2Zj9eaNWDqyJjIl+RjVF3rizfOzWDSgJYp/kRCfF2uO3n37Y8LWB8oGXuJgnzIo3WwIZq/ejI1LR6JmpiT4uPpCeKpvFIbEKll4TP8FyRLmx/Br8t8jS4l1LJTYqIdRYrU6VNRl4sevESNGRNi4d4TEaiF6ikVHg1ldLx5tOHjwYDx69Mg0z8ji6+9nF4n1PXYEw/PMQ/cGJ8zvOdXxx81/NqB7znno1fmK2lvpu/cgBovH3ygi+S4LMH5GKAn088TwJjPQMNtsdAhVvmvZjViy7EEYvaB+uLP2IMaVFhJtXG8B+v1+EIcuhD4X/HBryS4MEWKslc23AtOm3cWjjbsVmV2IyfNCTU7m54b9HZerUh6yTshszFZl7AwlVjIosbaV2KgidrgY2qu9T2hsKbGCsETW+HdoidVCPCJENK6NZW0x8RMllsQEQmLNHtFgb8yG4gqBNeYSXYmNzuzE4lYCIadmj9kRr4nJU8TwZ1E23NmJw5JYvMDetumQ8OtWlr8N8foWRhVKgm/b7FFKKRGp4cSvcWtUIST5tg32qCuFJbHKO+9ti3QJv0arnWpBqYMS61gosVEPo8SGfsKCqCvEtXLFihWm7y9wpMRqIY5r586d3xmFIxDtvI4dO6qdEWb5RoS1xLaUskEdGcYrchYnbgp88mFuNKvYHftWXsGpo27wDFegLXh74ebeqzi07AL2r7mG8xe8w52EyffOA5xaexH7V1/H1TvWz1M3xd8Hdw9cxYElF3Bw6z08VO+xdRyUWMmgxMacxIYlsCIX7f9iiE5kIrISKzATWSNhSayI4OBgVVptOfETJZbEBGIEgmhohR5CGxU+Us4HDdH7YFZGELqBFz9RwneGE/dQLo7a/2NKYoXYi+HPoYfeCfEWn2/48OFWF+z3ldidf6ZFwnRtQ/585Ymza6diWO8u6NC2GUp+nRCpm2+JQGJfwfPsWkwd1htdOrRFs5JfI2Hq5tgSkcTu/BNpE6ZD2xDblToosY6FEhv1MErsp59+qtYd2t8aoo4V82uIuiV0DjEhsVr4+fmp7YDPPvvMKl+BqO9Eo1J8x0LnHB4+/r66xGZwdom17IvQj9iJ7VBiJYMSGzMSKx7EHboHVNCrVy+10ti9e7faI5I5c2b1/tOIwiixYoeI58SFh5iB2Pi+RsKTWC3OnTuH/Pnzv7PuoEGDTD9veFBiibMS3uzEAnFxE+InBPCdHti4CorIFqr+M86fPy/Fc2L79+//zg9UomFav3599fOFLv9eEvvmPiaUTIzEJScqVnkOY0t/jg/SFkWjTn0xaHAvVMsUkcS+wLmxpfH5B2lRtFEn9B00GL2qZYqExL7B/QklkThxSUy8H8puJQxKrGOhxEY9jBIr2it9+/ZVpTX0kF3xo5gYaSLqEePEkDEpsVo8f/4c06ZNs3pcmIbIWzwCUdStxn0XFpRY14cSG7M8HzkSbzJleovyvdWOx39KvfNv+vR4lSGDvjx47VrT7TgSl5RY8RBubdsavXv3VpeJCkSLv/76S102ZswYyyvm8f3337+zvfdFPI7HLF74ecAn+G3jT0z89Pfff1s1zsVFLfRnjQhKLHFWwpNYcd6kTZtWbdRp545GwqSJESdzSsSZVMouj9h5X4kVw4S13hQh3qKhKyaFMysreB+JDTrcA9mTJEfZv+/i5f72yJA4G3qdeBmy8I0bppROYi2x2ZMga4/jsJSAshLaZ0isim3Ia2/gNqU0kkQksUGH0UPZVvKyf+OuEzw2lhLrWCixUQ+jxJYrV06dQKlAgQL6awIxEkVcP4314IABA9TJlGSQWC1Ee0YMfc6dO7eek4aYXT4ykz95GyQ249Y/wpVYHx8ftU25ZcuW90bMqWK27ehCiQ0bSmzM8nTvXn3/R8R/Sl0e8OiRzWchjyouIbGi57JZs2aoXr262lgtX768vm2BJrCCGTNmWDKD+n+xXFwIxFBes3j58uU7wxWjw+jRoy1btsSrR9g5pDLSJ02I77ocftuYtISoSLV1RcNX+xyRhRJLnJXwJDZdunT6OaMhBFEMu6s6to3e2JFJYgXidgQxAYp4NJDZciMRS2wiFOp/ABcvXcTZI9uweFQz5Ps0IT77eTzOK8L58mAnZE6UGe33BikrvIH3gYEo/nGCtxL7+jb+KpwYKX9dAM83r/Hi+St1MqhOmRMhc/u9UNfyPoCBxT9GglASm6hQfxy4eAkXzx7BtsWj0Czfp0j42c8YL97YCYIS61gosVEPo8SGR5YsWaz+FkIrhvEaH+MX0xJrDNEm/Pnnn61yjkxv7BN/n0hJrJCeDBkyWG3/fREdCaG3H10osWFDiY1hFCF98/XX+jEIj6dK+0QcH4G4fcB0ew7AJSRWq7C0YTVi+O8nn3yi/j/0EFwziRU7Ibww6+15X9auXWvZqtJAfLQBXQp9jpTfF0IOpfGZufOhdyRW/EKprUuJJbGJsCRWjGYwDssV/xcC27NnT3UStG7n5kgrsVEhXIl9vgnNvkqAuGK5Uu8lSJoSaX8qg2YjNuH2c0uZV1cwrdrXSPJhamT9MSO+zf07OlbPgPStdoVILF7j6uSy+CR+QnyUMgUyt9ktVsKVadXwdZIPkTrrj8j4bW783rE6MqRvhV3qSs+xqdlXSCCGa8eJi7gJkiJl2p9QptkIbNLfWP6gxDoWSmzUI7ISqxF6mLGxjoy0xL55Dl+3x/AMCu85WS/h7+mF8Iv4w9M7KOwJ45T3MXYOiH1kth+NGCU209Y/1fPITGL37t2rbze6CNkOvf3oQokNG0pszPOyQwf9GISH18SJUtTlTi+xokErpp3XtiXQpqEXw4TFcmN5cV+sFq1atVLv1RAHIrwoXry4vm0xHKZChQrhUrp0aSsxM2K8J/blwVH4Y8B63Ao8iu5ZElNiFSixRCO8ntiBAweqjTYx3F58565du6YvixUSG+kIxuPzB7D38DV4mw7zfQWvK4ewe88J3A20vKRE8OPzOLD3MK6Zr+T0QYl1LJTYqIdRYsUP8uLHdA3tdUHo50uL9s+QIUNQtWpV/bXISexLHOmeBQnjxkG8j6tjYcgztd6JF7ta45v4CfBd13dHjoXEC2xrmRrxE/6EvqfMNTZwflXEjfN2grvISKyXn9IWioTE7ty5U9+u4JMMOaKEcd2SJUu+s/3oQokNG0pszPN03z79GISFqMfvXbyoHh9PT0/T7TgKl+iJ/e2330x7S8VrYtihuL9BKyseqyMq9yZNmqi9te7u7pZMw46ozE4sJlbImjWrVR5GTCd2enmMEmspT4klGhFN7OTm5qY+n9D4moASy4goKLGOhRIb9TBKrLjPVTTGxC1T2mtmiCcZaI+wifI9sc93ofW3CfBhqpRIHO9DlP3ngfWkcZZ4sa0l0igSm7HjgTAk9jk2N/sS8RL8gJ7HzUv4z6kUMorEQlQlNvO2yElsyq+zmH4/w6N427/19SmxjoUSKwGRGFIsy1BigfwS6/sQNy5ewh0P6x7V0MybN0+dIMBsGnrxmmgQigavuCdVe13Ib2TCKLHNmzfHxIkTTRHyJh7srZU1w/SCRonVy1NiiUZEEhsWlFhGREGJdSyU2KiHUWKFmAmhCuvHeiGvodtQUZXYoI1NkTrBJ6gzdSIqJ4+HpMXH4rbJQIyYklhPSqzLQ4mVgxcRDCn2mjRJmnpcbon1v4X5tZXKME5cfFR+HAaPGIER4SB+rRTb0rZrRo4cb4eLiF7ZyIRRYkuVKqVOzBKaunXrIkWKFHo5jZw5c1r9vWTJEstWDUGJ1ctTYokGJZYSa6+gxDoWSmzUwyix4of4+PHj638LtOdLi6csmPWGRE1i/bCi3qdI8HkjrPH3xqIaqRAvUT4Mu/yuxcogsd9ta6WeR5RY14ISKwfhDSlWhxJfuqQem5geSiyQWmIfrGmKjJ8UQtEfEyDRtyXUCUxExR0RxgkNxIUgW7Zs+t9G3kdizYYTiwuI2XuI50KK6aeNr3E4sTWUWBIWlFhKrL2CEutYKLFRD6PEmj1funbt2uq+NHt/QVQk9o3nfPyaIgG+arJBnZXcb0U9fBovIbL3O/PO5EwxJbEefk8osS4OJVYSxJBi0U6yHAsjT8uVU4+LIKaHEgvklViPneiULRUKDd6B8WUSh0ispXx0MP6aWahQIUuW4UdEErty5Up9uYboFRbLKLGUWPJ+UGIpsfYKSqxjocRGPYwSKyZ2Ev+KNkDmzJmxZ88e0/c1EnmJfYPH037BRwnSosVWy6MGA9fh9y/jIcH3XXEkVKNEBon9nhLrklBi5SGsIcUyDSUWSCqx3jg6ID9SZe+GPV53MSkaEiu2/fXXX5suE5M7RSbEg8a1dcwk9tSpU1bb1QRWEK7EvvLB3SuXcen8CrTImAjpmi7F+UuXccvj7aMqKLEktkKJpcTaKyixjoUSG/UwSuzIkSNRpUoVTJ069Z0nLoRFpCX29R2ML5EUCb5tjV160+MptjRPg/jx06PtHutHZ8WUxLobJDbLttbqeUSJdS0osfLwdP9+/VhoyDaUWCClxPqdH4fSn2RCyw2iggqR2A9KDkC9Ro3QKALE5E7adsUjOMR088ZH8KRMmVL/f0TDiV++fIk5c5QGsaW8IKzZidevX69uT0wwZXw9PIl9ub8DMiZ4uyyEeEjVYLWlBCWWxF5CS+yDBw9My4WGEsuIKCixjsXZJVbcdyqOY/369fXZf8PD1hJrNgt7RERWYl9fGY4CiRUp7bDf8vzokHi+uzW+jR8fqZttVpT2/+2dB3gT5ePH7UgXLWWULXtjVaDsIaMgiLKHOHAADoYMQZC9RGSKgIKIiCACAiobQUCWIPATsMiQjewtQ+i/rd//vdfc9S65NEmbNGn6/T7P54HcvTea5MYn73vvmxJvkljRQ71lOUps5oUS60WIJsWSpymfh+Be06byZyLwhqbEAu+T2Nt/YU7rAij8wkKcui3KJktsZJuvcdliHVrESVB0omSr976SJUvip59+ki9GynRbEivWJ8oVKlRItx6B0bO7qeFQc+JUQoklWRVFYneHhqJ06dLyj1J58uTBe++9l+qNJCWWsRdKbMaSmSVW3MMoox6Ic5C4nxg2bJh8bTYqL8g8EpuA/cMrwuTnBz9JWMXjVlr8xJix+V7Cstvm4lLsS+xDrO1aCAGBZdBvp3GJ67ObOi2xF29epcT6OJRY7+Jhnz7q5yG44mVNiQVeJ7HXN/ZCaVMhNO49GqNHC4agTZlAhFR8GSPHL8Le6/r1CMTA3sozI1pEDawQpKlTp6pNcFKTWDFm7Pvvv2/Yy7AQSLEdy23bgxJLiSVpQ0hsovSdyGH+bigorSvEs+rihynL5SixjL1QYjOWzCyxy5cvl6+9yucpfyckkRWSuXjxYsNlMo3Exu/Ce+UCEVDoGQycNAVTpmiZjEHPFUGAfy60/ea6eQFHJDYBewdHS2IcidYLbpmnaSPNHyJuPP3V/XNEYi/cvEKJ9XEosd7FvW3b1M8jSbrn8ramxALvk9jNH6BVvadQt25dM7VQNpc/AvM+hrpP98Oyv/XrEWglSODn5ydLbefOna2aIBpJ7F9//YU333xT1+xYISoqSv7V9ezZs7r1OAollhJL0oZSE1tCOp6V74cl4pgQ5xLxQ9Xly5fl5SixjL1QYjOWzCyx4oZNdKZkq5VXjRo15H4xtMtkFol9sLknSgQEoETPzbqmxErid/ZDmUA/RD43BxeTkqfZl1jg/vq3UCTAD9nrT8Jhy+6Nb21E99KBeMQ/XN0/ZyW2wk89KLE+CCXWy9A0KfbGpsQCr5NYa1JvTixqWLXPwYqLSrVq1bB3716rsgKtxIoxY9u2bQt//5RfBBWKFy8un2yuXr1quB5HocRSYknaUCR2W2goChcubHgTqSDmCbp27YquK8dRYplUQ4nNWDL7M7HiRlqMRS+uwWIYP+WzFWh/NFf+rswhsfewuoto9lsS72wxUlgp8bsxsEIg/LLFYvqZZItNllh/5K7dBcOGD5eHEpQZMRJT156BPLJs4lF82iQK/n7BKPr0e/h81U78fmAvtiydjK7VohDgH4nQqKLq/jkisecpsT4PJdZziEoA0epkyZIlOr5v2RKrpM9jwVtvYc6cOfjqq6+syiiI+yyjdbuTTCCxZzGzWThyv/AtrhrOv4P169cjJiZGfm7u22+/NSyjoJVYI8TFR3TO5KpfGiixlFiSNiw7dvruu+/QuHFjucWE5Y2kghhPMSDYhEfK5cIjQ2pg6r6lLpFYcZOlLE+JzfzRSqz4zohrlJaqVauq89MrseK8bbn+zIiojVT+pt69e+Pdd991mPel92CQtNz7/v7o1q0bevToYVjO23nttdfU98AWoidhcY5QXnutxD7cgndKmBASPRA7bFWpIgG/j6yCMP9wPDvnSvKUvSMQE2bUOsYfBbqshtKXcdL1XzH1pUqIMmnL+sGU6wk8P2ErSpYpq053VmIf+6knJdYHocR6hmvXriF//vzq9zI9TJ8+3XAb7iITSKxrsSWx4mS1cuVKw2XSgyslVvzaK94nZ9D2ruxuie3fv79cu63tECtv3rxyh1u2KFu2rK4mXHScYVSOZD1iAgJQRfpOxEjfD3GiEjeGYrrRkFniHKJgCtM/FiA6gtLe2Dh7HIgbSNGhlLK8+KHL6Fh3NZRY90UrsfZIr8QS30b8gG45Tfsjm9dKbAblweU4bF21DIsXL8PqrXG4ZLZcce1X9s8Rif375mVKrI9DifUMwhWU72R6EX2VGG3DXWQ5iV21apW6XYFoTixqA43KugJXSmx6cbfEWj6bTEhGUr58eTz22GO6af4B/lY1t44eBw8ePMDgwYPlH1a06xS1SEbHuquhxLovlFjnMXrshtgnq0usraRHYqMpsT4JJdYzrFu3Tv1OCvJXqOUU2mVFazmjbbiLLCexgs8++0yuNTx48KDhfFeSXokVnUpol08P7pZY7UWXkIxENAlV/u8niav8/+AABIclD42hvQF35DgQ5yMxLJeyjEAMOdGrVy+56Y3Rse5qKLHui6XEhoeH69A+f51eiRXfPcv1ZzaUv4VYU6dOHatp2tES0iKxiYmJuvVRYu/g3I1LqsQ+/tM7lFgfhBLrGbQSm7v444bHRWo81X2aujwl1sdwZU2suBkSTZecQVsz5W6JFR2kiPH0tL08ixow8fmmhnhmTOmYR9wwKdMta8BETa92OeLj+PkhUvrcs5s/e+3nb1TrL26KRG2s5XTxfXz22WfV16kdB+JHoxdffFG3vKBKlSrYuXOn4THuLiix7otWYsX5R/SDoEU816jMT6/EiubvluvPbLRo0QKlSpWSO04bMmSI04yUzuujpfdiZEAA+vbti379+hmW83Zef/119XO1xcyZM9PVsZN4fl88NqFd55EjRwzPEalBiaXEZjYosZ6BEpsSSqwFWaljp+PHj2Pt2rV45ZVX1G02b94cy5YtSxO1a9dW1yP45JNPDMsR32S1JKprpc99dUiI3COeuBET3wHLJsOp0fj1Nvjjjz/sduz033//Yfbs2ciZM6dueSHLkyZNUseZTg+bNm1Cly5d5PGvHRlnjRLrvmgllr0Tu5/M3juxGKVgoHSDLX6k1bb6EIgWGqLmtU+fPuowX2mRWHGv0LNnT6tm202aNLHaH0fwNYk9q5HYJyixPgkl1jNQYlNCibUgK0msEmd6J06N9u3bq+sReKL7buI5tL0Ti17HRbO91HomFjX3Yn6RauXxyKhaeOSHlg4NsSOa6hk1CWzZsqU8hrTRvjmL+IFHaaIqboTFsGBCzI3KKlBi3RdKbMaSmSX20qVL8hBf4rhVPlMFMU3ctB06dEi3jLMSu3TpUrlnfu26xbls6NCh8j2Adt2O4msSe+bGRUqsj0OJ9QyU2JRkCYkVTaFED7zPPPOMXMtjVEaBEpt2iX3++efV9Qh2795tWI74JorE9pDk1OgGUkEcF6IZuqjFEEL63oG56s1OahJrq+Mm0fxT3FQa7VNaEcOAWT5bKKRW3Ozu2LHDcBlKrPtCic1YMrPEiqG9jI5dcQ+zZs0aw2UcldgzZ87oHnVQaCit+1C3bri3aZPh+h3BlyX2yZ96UWJ9EEqsZ6DEpsTnJXb16tVqjYpo9iOaEYmbZ6OTqYASm3aJfeGFF9T1CBy50BHfQUhsovS5B2m+Awp+fn7ycSjGrpw1a5ausyVHJPann34y7LhJjH+pNAl0JeI4FsNNaZ8XVxDnkI4dO8r7qV2GEuu+UGIzlswssVu3blU7ahLHrxBa8YhBamPJ25PYhIQETJgwQb2XUMgr8Y2E9ELmXjqew/c1iT19QzpmKbE+DSXWM1BiU5IlJFbIpLLvAnGBy5Ejh9yhg5BWbXlKbNol9qWXXlLXI7BVY0V8E6UmtrUkl6ImVoirONbEjWSrVq2wZcsWw+XsSawRVatWTdOPJOJZOdEs+MCBA4bztYgbd/FMrPgbxN+i3b5oIi2O7w8++EC9aDsqsUn3ruD0qcu4l2SekGoeYGX3xxDdY5X5tT4PVnbHY9E9zK9sJ+nuJZw4dhRHjx3D8VPnceN+onlO5ogrJLb5mNWo/cZEdPxsv9U8SqyezP5MrHheXvTR0L17d5w9e9awjJbUJHbXrl3ymNfKfIGfRFeJmxLSBJmE4sVx4fx5+buamjDbwpcltuIGSqwvQon1DJTYlPi8xAqprFatmpXICsS0cuXKyR24KOUpsWmXWHGCV9YjcOd4vsT7UCQ2XvreT58+HW+99RYmTpwoX9iMyis4I7Hi3DN58uQ0d9yktBYQkj1t2jR8/vnndhGPI1juhyWiCaNDEpt0CV82j5SkOBtip52GfY+9j/ktQxDSaoH5tT7357eUJLuV+ZWtPMDyF3PCX7O/fqYcKFm/Cz7ZdtmBffB80iuxrcdvgik0uYlpoSfqWc2nxOrJ7BLrLEYSK84x3bp1s+q46TGJ7RLSCx23evSQ3yvR5Njyx3FH8DmJvU6J9XUosZ6BEpsS6dunj6927DRnzhy5J1OlmZEWcUOrdApjX2KTcOfENny/YC7mffczDt3Q12hkZYnt1KmTuh6BaNZlVI5kfv6dPRtJefPq+M/PT76YiX8ToqKQmCePOu/fTz81XI/ASGL37dun+y4JxE1eejtu0vZmLM4F4hh1FO3NrKiZsTyXaNdtS2KTzkxHbGQZ1KldEGG1xuOo3QpRV0jsfSxuH4HghtNw7mE8Ht65gmPb5mFA7KMICotG7w03vF5k0yuxpevpn9dv1H+ebj4lVk9Wl9jFixcjv/QeKNMEoRJjJf5PQppgxfk1a2yKmiP4tsT2psT6IJRYz0CJTYn07dPHnsQq3dWL3v/EcCyZCfFhKW+eQDzfIm5OtZ3QCInTltFL7F38NvFpFAoKR8Hyj6NM3lAERtXG8C03zfOztsSKL56yHoGt5qMk83P3+HH8J33G0gftEP/8+adcs2FUQ2EkseI4KlGihLRocsdNYggfy+XSguWQPGnBsmmxEcYSm4hjE+ogouIw7F7fA8VDYjDiYIJ5npL7OLz4fbStWxHRlWPRefJ6fNwiRWLvH16M99vWRcXoyojtPBnrP26hkdgkXF3/Ed6Zuhl/LO2HpjFPou6AddJZyyyxsTNwUWurD37HqGphCK48Avstd8PLkh6JbTX+Z/gH6DsDy1umiq4MJVZPVpZYcWOl/F/haZMJJ6V/pReG/F/x4jh96pR67jLahj18TWJPXT9PifVxKLGegRKbEunbp48jNbG+ROXKlXU3pZZNh7QSm7B/BGJC8+G5mUfxUEy4uw9j62ZHkHRT+rv5JjArS6zlwPLaZtrE90ioU0e9gKXGg5gY+eJm6wJnJLGinLjhWblypUNjtDqKKyRWII5N7WtxDhEdTSmvDSU2IQ6jYrIhZnQcEuK3o2+ZYFQYuBvx5tkit9a9jVJBuVDtzcmYO/sDdKqUD9lC/JIl9tY6vF0qCLmqvYnJc2fjg06VkC9bCPxUiU3E4Q+qIaRIWZQv2wxDP/8C07/7XTpX2ZBYSXovf94UYabq+NB+lbBHkx6JLV2vgzpPS6P+X6llKLF6sprEWj7zqiA6d5s7dy7iX3nF6rymJb1NiQW+LLGVMrHEinHClfU3bdrUsExWhRLrGSixKZG+ffo4IrGWopdZ0cqrrdqVFIlNwO9Dn0Bw8Z7YLBtscm4uaI0cQdJN4JHkm8CsLLGiExxlPQJxcTIqR3yDB5Mnqxew1Lg+bJh8cbPVwYotiTUqm16KFy8u7VLy97NWrVrycBn2EDcu2u+1aLkhjm2BMu25556Tb6CU10YSm7B3MKLDapjPFfH4bWAFBJfshV/U88kNzG+dA2FPTcJxs1Mm3diIHuUCZYm9MV8614Q9hUkpM7GxRzkEWkisyVQW72y6bZ4mYktigYdbeqK4qQi6bdSc1LwwaZXYVh9t1NXCBoen/IihrY2lxOrJyjWxCuJH2XPnzsnz7//4o9V5Tcv5tWttSpqjiB/UlW2//fbb5m++9yQ9Elt5Qx+b74+3S2zFihXV9YsOQY3KZFUosZ6BEpsS6dunjy2JffTRR+XxGcUNXGZHK+GVKlVS/29EisTewYLW2RDceCauaG4EE34fiieCCqDL6gfy66wssW+88Ya6HkFme26aOIfcpNgv+TnY1Di3a5d8cbM1FE5GSqz2BOpIS4FVq1bJzZkth9YQiGmi0zjRCZUom3rHTg+xrW8ZZKs7ESfMDpqwfzgqBhfGG2vvJU+I/xX9ywYjevBepLTuVZ6J/Qq/9i+L4OjB2Ktp+qt/JtZcE1umH3Zqq3dTk9iNb6OwqTh6an+Z88KkVWJLPZVSCysu9i3GroWfX8r5P7bfXLkcJVZPVpNYbS1o6dKlrX+Alc5H/0nfO/GeWPJ/JUqkuymxQIxlr+yD4LPPPjN/+70jzkqs4Imfe8vn9V67PpPfn8woseLeV1m/IK2dCvoilFjPQIlNifTt08eWxIrhUsTKMzO9evVS3zxbiMHQta9ViU06h6n1gxDWeqF0S5iSxJMTUTsoAu0XJ0/NyhIreqNV1iNYv369YTniO9hrUmyvKbHAWyVWdPZmJK/ihzDRzHDRokW68qlK7P0NeKtoAEyRBeRWLcnkR0SAP/K9vBxyvenDTeheNBiVRxw0kNi52NS9qPz8qvYxWkOJLdvfQYlNwtmpDRAc3ACfnLWwWy9LWiS25Ucb4ReQ3IeDoEHvWfL0ErWk75p5Wp7SleVplFg9WU1i4+Li5NpPMZ6srXNPvLixkt4TS2717Cm/R+lpSiwoUKCAtLrk76DChx9+aD4CPB9tR1fisYyoqCiHyJE7J3Lnzq1iOT8yMjJlvemUWFHRYrn+9GLZ8jAtwyf5KpRY9yHOJeLeXHSYum3bNt08SmxKpG+fPrYkNjMjLsBdu3aVbvasx3tUBkNXhu2w2Ttx0ll8LElstjZ6iU06PRlPBUXi+e8osWI4AmU9grVr1xqWI77DgylT1IuYEdeHD5cvbKmN1eiNEvvbb7/Jsqr9PotO7YTUDhs2zLDGJTWJvfPjqygQWgX9lm+WOzxLZjMW93wSQbna4pvrUiH5mdkgFHh9Zco5JukSPm0UJEnsPMSNikFQgdexMmUmLn3aCEFpldi7OzHwyRBEPv0pTptrh701aZHYUnXbqdNyl3hCvYC3GLsOfv4pzy/HvvslJdaCrCaxCqKGUXTkc/ToUat591essDq/Cc5LN5TiPUpPU2KBGPta/DD20Ucf6e5TBgwYYD4KPBfxtyn7407SK7EZASU2BUqs+9B2KCZ+nBHD+CnzKLEpkb59+viaxJ4/f17+NU3IqvLGKQipFW+W9gbbpsTiNr5qHoqg2E9xSduceN8QPBFcHD3MzfGyssT26NFDXY9g9erVhuWI73D3xIlUmxTba0os8EaJFS1PtEPoCKFVhuEyKi+wLbE3sLhDFELrTlKbEitJPDwW1YMj8dyci9KreOzsVxamqKaYGndPOrlcwpZRDZEvILljp/id/VDWFIWmU+NwDwm4tGUUGuYLsO7YyYbEBtUajm1xhxC3/1esXzgeXarlgSlvY3x80LubEos4K7Etx22wqIX9XHcRL1ErpflonlKVKbEWZEWJFTWpQdLfK74D4to9btw4vbBI56QkiybFrmpKLJg9e7b52w40bNhQ3g+FN998E0lJnmstIX7g1+6Pu6DEZi4ose5joPTear93QmSXLFkiz6PEpkT69unjaxIrftkUNa3KmyYQtSlVqlSRa1ssy9uWWHGDWQamwm9iffLjr1KScGl2M2n9zfCF+UHZrCyxYlllPQLRs6xROeJbJNStq17ItDyQjjFxUbN3YfPW5sSDBg2Smw2Ljj0ceX7WpsTeXYoXoyIRO+2UpJkWSTyGSU+FI3uLr+SXSZfXoG9MDgSYwpEzMhz5a/fB2C7RyNVhsZiJNX1jkCPAhPCckQjPXxt9xnZBdK4O8rJCYo+LIXweH4w9mibHwAOs7lIQgX5i3/zgFxiKnIWfQKMu47D6pHoy8+o4K7El67RVX0eVeNLqIt7iw/W62tgqHQer/6fEZk2JFeOaK98BBXHsa5vyxb/2mu4cd0u65on3J71NiQXieqlECK3oVE67L88//7zmfiTjo23uLCoGxGtXIJoYK+tNr8SKHyGMtpEelGElFSixKVBi3Ye4polrnfa7p4gsJTYl0rdPH1+T2F27dqnNAsW/efLkwTfffGNYVmBbYqVbwW19UcYUhcaT9uOO9Dr+/Cp0jw5Fvg7fyp09ibL9+vVTl81qEtu7d291PYIff/zRsBzxLR5IFy/pA7fi+ogR8kUttabEAm/u2MkZUu/YyYkk3sTx3b9g674zuGtV+ZKIm8d345et+3DGeqbPxhmJDYnMo6uFbdhntuGFvETtlNrYHIXKqP+nxFJitYhnIrt37y43qbVsUuyqpsQCrcR++eWX8v3ECy+8oO6HoFmzZvj333/NpTI2ZdPQsZMjeHvHTpY9V1NiU6DEupedO3caiuwI6d5KeU2JtYgvPhO7ePFitGjRAiNHjsTVq1cNyyikJrFiSIstIxqgQFAgQnPkRkSQCXlr9sOqC0nYvn07HnvsMd2y4uRntI3UyMwS26dPH3U9AssvJ/FN7p48adWk+D+Jc7t3yxe11JoSCyixjL04I7EBQSnPMkeVrGh4ERe0/PAnnewqUGIpsQLLR5BE78GLFi5UmxTHu7ApscBSYkVEE2LR4ZR2P4SoeSKU2GQosSlQYt2PkchqWwdQYi3iixLrDKlKrDkPLh3Czi1bsDPuAs5LB6zoNMqyw6jo6Gjs27fPcBupkZkltm/fvup6BMuWLTMsR3yPBOmcIX3oKg+qVpUvaI5c1CixjL04I7FaGvb9wvAirlCyThurZSixmV9ixfiuomNB0SeG0XwjtBIrrt+ic6f69eur0xRaFCmCv6V/XdmUWGAksUosfyDfu3eveU7GhRKbDCU2BUpsxiCON0uRVaDEWoQSa19ilSxYsEB+Zk5bXjxvO2bMmDQfyJlZYrVNqQVLly41LEd8D8smxUpTYnEzaVReCyWWsZe0SGyekpUML+BaLDuAElBiM7fEih+PxXVY9IURERGBefPmGZazxFJilXz11Ve65zYFERKj3n4bJ0+edElTYoEtiV24cKGu5kXUCD94kPHPslNik6HEpkCJdQ7RMWTNmjVRsGBB+V/xfXUU0Xu55fPZAu246I5CifVhHJFY8UVs1KiRrpygSZMmOHTokOF6HSUzS+x7772nrkeg9KRGfB9tk2JnmhILKLGMvaRFYhv2nWN4AbdE2wmUgBKbuSVW9M2gbRklhFbcqJ06dcqwvIItiRW5du2afGOlzFcQ3xVXnUeMJPazzz7TjVMq7gmOHz8uz8voUGKTocSmQIl1DnFe0X6XXMWLsw8ZHhu2oMT6MKlJbHx8PEaPHq0bekMgBgEXtbJG63OWzCyxll2Ci56hjcqRzIv4kUbUuL/22mtWdJWOgzelz71znjxyhyQCcTKyLNezZ0/sliRXWScllrGXtEhsqafaO0SBx2rrlitWrJjV+rMamVliZ82aZTXGs+gMxV6tbGoSq2Tz5s0oUyalEzCBkEwxvNylS5cM1+solhL74Ycf6rZTrlw5+XPwVDwpsfV7zUTFNn3w/Iy9VvMosZ6DEuscOXLk0H2XXEWLD3+yOi5SQyuxogd2UeGUUWj3mxLrBmxJrLjAiYuIdp74tVeM3+bMczf2yMwSK4YkUdYj+Pbbbw3LkcxLvXr1dJ9xWilevLj6HBkllrEXexKrPW+mFyE7luvPamRmiRXnFdEqyFJkBanVyjoisSIPHz6UewdVxpRVePTRR+VOJC3X6yjfffedeQvAK6+8olt3TEyMXBvsyXhKYhsPXIBHzDXrBR6rYzWfEus5KLHOoT2GXEVgcJjVMWEPrcQGBATIMplRKNsVP/6J15RYF2MpseLX1ddff92q46YnnngCW7ZsMVxHesjMEjtkyBB1PYLUhjIimRMxRJX2M04PSs0FJZaxF3sSK3qdFxdjpUx6EN8Ry/VnNTJ7x04C0atniRIlbNbKimddteUdlVglouMnox/1nnvuOfk9067bEdq1aycL0p9//qkb217cj4n7Ek/HUxKbt0xVdb6g8YD5uvmUWM9BiXUOUeup/S6dOHFCfs/sIc41devW1S2rkKtYtO54cAStxGY0Ql6VZ3spsW7AUmIjIyN1r8UvuUL63HUiy8wSO2zYMHU9gvnz5xuWI5kXrcSWb/I6qrww2Cm03w9KLONo7EmsQAxz1rFjR7Ru3TrNiB7W7Q3DlhVwlcQePHhQrrX0FIMHD7aqMdUiak9F50xiX52VWCVGHT+JYXEs3wt7iM5eLIf18eS4sJbxhMQ2fm++Ok8hX7nqujKUWM9BiXUOS4l15LskrkcNGzbULaclvb0TexIhs5lAYm/h0LTnUDhPCTw/5wRua+fd+h/GxRZF8xnHddNv7f0A9Yu2wsyTt1PK3rmJrYNroPjLrqndu7lnPkZPXYsTt/XTLSVWi7igHD58WFfe1aRHYu/duyf3ZCj20Zm4SmLFTYOyHoGjvUKSzINWYlt9tNHwBJkafv4ptWWUWMbROCKxxHW4SmLF4zbiMxO/vnsSy5ZUWkSt7Ny5c9MssSKiqa/2WdnatWsbvh+pIXodVpYXiB9kUhsdIaPjCYnNV7aaOk+LkFulDCXWc1BincNZibUlsOKRCOX/6ZVYURtapUoVj1CjRg25o1zt3+x9EntrH0ZVz4uKMaUQ2WAy/tRK481dGFQxDLXH/amT2Js7BiA67ClMPKaV2OvY0LMUwpp9rpmWdi5/8RwiyvXF5uv66UYSK34hFXKoLecu0iOxzZs3l5cTX0rx67KjcZXEjho1Sl2PQNwYGJUjmRdKrG0ose4LJTZjcbXECoyGh/A02ma7Yrx35f/OSqzITz/9pC6fFoktX768urwYnzYpKcm8Zu9IRktso/e+Vqf7+fnLzSaV19raWEqs56DEOoczEnv9+nX5+6wtL3j55ZexZs0a9XVmGyfWHl4nsTd/fR8VC3TE/E1DUDmiJj7Yr/nQ0imx1w8uwnstqqBkgbwoUKoKWg5cjLib5nkbR6PdazOw75Z5+Ys/4v2W72D+sZs4tag3GkfnRWB4cVSr3xDPDluHa+Z1CsTzruLDFb/gduvWTb6BUua5m7RK7I4dO9TlBKIXWEfjKokVPTdr92HOnDmG5UjmhRJrG0qs+0KJzVhcLbGuel45vYhh8Dp06KCbJprwiqbkYlxzZZonJFb5EVogHsXxtmS0xGqfhS1W/Tk0H7NGllllmpBcUY4S6zkosc7hjMR+8sknurKCTp06yRVt69atU6dRYi3iWom9jk19yqNQpyW4eOt/GF09HJWH7MZNZX56JPbaJvR/PDtKtZuMtfsOYvfyEWhcIBzVRuyS1395XmtElngb65Sa1lNTEZutEobuuYWbx7bju341EVqkHSYtWY7Vu0/pti86VhBiJzqGUKZlFGmV2NjYWHU5gfjVWzw07khcJbEffPCBbh9mz55tWI5kXiixtqHEui+U2IzF1RKrbc4rfhh2N2K74nuibFNsX1wTBVqhFtfYP/74Q97X9DQnFkmvxAqRVpbP6hLbqP88dZoQ1+YfrJWnC5lVpoumxmIaJdZzUGKdwxmJtRyyUhFYMY8SmxL3Suy1tXi7VFG89v1l6fUt/DGuDsIr9MMv5trS9EjstVVdUSSyGWaeUubfwp6hlRDy5PvYJa0/NYkVr201J/Y0aZFY0aGJsowWR2tjXSWxluPaifH6jMqRzAsl1jY+LbFJd3HpxDEcPXoMx46fwvkb95FonpUR0Upsjpw5Dd//FStWyM8RtmrVKs10795d/hHTaP1ZCXc0JxYMHTrUsJwrEUPV5MuXD9myZdNtWyAEVozz3qZNG7nTKe1ylNjUk5ESq62FLV6juXr9EDKrq42VZJcS6zkosc7hjMSK61DlypXlzmXFD3OKwAoosSlxq8ReWv4qHo2ojFdGfygLztj+zVDEVAo9frqWXMamxA7E47Yk9tlkiT0742mEluqJDRoJvTy3JbIXfA3fX8taEqt98Fs8v6v8X1ywjx8/bi5lO66S2HHjxqnrEXz22WeG5UjmhRJrG1+W2AfLX0RO/+S/TcbPhBwl66PLJ9tw2dFH95IuYNXotzByxXk4+7TfhQt/p2w7MAxxFh3yXbx40VBa0oIQHO26syKZVWLFOcWoN2JFXoUoHjhwwHBZSmzqySiJbdT/K/W1thZWQUitMl/ILiXWc1BincPZjp1sQYlNiRsl9m8s7Jgfeau2R9c33sAbMl3QrGw2FO78Iy6LMjYk9tYfH6Bm6OMYuEN7MFzGohfyIt/LS+TXlyRhjcz3MpZcVebfxvHJ9RFWPrmm9/L8tshZuDNWSEIrzz/5MRr6oMRu27ZNLS8u1MeOHdONXefIl8FVEjt+/Hh1PQLxZTQqRzIvWUli4+LiMGHCBLlTN+2voLbwZYm9v7g9IoIbYtq5h4h/eAdXjm3DvAGxeDQoDNG9N+CGI1aa8DuGPhGC6EF7kGCe5Ggu/P2b+t76PRKI0fv0F//ff/9dnZ9exHdEu+6sSGaVWPEIkJBVZXuKvIpa9v379xsuo0CJTT0ZJbF5y1RRXxev2cLqGmJZG/tkq97q/ymxGQsl1jkosfbxHok98yVa5i6CLiu0Y+5Jojm9CbLnfxGLLkivbUjsnZs7MPDJUBR/YR7izJJ5YccHqJ87P9p/nTyI+O24iagfUQAtZ8UlP2P79yYMrBqJ0j1/kjtpur7hHZQOi8GQX6/hzq2jWNSlPEICUyT26oJ2yJn/ZSy+pNmuF+CsxIqTtlJe9FomsmXLFnWauIiLLqxTi6skduLEiep6BJRY3yOrSKy4aRfNeESnL6KGr0KFCvJxZVRWwfclNhYzLmpt9QF+H1UNYcGVMWK/0NKHOLV+Cnq1a4Aq0eURXa0JOo//GRdEu+O7WzGlaytUzh2IXJVa4tXXu2DAN0fktTw8tR5TerVDgyrRKB9dDU06j8fP8kIpObdtiPreBvs/gorv/5rSt4KEpcTW6jreKco2fEldlhKbuZsTV69eHaGhofKx27JlS7vyqkCJTT0ZIbHheYuo/xei2mKsvhZWQcitUi6yYCn1/5TYjIUS6xyUWPt4jcT+PbcVokp1wxqlJtTM7RMz8WzOvHhp0WVJLvdjbK2UX00FAaV7Y6Mkrpe2TkTLUhEIzVUMZcsVRc6Igqjbbxn+UpuRXcWvU1qgZEQECpQpj+K5suPR2OFYf9bcBPnmXkxpmh/BkUVQulgxVH+rF54rXB0jzb/g3z42B20KBCNn0dIo98qC5JphL8AZif3ll19S3jcLWRVd9CvzxAPhqcVVEjt58mR1PYJp06YZliOZl6wisatXr9YNvyEQN8aiqaloom+0jKMSm3TvCk6fuox7jtRePliJ7o9Fo8eqB+YJ+jxY2R2PRfcwv3IgSfdw5fQpXHZo4ykxllhpdZc/R9MwE6p/eBSI344hjWLRZcyXWL5mFRZ91A6lQ3KjzYIrSHqwH9+MeBP18puQ76muGDx0OKauOyetIR7bhzRCbJcx+HL5Gqxa9BHalQ5B7jYLcEXdVAI29Uv53CKC/RFUtg82aVrRaCU2LFcBw+9eajQZtEhdnhKbuSVWsGvXLhw5csRwni0osaknIyQ2MDhU/X/xmi0Nj1WBkFttbawCJTZjocQ6ByXWPl7UnNgF3LqAP3f9jA0bd+CPs8YHxs1zf2CHdBLceuCM7pd5mdsX8efOTdh68BxuWc6TuHX2AH7ZsAX7z3jPSckZiU1NVC0FVzQzthVXSezH0klMWY9g6tSphuVI5iWrSOzly5flGlgxzJZSXmAymRAWFoZhw4bJ47hpl3FIYpMu4cvmkdINWDbETjtt/9nQ+/PRUjSHXHDfPEGf+/NbIiSklfmVvSTh0pfNEennh2yx03DaCY+1JbF4uAU9i5tQpNtG8wRNEk9gfK0QFOuxGQ/Fa4eaEyfixPhaCCnWA5vlhaQk7MU7ZVN+7MyZPQRlg4rj7bXmvhUkKLGuJbNLbFqgxKaejJBYBXGdaDF2neGxqiAk13I5SmzGQol1DkqsfXxLYrMgjkqsI02GjZoaG8VVEms5rtWUKVMMy5HMS1Z7Jlb8UCSkVVlGQUwTPaAuWrRILe+IxCadmY7YyDKoU7sgwmqNx1F7Xfy6UmKTzmB6bCTK1KmNgmG1MN7uxlNiW2I34u3CJhTvuTn5dcIV7P9hJsYO7ofePbugQRETCnVda0diE3Bl/w+YOXYw+vXuiS4NisBUqCvWmiX24ba+KBFaTX1vc+XMjoGPB6HQq8twyfzeU2JdCyU2/RIr+qsQY6cLSTPaniWU2BRK1GpleJxqEZKrvZ4IKLEZCyXWOTJSYuu+/TEeb94dHabvsZpHiSVuw1GJ1Xbe9Morr5in6qO9KKdWG+sqiZ0+fbq6HsGkSZMMyxHbCLETFwJvJSoqSv180yuxogt5sc4eWz7BI/Ofkflw01fyMSCa7Fpu2xWUK1dO3b5o/r5hwwa7vP/++3J57ViXWkSN7Z49exyQ2EQcm1AHERWHYff6HigeEoMRBy3qJO8fxuL326JuxWhUju2Myes/RguNxN4/vBjvt62LitGVEdt5MtZ/3EIjsUm4uv4jvDN1M/5Y2g9NY55E3QHrcNc8N/HYBNSJqIhhu9ejR/EQxIw46HAHSzabE5+digbBwWjwyVnJNg9gcmw+ZCtcF536DsWo0YPQqrQ9iX2IA5NjkS9bYdTt1BdDR43GoFalNRJ7HxveKgr/wAj1vRW143nD/eGX53l883fycUOJdS2U2PRJrLhZFR1KiZYb4jGEZs2ayddfo+0qUGKTcaQWVkHIrnZZSmzGQol1joyS2Nh3v1TnF3isttV8SixxG45I7ObNm9UyQk5TG0ZHO/zOSy+9ZJ6qj6skVnz5lPUIRM+uRuWIMdeuXZPfN9Ehibei/XzTK7FiKAyxzoCgQDxi8pcJDDKp092Bdv+FlGbPnt0hIiJSJErw6KOPyjeoltOU/xtKbEIcRsVkQ8zoOCTEb0ffMsGoMHA34s2zgVtY93YpBOWqhjcnz8XsDzqhUr5sCPEzS+ytdXi7VBByVXsTk+fOxgedKknyFwI/VWITcfiDaggpUhblyzbD0M+/wPTvfk8WSEkb40bFIFvMaMQlxGN73zIIrjAQu1M2nmqMJfYudg58EiGRT+PT04mI39oLJYOjMWiPeaVJFzEjNkQvsU+GSH/zbyl/c/xW9CoZLItt8rQkXJwRixBFYu/8iFcLhOKJt75Q31vxWaz+6k1Em3KixRfJHf1RYl0LJTZ9ElusWDHdUD+BgYGyzI4cORI3btww3D4lNoX85Ws4RHhUyjlXIITTaBvpgRJrG0qsc2SUxIpp2u00HjBfN58SS9yGIxIrPh+ljL0P23IInqNHj5rnpMRVEivGhVXWI/joo48MyxFjxPAQls9gejPpldjMiqW8Kmhrao0kNmHvYESH1cCHR0Qz3nj8NrACgkv2wi/JlgncmI/WOcLw1KTjko6KJOHGxh4oF5gssTfmt0aOsKcw6bi5GXDSDWzsUQ6BFhJrMpXFO5tum6eZk7AXg6PDUOPDI/K6438biArBJdFL3XjqkSU2qBaGb4vDobj9+HX9QozvUg15THnR+OODsqTGb++LMkFl0GuLqPtNwvVtI1Evd2CKxCaexMTawcjZej6uJCXi4YMEsZAk80Eo02uLXGOcdH0bRtbLjUCzxN5Y3AFRoXUxbOc59b3NlSsX7tzai+FVgpC96Qy5sz9KrGuhxKZPYoX4aIf6URCPIRQqVAirVq2y2n5Wldjly5er600v+aXvrdE20gMl1jaUWOfICIlt2Ge2bhuCfOWq68pQYonbsCex4jk+Zb74dffEiRPmObYTGxurLvPiiy+ap6bEVRI7a9YsdT2CDz/80LAcsUYMwG9Z2+ftZEWJVUTVsudigfYHCGuJfYhtfcsgW92JOGF20IT9w1ExuDDeWHtPfh3/a3+UDY7G4L2aRr7qM7G38Gv/sgiOHgz9bO0zseaa2DL9sNOihlU8V1omW11MTNk4hlcMRuE31iJ566nnweouKBiY/Lf7+QUiNGdhPNGoC8atPgm13+SEw5jVqghCwguhwuOlUCzmVfRpUxIluv1srg1OxJHpTyMqwISInDlQpscmsRAOz2qFIiHhKFThcZQqFoNX+7RByRLd8PPDu1j6YhQiY6dh17kL6nsrS+ydW/jfB7WQLaIZPjtFiXU1lNj0PxO7fv16FC5c2PCZelErKx4/0PagnFUl9ty5c/K9jLLu9PD8888bbiM9UGJtQ4l1joyQ2KgS+u+rQqP3vlbLUGKJ27AnsXXr1lXnv/baa+apqWf79u3qMuJGW1w4tXGVxM6erf8F6IMPPjAsR6wZN26c7r0TF3Wj5rCeRruPrmpOHCThFxQgI/5vuU1Xod13gXiPS5Uq5RCWyynNjJVpovlgnTp11NdWEnt/A94qGgBTZAG5bDL5ERHgj3wvL4eoN324qTuKijFXtc/JqhJ7E5u6F0Vw5RHQzzaQ2LL9LSQ2+bnSAFMkCqjbLob8EQHwz/cylltU2qYv93Hh4DZs2XkU182+rE8Crh7egU2b9+D0HfMkKfcvHMS2LTtx1HghXLhgKbH644cS61oosemTWLG8kNi1a9eiVavk5zYtW9kor7t37y73dJ5VJVYgnhcWTa0HDx6cZpYtW2a47vRCibUNJdY53C2xDXp/rk73CwhEnlKV1df5ylZTy1FiidvQSqygc+fOKk2bNtXNE01nSpcu7RDa5UqUKKFbr3ZeeiR2zpw5unWJnhmNyhFrxowZo3vvxA8CRuU8jTt6J1YQoiIuggJ33CiIc5uleBqV0yKOR1GrYquHYtE0UAirKJtax053fnwVBUKroN/yzXLP4slsxuKeTyIoV1t8c13Su7hRiAkqgNdXpvREnHTpUzQKEhL7j/xMa1CB15EyOwmXPm2EIHsSa36utEq/5disbnsLNi/uiSeDcqGt2LiXhxKbsVBi0yex4tEd5YcugeWPaOLarX2dO3du1KpVS32d1STWm6HE2oYS6xzultjcJZ5Qp5d6qj2af6AfT7lR/3lyOUoscRvamzFP0KtXL8P9coQvv0zpEU0watQow3LEGkrsHfniJ26WLae7Cmcltn///vJzbZa9EitjxYqWBtoLtm2JvYHFHaIQWneS2pRYSeLhsageHInn5lwE4neiX1kToppORdw9SWovbcGohvkQYO7YKX5nP5Q1RaHp1DjcQwIubRmFhvkCrDt2spBY5bnSSdYbx9jqwYh8bg4sR87xtlBiMxZKbPokNjUc6feAEus9UGJtQ4l1DndKbIPeKY/ziVpY5f6seI3m6vS8ZarK0yixxG2IL7W2l9OM5rvvvjPcL0f46quvdOsaMWKEYTliDSXW/TgjsX/88YdhE2QhtR07dsSpU6eslrEpsXeX4sWoSMROOyVppkUSj2HSU+HI3uIr6UUSLq/pi5gcATCF50RkeH7U7jMWXaJzocPi+9Lsy1jTNwY5AkwIzxmJ8Py10WdsF0Tn6pC8Lmntx8UQPo8Pxh61yXHKc6WnrDeOY5OeQnj2FvjqqnmSl4YSm7FQYt0jsaKG1mi6EFvtj2WUWO+BEmsbSqxzuFNicxdL6ZG41FMd1GubdW3sV5RY4l7EiWDmzJmYOnWqjilTpsgfbvv27dPMCy+8INcgWa5bIJoYGu2Po3z99dfqgSEYNmyYYTliDSXW/TgjsWJ8WNH5ilJW1Lw+8cQT8vPlRuUF9seJdSyJN49j9y9bse/MXUlrLZOIm8d345et+3DmrpdXn7owlNiMhRKbPokV54syZcrIz9MXKVJEnS4QLTnE2NJaoRU3ktrzByXWe6DE2oYS6xzuktj6vWaqr/0DTFb3ZsVrtlDn5y1ThRJLiBELFixQDwyBN9+weBuUWPfjjMQKxI8+ohOnqKgozJ0717CMFldJLGMdSmzGQolNn8SK5+jFOhcvXoyCBQsaPlMvRLZcuXLyOKmibFbu2MmbocTahhLrHO6S2FzFotXXpeul1MIqtBirr419okVP9f+UWELMLFy4UD0wBKLHQKNyxBpKrPtxVmIFotfQ27dvG86zhBLrvlBiMxZKbPoktlq1aqhZs6ahvIoWHuI7/MUXX+Cff/5Rt+/tEis6hFT2jxJrXDarQYl1DndIbES+our/5VrY8T8bXuNK1EruJV0QWaCk+n9KLCFmFi1KuREUvP/++4bliDWUWPeTFol1Bkqs+0KJzVgosemTWDE8nmg2rLwWiNdCYMV18cqVK1bb91aJFfs2ceJE3d9CiTUum9WgxDqHOyQ2ICjlsafS9Z43vL4JWoxdp7v/UqDEEmJGNJ3SHhwDBgwwLEesocS6H0ps5g0lNmOhxKZPYgsUKKB75lV0CCceTzh+/LjhtgXeJrGXL1/GoEGDkCNHDnW/BOLvEmPNG/0Nvggl1jaUWOdwh8Qq+Aea0Hr8JsPrm0KJWinnGAVKLCFmRM/G2oNDDFFiVI5YQ4l1P5TYzBtKbMZCiU2fxFatWlXu2En5/86dOw23qcVbJFaItvjchHgr+6PgaP8AvgQl1jaUWOdwp8SWrt/R8NqmpcWH661qYymxhJhZtmyZ7uB49913DcsRayix7ocSm3lDic1YKLGu6dhJ1GZabscWnpbYvXv3ol27dobj2IrnYcUIBlevXjXcd1+GEmsbSqxzuEti5VrYCZsNr22WlKitr42lxBJiRty4aw+OPn36GJYj1lBi3Q8lNvOGEpuxUGJdI7HO4CmJFfvdsGFDddtaxE23GDrP0c7tfBFKrG0osc7hzppY0UuxIwRH5NItV7lyZcNteApKLPEYP/74o+7g6N27t2E5Yg0l1v1QYjNvKLEZCyXWtyU2MTFR7oixUqVK6ja1NGjQACtXrjTcz6wGJdY2lFjncJXEfvPNN7r1pAcxBJjRNjwFJZZ4DHHR0x4c77zzjmE5Yg0l1v1QYtORpLu4dOIYjh49hmPHT+H8jftINM9yd5LuXsLObSmCkSMnJdbdUGJ9U2L//fdf+SaxePHi6rYURDPiNm3aYNu2bYb7l1WhxNqGEuscrpLYs2fPWvV+nla6dOliuA1PQYklHmP16tW6g6NHjx6G5Yg1lFj3Q4lNex4sfxE5/ZP/Nhk/E3KUrI8un2zD5SRzIXtJuoBVo9/CyBXn4egi0pax/MWc8FO2K+OPur0W4c9bKe89Jda1UGJ9S2Jv3LiB0aNH687fCsHBwfKN7MGDBw33K6tDibUNJdY5XCWxAiGy4jl1MfxVWtm0aZPhuj0JJZZ4jDVr1ugO0G7duhmWI9ZQYt0PJTbtub+4PSKCG2LauYeIf3gHV45tw7wBsXg0KAzRvTfghiNWmvA7hj4RguhBe5BgnmQ/97G4fQSCnvpQfW9DggKQ3T87avWaJT+vJxg/frw6P70SW6RIEXW9lqxfvx7//POP4efvS2R2iV24cCGaNGmC9957DxcvXjQsY4kvSuy5c+fkvimyZcumrltBDJ0j3p+TJ08a7g9JhhJrG0qsc7hSYn0VSizxGJYPm7/11luG5Yg1lFj3Q4lNe5IlNhYzLmpt9QF+H1UNYcGVMWK/0NKHOLV+Cnq1a4Aq0eURXa0JOo//GRdEu+O7WzGlaytUzh2IXJVa4tXXu2DAN0fktTw8tR5TerVDgyrRKB9dDU06j8fP8kIiyRIbGP2q+t7aI70Sa4+ePXsafv6+RGaW2F9//RWhoaHy9sQwMULWZs2aZffHB1+S2Li4OHTq1MmwyaF4Bu7DDz90WO6zOpRY21BinYMSax9KLPEY2ou44I033jAsR6yhxLofSmzaYyyxQNLlz9E0zITqHx4F4rdjSKNYdBnzJZavWYVFH7VD6ZDcaLPgCpIe7Mc3I95Evfwm5HuqKwYPHY6p685Ja4jH9iGNENtlDL5cvgarFn2EdqVDkLvNAlyRN5UssQEln1XfW3u4W2JLly5t+Pn7EplZYhcvXozw8HDddkVNZLly5VJtPucLEiueZ3322Wfh5+enrkuhbNmymDlzpty02Gj7xBhKrG0osc5BibUPJZZ4jA0bNugO0K5duxqWI9ZQYt0PJTbtsSWxeLgFPYubUKTbRvMETRJPYHytEBTrsRkPxWuHmhMn4sT4Wggp1gOb5YWSJdY/r/5GMlvhGMRKN+vihl1Qv359dV56JVZ8R5T1Kmg7wilVqpTh5+9LZGaJFT1Z55f2X9TCarctEDW0rVq1wl9//WW1XGaV2P/++08eGaBmzZrq8lqqV68ui31WaAbvDiixtqHEOgcl1j6UWOIxxHdHe4B27tzZsByxhhLrfiixaY9tid2ItwubULzn5uTXCVew/4eZGDu4H3r37IIGRUwo1HWtHYlNwJX9P2Dm2MHo17snujQoAlOhrlirkdjAEk3V9zY4KAD5gnKg6sCfcMH83ru7Y6ddu3ap8ymxjuOpZ2LFuaVXr16yyAYEpJxzBKKJrZDZIUOG4Nq1a+oy6ZVY0cmKsnxGSGx8fDzmzp2L8uXLq8tpadasmfzDstG2iONQYm1DiXUOSqx9KLHEY2zevFl3gL722muG5Yg1lFj3Q4lNe2w2Jz47FQ2Cg9Hgk7OS0B7A5Nh8yFa4Ljr1HYpRowehVWl7EvsQBybHIl+2wqjbqS+GjhqNQa1KW0lsUL2P1Pc2V66c2Pre4wjM1hQzTt6W33tKrGvxJok9c+aM/Azn2LFjnUY80qLdvhFCGMV20iqxDx48kP8u7Trr1atn9XfYw1GJFWVFz6KFChXSbVMQGBiIl156CXv27LFaP0kblFjbUGKdgxJrH0os8Ri//PKL7gB95ZVXDMsRa3xFYqt1GonsBUqiYps+VvMElNjMGWOJvYudA59ESOTT+PR0IuK39kLJ4GgM2hOfPDvpImbEhugl9skQVBj4G8wlIC2EXiWDZbFNnpaEizNiEZKqxObC6WmNEBxYA2MOJt8EUGJdizdJ7IQJE+RnPEUNaloRY6Aq+yBqSbX7JKhatSrmzZunvnZUYjdu3Ch/H7TrEttatmyZ4d+SGvYk9vLlyxg0aJDcUZV2ewLxzK/ocOzIkSOG6yZphxJrG0qsc1Bi7UOJJR5DdCqhPUBF74hG5Yg1viCx4rV/QEpvmE+/v1A3X0CJzZyRJTaoFoZvi8OhuP34df1CjO9SDXlMedH444OypMZv74syQWXQa8td6VUSrm8biXq5A1MkNvEkJtYORs7W83ElKREPHyTInUH1LROEMr22SEosLXV9G0bWy41AC4k1VeuvvrfZw8PQplQwslUbgV03k997Sqxr8SaJFcMnBUn7IZYXNY2WzYPdgT2JvXLlilzjablc5cqVsX37dsO/wx62JPb48eNyT/9Gz/hGRUVh2LBh8piRRusk6YcSaxtKrHNQYu1DiSUeY8eOHboDVFzkjcoRa3xBYks91UH3N+QvX1M3X5CZJParr76SO0vp2LEjjh49alhGiy9L7IPVXVAwMLnHUz+/QITmLIwnGnXBuNUn8cBcBgmHMatVEYSEF0KFx0uhWMyr6NOmJEp0+zlZYpGII9OfRlSACRE5c6BMj01iIRye1QpFQsJRqMLjKFUsBq/2aYOSJbrhZ3mhB1jdpSACzO+rjJ8/anQYju8Pp9wsUWJdizdKrBBY7brSiqWUiJpT0TR30qRJ6jRbEis6URLn5pw5c+rWERERITfxvX07uXl7WrCU2H379qF9+/a6WmQF0dHYx5I0XL161XBdxHVQYm1DiXWO9EnsbRydvR5jmyzBiGd/wIyJx3DhtlE5LbdxYuEmTHh2CYY/vRRTPz6FG5p5f85YgzFPS/Mam3n6O4xu8QMmv7ER306Lwx/Hbe2fxbLSvyOaSMu2WoFp7+7ATxsv4rrhcvahxBKPIcbn0x6gL7zwgmE5Yk1ml1jxf78A65vMpwd+o5OFzCKx+/fvV2s+xM2z6Ajm/fffT/Wm0Zcl1vHcx4WD27Bl51FcV4Z61SUBVw/vwKbNe3D6jnmSlPsXDmLblp04aryQ3OOs8t6K5sSW7z0l1rV4o8RqZU7c5DhCu3btdNsX6xGIJsbKNNHBk7jxtvdM7KFDh1CnTh21jELLli1x7Ngxw313Bq3E2kIIlWj2TJHKOCixtqHEOkf6JPYmtvWcjz4V56Fv5XnoE7MMS39N/Uez2+f+xOx6ouzXeFdarl/n/RrxTVnf+02/x7i2P2Bcm+WSmC5E/0rSMtL0PjWW4fMvTuOylSwbLNtqGYbV+Tp5uUrfYML4EwbL2YcSSzzG7t27dQfo888/b1iOWJPZJbbUU+11+6+Qv3wNnSxkFondsmULwsLC1LICIbLi71c6grHEYYl9eEv622+Zayft5MFqvFOpCvptMC79YPU7qFSln/lVKnlwAxfOncXZc+dw/tIN3Dd2Ra8NJTZj8dbmxAIhpkbltIjhZD799FNERkbaHGpHtLA4deqUuowtif3333/lZ1G14isoXLgwvvvuO91200NqEiuGkFqxYoXhcsS9UGJtQ4l1DpdIbKWF+LjrCvSXZHHY4GO4ZlhW8A9Of7Ea71Wcj/Hd1mKYJL5CYs9bSex8zFqq/8yu/3UKm0etxJAYIaQLMfXzc7ipmW9z2ZtX8efcDRghlotZjmW7nW+ZQoklHkP0iKg9QEVTKKNyxJrMLLEtLWphYzoMxCOawfYbD1ygykJmkVjRLFDIjKXICsS0mJgYWWy0yzgksUmXMbdFDvj7RaDJzHOwGLDGOvfno2VIONp+e988QZ/781siJLyt+ZWtPMD3L+eGv/o3+CEwshSaDFmDC3Z3wDtCic1YMrPEimFzKlWqJHd2pN22QEwTn6/Rc6tGEivGfi1ZsqRuHeKZ3N69e8sdLVmuIz106KB/HEPUPAuxFX1NGJUnGQMl1jaUWOdwlcR+uWA/Pqs9D33rbMC2szbGf75xBstbfY0+tddh47JfMNwJiU3mFo7PXYvBola25mqs/1O7nVSWvXUJazuJGtmvMXnmRdzWznMASizxGHv37tUdoG3btjUsR6zJzBJbqm5Kk72oEk/K04pVe1adlq9cdVUWMtMzseICI56TCw8PR3BwsLqcgqjhEc99iwu3KO+IxCad/RSNI8ugds38CHtqEk7YqxF1icQmd44U3Gg6zt27hztXjmL9qFjkCSyEzqvumct4dyixGUtmllhRY2kpsOJYFc+xinFVjZYRaCVWnOdETa12HQLRi7F4bMZo+fSyZMkSubZXnGu6dOmCAwcOGJYjGQsl1jaUWOdwmcSuvIpd7y1C34oLMHXOJUNRvLZui1z7OnTAEVzctDUNEitx6wLWvCzKfI0PJ5/FLXVeasvexPaeC+RlJkw7T4klmQfREYX2ABW/IhuVI9ZkVoltOW6Drha2YZ/ZshQ0H7NaXxs7YL483dMSq61ZFU0N+/fvb5euXbuqy9hi8ODBaNSokfraWGITcXxSXURUGo7da95CkZCqGHPIwmLvH8F3QzqgQUxFVG3yBqb9/AlaaCT2/pHvMKRDA8RUrIomb0zDz5+00EhsEi6vH4++039B3NJ+eKZKZTQYvBH3FIltMgtXzSVxbwk6RAah5kfHpL3y/lBiM5bMLLHr16+XmwuLsqLWVPy/b9++dmtOtRJrifjxa8qUKenquMkR0vNeE/dAibUNJdY5XCexN3F9yzaMlMT03Xa7cczcS7/K7SvY0m0h+sYsw5Ltt3Bzcxol9s4/ODNrpfw87buv/A9nbynTbS97++8j+KrxPPSpvBjzf3L+u0CJJR5DeyMpEB1eGJUj1mRWiS1Zp636OqpkRZ0YFKv+nDpPqY31tMS6qodTUSOj3CgraJ+9M5TYhDiMrhKOqmMOIeHhFrxTMhhPDN2HBPNs4BbWdSuFoJxV0XXCbHw2oiOeyBeOUH+zxN5ah26lgpCzaldMmP0ZRnR8AvnCQ+GvSmwC/hgZg5Ci5VGhTFMM+nQWpi7+HQ8NJPbBvqGoFFwIXVZnjZrYFz7/Q/4+hkbmQZ23pljNp8TqyezPxI4YMULuwfe5555DXFycYRlLbEms+DFWDHNjtAzxfSixtqHEOofrJFZa7uYZLG/9tSSL3+HbLRYi+cceTKoqSesLe3BCEty0S+wd3PhpC4ZWmoe+TbfhwHVlurLs1/hkxmkc2XMWR3afwt4lezC3vSTP0vRhPQ/itCq9jkOJJR5DNH/SHqDNmzc3LEesyYwSK2pXdbWwfb/QiYGojfXzS+lRtPF7UnkfkVh7GElswt7BeDxbLXx0VNR9xmNHvzIILtsPO+OT5+PGfLTOEYq6k46ba0eTcH1Dd5Q1JUvsjfmtkSO0LiYdN9edJl3Hhu5lYbKQWJOpLN7ZdNs8TSRZYgML1UKHl1/GS+2b4PE8ESj3xvdZ5pnYmp3HqfMDg8PQ7uOduvmUWD2ZXWLTguWPsEWLFsXy5csNy5KsAyXWNpRY53CpxN75B6dmrZQ7eBrS/zCuqOVu4Y+xy/BuxW/w6YLLcnPe9EjszR07MCZGktjYLdh3TZmuLDvPir51f8Cc6cdwVhVe56DEEo/xxx9/6A5Q8Su4UTliTWaU2KJVmqr/z1Oykk4KFHS1sWWr+YzEVq5c2eo5WW3NrLXEPsT2vmUQXm8KTpodNGHPIEQHFUf3Tckjrcb/2h9lg6MxeG9K3WzKM7G38Gv/sgiOHgz9bO0zseaa2DIaMZaTLLGmMq0xZPRojBoxCD3aVUG+4NyoM+ZXZIa62PRIrKiFjchbRJ0veOyZN3RlKLF6sqLECl555RXkzp1bbn585coVwzIka0GJtQ0l1jlcK7F3cPvkQXxaS5LHWuuw+aS546ULh/FlA0kmG27CrgvJy6ZLYjf+Ij9b++6z2/HHDWW6suzXGNNzJ5aN34GF/VdjVE1pX2IWybWzKVLtHJRY4jHEOHraA7RZs2aG5Yg1mVFi/TTjNjbsO0cnBQrNx6zR1cY+ovm/NzwTO1C6CNvjrbfeUpexxfDhw9G4cWP1tZXE3t+At4sGwpTjUVmCZEoWRPaAABTqsgp3pSIPN3VH0eDKGHHQSGJvYlP3ogiuPAL62QYSW7a/ocTqnonFA+wa8BhMka3w9Q3zJC9OeiS25usfqvMULGtjKbF6sqrEEmIJJdY2lFjncLXE3rlzHTvf/RZ9JRGd/JnoROkfnPt6LQZIcjn6g1O4YV42Pc/Env9qDfpVlJZ9/Xf8bWfZa3v24pM6QmSX4tvNN9TpzkCJJR7j8OHDugP0mWeeMSxHrMmMEquQp1RlnTRYUrxGc6tlBJ6QWGd6JxaduHwsXZgjIiQBtNE78csvv4wzZ87I5VPrnfjOitdQMLQ63vthszwGbTKb8W23xxGU90UsvSUpaNwoxAQVwOsrU3oiTrr8GRoFC4n9B3GjYhBU4HWkzE7C5c8aIThNEiuWbSzJQT18fDZj2hSLi1P16tXx7bffmqc4nrRKrFEtrEKFpl3VcpRYPZRYQpKhxNqGEuscrpfYO7i+8ReMEDWlLXbi0JVz+LH91+hTZQVWHkjphC7NEnv7Mn5+8xu5xnXcFEd6J76Nox//IEvvwDf245y6LcehxBKPcfToUd0B2qRJE8NyxJrMLLGx736pyoARzT9Yq6+NNePNEisEVty82BonVjQnFmKjXca2xN7A4g5RCKs3BacsugJOiBstiWtOtF4g6WX8TvQra0JU06mIuyfNu7gJI+rnRYC5Y6f4nf1Q1hSFplPjcE8S1oubRqB+3gDrjp1sSGxQ3dHYeegQDh06iF0rJqF96WBE1J2APy32yR0RrTTEuJfivRHDiJw6dco8x7GkVWJrvj5WnW4KDUfVF4eqr0VtbNspO+RylFg9lFhCkqHE2oYS6xzukNg7N05jWUvRwdMSzJ24WRbagW8e0NSaplVi/8Gldb9gdMw89KmxCmvjHBsn9vapg/IYtn1ifsCP/3O+N3dKLPEYf/31l+4AFc0rjcoRazKrxOYpnXotrELxmi10ywm8WWJ/+eUXK4EVz7xGRUVh/vz5hsvYlNi7S/FiVCQaTT9lPZxN4mF8VDsbcrRdKL1IwuU1fRGTIwCm8JyIDC+Auu9+gM7l8+DFZQ9EtSzW9I1BjgATwnNGIrxAXbz7QWeUz/Ni8rqktR8ZVxPhjw/GHk2TY9F0eHWXggj0S943P79AhEaVRt1XxuPnCxlgsFI6dOigvjcCMQ6mM0mLxL4w6yDC86TUwkY/+zZe/DwO2fOXUKdVaNpFLkuJ1UOJJSQZSqxtKLHO4RaJlWTzxKcr5NpPuXOlSouk+dc189MgsTev4s9vfsF4IaMVv8HEj0/junZ+qgJ8HbsHLEJfaV9GDj9usZx9KLHEY5w4cUJ3gMbGxhqWI9ZkFokVAqHdz9pvTkLbKdvt8vT7C3XLCbxZYvfv368OmaOMNTlgwABcvXrVsLwgtebEziTx5nHs/mUr9p25K2mtZRJx8/hu/LJ1H87czRxdC2trYRVEB1vO1MamRWJrvPaBOk3Uwrb/ZJc8vfYbE9XpAUGh0vdzByXWAkosIclQYm1DiXUO90jsHdw+vh/TRadKkjiKDpgOqr0IJ5O6xM7DsA7rMbO7YB2mv/ojRtdLni46afp44l84bzVUTmoSewc3tm2Xa3D7PrUB289qa3DtQ4klHkPclGoP0AYNGhiWI9ZkFonVjoWaXrz9mdgvv/wS1apVQ/v27eXnvY3KaHGVxPpaxPunvC9aOnfubC5hP85KbHItbGF1WvRz3WSBFci1sQVKqvMqNOlMibWAEktIMpRY21BinSN9EnsLu977Fu9WWYKFGy2Xu4ZfByxGv8rfYMrMvzXPriZzc+dOjK32Nd5/Jw6XVIm9hf1jlspD9MjCKqj0NfrVWoSRbVbj81F78evv1+UherTrUpbdPUDal5hv8dUqg7/h5t9Y88o36Fv5W8xd6dz3gRJLPIY4gWkP0Hr16hmWI9ZkFok16uAorVy/rm/y4m6clVhnocRaJy4uDn5+fur78sEHKbWjojb25MmT5pKpx1mJrfFayvGkrYVVEC0IlPmiNrZB78/V15RYSiwhCpRY21BinSN9Eps1oMQSjyF6adUeoHXr1jUsR6zJLBLbu3dvuXmtdl+dRTQtbd26teH63QklNuMjhEN5T0Rv5SJ16tRRp73++uvyNHtxRmJDc+ZHeNSj6uvHm3fXCaxA1MZGFkypjdWOZ0yJpcQSokCJtQ0l1jkosfahxBKPce7cOd0BWrt2bcNyxJrMIrGZGUpsxuaPP/7Q1cL+9ttv8nTxOSjTRG2seJbeXpyR2KBsker/TaERaP/JbiuJFdR5c7Jazj8wRZIosZRYQhQosbahxDoHJdY+lFjiMc6fP687QGvWrGlYjlhDiXU/lNiMTdu2bdX3Q6mFVSJaaSjzXnvtNfNU23FGYv38U1oKGNXCKrw4+5CuNlZdhhJLiSXEDCXWNpRY56DE2ocSSzzGxYsXdQdo9erVDcsRayix7ocSm3GxrIXds2ePeU5yNm3apM4TzdOPHz9unmMcZyRWIbVaWIU6b02xWo4SS4klRIESaxtKrHNQYu1DiSUe4/Lly7oDVPTsalSOWEOJdT+U2IyLtha2WbNm5qn6iOuMUsbeRSstEvtEix6G4qoluTa2lG45SiwllhAFSqxtKLHOQYm1DyWWeAwxhqb2AK1ataphOWINJdb9UGIzJgcPHky1FlbJ5s2b1TL2amPTIrFNhyxB8zFr7PJkq9665cqVK2e1fkosJZZkTSixtqHEOgcl1j6UWOIxxJAp2gM0JibGsByxhhLrfiixGZM2bdqo78Ozzz5rnmocMQyXUvaVV14xT7VOWiQ2rURFRVmtnxJLiSVZE0qsbSixzkGJtQ8llngMcfLSHqCVKlUyLEesocS6H0qs+3PgwAFdLezevXvNc4yzZcsWtayojf3rr7/Mc/SxJ7FHjx5V56eX3LlzW62fEkuJJVkTSqxtKLHOQYm1DyWWeIzbt2/rDlBx8jcqR6yhxLofSqz7I8b/Vd6D5557zjw19dSvX19dplOnTuap+tiTWIF49tZkMsnD9qSViIgITJs2zWrdPi2xly7h7qlTOpLy5k2WWOn9PLtvHy4cOKDOuyN9FobrMYASSzI7lFjbUGKdgxJrH0os8SjaA9SogxRiDCXW/WSkxC5atAgPHz7MUohxYJW/XyBqWf/55x+7rFq1SrdcXFyc1bpPSfKkzLclse5EK7ElS5Y0/DsyK/fnzcN/0t/lKP9OnWq4HiPeeOMN9X0TiB8axI8EziCap4taemUdlStXNixHiKNMnDgRPXr0kM89Rse7FkqsbSixzkGJtQ8llngU7QH62GOPGZYh1mRmib25aScmPLsUE8Yd10y/jT9nrMGYp5dgeGMJ6d8RTb7D6FYrMO3dHfhp40Vc16wjI8hIiSXuw9MSSwjxHaZPn254zCtQYm1DiXUOSqx9KLHEo/j7+6sHaPny5Q3LEGsys8ReX/oT+lWch349D2mm38S2nvPRR5r+ftPvMa7tDxjXahmG1flantan0jeYMP4ELt/Wr8uduFtiRTNH7WdI3IOrPzdHELXDRvtCCMncVKlSxfCYV6DE2oYS6xyUWPtQYolH0Tb7Klu2rGEZYo3vSux8zFqquajdvIo/527AiBhJZGOWY9nu25pl3Iu7JVasXzQ1FR0bZUW039/0YrR+geh0adasWYbvv7t5/fXX5edmjfaXEJI5Ec/uGx3vCpRY21BinYMSax9KLPEoomMV5QAtXbq0YRliTZaRWMGtS1jbSdTIfo3JMy/itnaeG3G3xBLfR3ReJ248fI4LF5AQEoJE6biwRYKfH07t2YMTJ07IHW0ZrseCK1eu4KeffpI7dBoo3fBOnjwZH0s3u84gOgvT/jgqer03KkeII/Tt21f9LgnE0F5Gx7oCJdY2lFjnoMTahxJLPEpwcLB6gGaFoShcRZaSWGne9p4LZImdMO08JZYQL+D/JFmUDgyb/HDuBJAAADl6SURBVFunjnyTmtE3quydmLiSX375Rf0uCSixaYcS6xyUWPtQYolHCQ0NVQ/QEiVKGJYh1mQlib399xF81Xge+lRejPk/ZdwFjxJLiG3+nT9fvSE14tqHH8o3qefOnTNc3l1QYokrocS6Dkqsc1Bi7UOJJR4lW7Zs6gFKSXAc35XYr/HJjNM4sucsjuw+hb1L9mBu+4XoK00f1vMgTt/Sr8udUGIJSYXLl/FfaKh6U6rlP39/nP3f/+Sb1MtSOcPl3QQllrgSSqzroMQ6ByXWPpRY4lEiIiLUA7RIkSKGZYg1viux86zoW/cHzJl+DGev69fjbiixhKSOrSbFnmpKLKDEEldCiXUdlFjnoMTahxJLPEpkZKR6gBYuXNiwDLHGl2tix/TciWXjd2Bh/9UYVVMS2ZhFcu3sFc06MgJKLCGp8++CBepNqZZr48bJN6gZ3ZRYQIklroQS6zoosc5BibUPJZZ4lJw5c6oHaKFChQzLEGuyyjOx1/bsxSd1hMguxbebb2jKux9KLEnmNv6csQZjnl6C4Y3NPP0dRrf8EZ/03oa16y/guuFyWQCDJsWebEosoMQSV0KJdR2UWOegxNqHEks8Sq5cudQDtECBAoZliDVZp2On2zj68Q9y+YFv7Me528p090OJJcmkNHV/v+n3GNf2B4xrsxyj6i1AX2lan0oLMXna6Swrsv/Xpo16Yyr4t25d+eZU4ImbLkoscSWUWNdBiXUOSqx9KLHEo0RFRakHaL58+QzLEGuyjsTewe1TB/FZbVEb+wN+/N9t3Tx3QoklySjfzQX4fLnmu3nrGv6cvQ5DK0vfzZpr8fPxfzTLZH6OHj2KXbt2yWPdGs1XsGxS7MmmxAJKLHEllFjXQYl1DkqsfSixxKPkzZtXPUDz5MljWIZYk5Uk9s6d69g9YJFc6zVy+PEMq/GixJJkbEis4MZpLGv5NfpU+hZfrfGdG4zt27erY3iL83KnTp2waNEiXLlyxbq8aFIcFibfmMpNiX//Xb45NSybAVBiiSuhxLoOSqxzUGLtQ4klHiV//vzqAZo7d27DMsSarCWxd3Bj23aMjpmHvk9twPazGVPjRYklyaQisbcuYNULyRI7b63v3GCMHDlSd35RCAkJQbNmzeQbh5MnT6rllSbFnm5KLKDEEldCiXUdlFjnoMTahxJLPIp4DlY5QMXzsUZliDWZWWJvrNqEwTFfY/CAI5rpt7B7wLd4N+ZbfLXK4ER982+seeUb9K38LeauzJiLHiWWJGNbYm8f/h2f1JyHvnV+wtbTvtOceMSIEbrzixF+fn6oWrWqLLz/++gj+cb0mvSvuDH1VFNiASWWuBJKrOugxDoHJdY+lFjiUUSPxMoBmiNHDsMyxJrMLLGZBUosSSallcCUiUewZ90x7Fl7BNvn/YqZzy1A32rf4YvFF3DLcNnMiVZihaj2798fZcqUUacZUdLfH2+Ymx1fvHjRcL0ZgWMSex0n92zA+q2HcNFqHiEpUGJdByXWOSix9qHEEo8ixoZVDlAhDEZliDWUWPdDiSXJKBI7z5CBbTZixYq/cdVw2cyJVmLfffdd89UecmdPQhJr164Nf0lalTKWiB8kn3/+ecyfPz/DhdYRib19dDIahErzA0rhnQ3XreYTokCJdR2UWOegxNqHEks8StGiRdUDNDw83LAMsYYS634osSSZlJrYSWPjsOP7P2W2LfwffhiyGiOrSzJbaSGmzDjjM8Ps2JJYba5evYqvvvoKrVq1QrZs2dTylgihjI2NxeTJk3HkiPYRAvfgUE3smfl4qXAognM3wLi9vDEktqHEug5KrHNQYu1DiSUepXjx4uoBGhYWZliGWEOJdT+UWJJMKh073fkHF9dswUgxzE6t9dhyyjeei3VEYrV58OABVq9ejTfeeEPXz4ER4iZ/0KBB2LFjh+G20wufiSWuhBLrOiixzkGJtQ8llniUkiVLqgeo6PnSqAyxhhLrfiixJJnUJFbi+gl820SS2MqLsWCjb9xkOCux2vz333/47bffMGTIEERHR6vrMeLRRx+VxffHH3/EjRs3DPfFWRyT2Nu4eGwf9vxxWl97futv/Ll3H45eEGPj3sbZ3YswafC76Pv+OMzbckLz3PNVHFrzGUYNeBcDRs3Aiv0GTaZduS7iMSixroMS6xyUWPtQYolHKV26tHqAihsPozLEGkqs+6HEkmTsSOzVY/g6VpLYmKVYvE0Ii8X8TEh6JNYyp06dwtSpU9GgQQMEBgaq67UkIiICrVu3xhdffIGzZ88a7pcjOCSx19bgzaL+eCSoMaafSZl+bc2bKOofgDK9f8T60U+jkEmzj4H50XjiLly7tg9fdHoMEX6aednK4fWFx3Bbsw1Xrot4Dkqs66DEOgcl1j6UWOJRtD1emkwmwzLEGkqs+6HEkmRSkdhbV3Fw8kq8X2ke+jbegn2XNfMyMa6UWG3ETdjChQvlTp+0x5YlAQEBqFu3LsaNG4c//vjDcB9t4ZjErkLXIkJiYzH1VMr0a6u6ooi/H3IWL45cwYXQsO9nWLFhLea93wgFAh6BX/bqaN2sOIJzVESnjxZh/YalmPRSBYRJ2/Ev3Bk/aj5/V66LeA5KrOugxDoHJdY+lFjiUcqVK6ceoOLGxagMsYYS634osSQZRWK/xrDn12Nm92Q+e2s1JjT5Bn1FL8XVlmH+yis+U3vmLonV5v/+7/+wYcMG9OzZE0WKFFG3Z0T58uXRr18/bNq0Cf/8k/pzx+mXWGm5wCJo8/mBlKbGt49jRtPkc4FfZA0M3vh3yrqursFbJQLkno57ano6duW6iOegxLoOSqxzUGLtQ4klHqVChQrqASoGzzcqQ6yhxLofSixJ5hb2j1mK/hZD6/SNmY/3n/4B09/fje37rvtU88+MkFjL7N+/H6NGjUJMTIy6bSPy5s0r37QsWbJE7iHZct9dIbGmepNx/LamvPQd2DO0EgIfCUDJ7usteqG+iDnNRe/M4Wj11WV1uivXRTwHJdZ1UGKdgxJrH0os8SiWHX8YlSHWUGLdDyWWZFU8IbHanD9/Hp999hmaNm2K4OBgdV8sER1DXbhwQbfvrpDYoNipOKUtf+c2/hxXGyZJPEv32mAhnlfxbcdc8HskGM/OtpZYV6yLeA5KrOugxDoHJdY+lFjiUZ544gndQWqvqRhJhhLrfiixJKviaYnVRuzP0qVL0alTJ+TOnVvdL4V58+bp9p0SS1wJJdZ1UGKdgxJrH0os8Sg84acNSqz7ocSSrIo3Saw2iYmJVlIxc+ZM3b77ksTeuvAX/jh81qLMHdy+eBxxf13QDNND3AUl1nVQYp2DEmsfSizxKJUqVdIdpK4aK9DXocS6H0osyap4q8Qq6dixo7p/viyxZ759EQUCC6LjN6dSnrm+uRujqocjstHHiLulXZa4A0qs66DEOgcl1j6UWOJRLDvxuHbtmmE5oocS634osSSr4qjEJl35Fq8/VgZNJhwwT8mYZBWJvXMrDp80yQVT6W5YczF52UMznkGusMoYvJ29F2cElFjXQYl1DkqsfSixxKNUrVpVd5BeuXLFsBzRQ4l1P5RY4kuIDpD++usvw3mWOCyxZz9GvaBAlOy11TwlY5JlJFaadnP3KNQID0XlwTtw7fQivPRoMMr2XIdLuuWIu6DEug5KrHNQYu1DiSUepXr16rqD9NKlS4bliB5KrPuhxBJfYdCgQTCZTLLcvfTSS/LNo1E5BZdJ7P1LOLxvP05cjzdPEHmIq8f34/fDl3DfPMU493Hp8D7sP3EduqWvHkeTJs+o+5cmib2+EX3KBcE/sgW+OJcy/frGPigX5I/IFl/gnLa8JJ7HpzVBhH8IKg7agZu6edfwY5fCCPTPhY4LU4b8cd26rmJj38cQHFkXr7Qvg+DCnbD4zG3NMsSdUGJdByXWOSix9qHEEo9So0YN3UFqOVwCMYYS634oscQXEP0MBAQEqN9jIXjZsmXDhx9+aPMGMu0SG4/tg6uieNPJ2PxDP9TNb4KftA6/0OJoNeMg7l/dho9alECYn7RuPxPy1ByIdVeSzMtKS28fjKrFm2Ly5h/Qr25+mORyoSjeagYO3r+KbR+1QIkwP3XfBJ+mRWIzG+eW4hVRc+yXC80+PepTYxJ7O5RY10GJdQ5KrH0oscSj1KpVS3eQ/v3334bliB5KrPuhxBJfIX/+/LrzhSAsLAyFCxfGihUrrMqnXWIfYm3XQgjMUQAFC1bF27N/xt5fF6N31ewIiHgST8UURNn2E7Hqtz1YPbYpCgQEosy7O9Sa1odru6JQYA4UKFgQVd+ejZ/3/orFvasie0AEnnwqBgXLtsfEVb+h8VOPq/vXf7rvS+zNvWNRJ3swgoNMbEqcwVBiXQcl1jkosfahxBKPUqdOHd1BevbsWcNyRA8l1v1QYomvsGHDBuTLlw+hoaG684ZAyGz9+vVx4MABtXx6JTYg6DH0+vkGlDrWu993Ql7/ABRq+zVOJZonJuzBoGgTTDU+xFHzNFliA4LwWK+fcSNlYXTK64+AQm3xtXnhjh07qPvXcsSnur/V5yT21iHMeCY3wqsPx+KxTyF7WAyG7GCnThkFJdZ1UGKdgxJrH0os8Sjiu6M9SM+cOWNYjuihxLofSizxJa5fv47hw4fL0hoYGKg7f/j7+yMkJATdu3fHxYsX018Tm/NFLHtgniQlYf8wPGkKQr2Pz6pii6QrmNk4CIHlB2C3uSo2uSY2J17UL4xhT5oQVO9jnDUv3LHj8+r+NR4wXfd3+pbE3saJ+R1QIKgMeq67hDtXN6FfdDAiG0zCAQ6vkyFQYl0HJdY5KLH2ocQSjyJqALQHqTipGZUjeiix7keRWD+/lGfwxGtCMjPa84YjuERiDwxHJUuJxVXMahKMwHLvYVeqEnsAwytZSmxK78T2yNQSe+57dC5hQoHn5+Pk7eRpZ5d0QuHAvGg15y8+G5sBUGJdByXWOSix9qHEEo/SsGFD3UF68uRJw3JEDyXW/VjWxBKSFaHEeoqb+G14FYTlboKpBzU3r7f/xKfP5UVwqZ746bq2PHEHlFjXQYl1DkqsfSixxKM0atRId5AeP37csBzRQ4l1P5RYQiixJGtDiXUdlFjnoMTahxJLPErjxo11B+mxY8cMyxE9lFj3s2/fPvm9Fc8QEuIrGHXulBqZSWJF038tYlq/fv0Mj29CHIES6zoosc5BibUPJZZ4lCZNmugO0iNHjhiWI3oosRmDaBlw6NAhQnyCOXPmyK0LTCaT7vwhEJ075c2bV76mDx06VJ2eqsRemIWm4UF47P1d5ikPsalncQTl74xVGg9N/HMsaoRkQ5OZFzQSexPzWkYguOJw/J6QPOXhpp4oHpQfnfULY2yNEGRrMhMXDCS2YgXp7wl6FC8vPCOPiWuJ0XFNiKNQYl0HJdY5KLH2ocQSj/LMM8/oDtI///zTsBzRQ4klhDjKqVOn0KxZM8NaWNErca5cufDVV1+p5R3tndhT0UrszJn6cWIJcSWUWNdBiXUOSqx9KLHEo4gbK+1BGhcXZ1iO6KHEEkIc5bHHHrMaVicgIECWWtHc9sqVK7rylFhCkqHEug5KrHNQYu1DiSUe5bnnntMdpAcPHjQsR/RQYgkhjiCa1GqHiRIIeRWPcthq+UKJJSQZSqzroMQ6ByXWPpRY4lFatGihO0j3799vWI7oocQSQhxF/FiYLVs2mRIlSmDdunWG5RQosYQkQ4l1HZRY56DE2ocSSzxKq1atdAfp//73P8NyRA8llhDiKKI2dvXq1fj2229x+/ZtwzJaKLGEJEOJdR2UWOegxNqHEks8Sps2bXQHqRjWxKgc0UOJJYS4C0osIclQYl0HJdY5KLH2ocQSjyIGotcepHv27DEsR/RQYgkh7oISS0gylFjXQYl1DkqsfSixxKN06NBBd5D+9ttvhuWIHkosIcRdeKvE/vfff9i9e7fu3EeJJe6EEus6KLHOQYm1DyWWeBTtL+qCXbt2GZYjeiixhBB34U0S++DBA6xatQpdu3ZF/vz5dec9wZw5cwz/BkJcASXWdVBinYMSax9KLPEoL774ou4g3blzp2E5oocSSwhxF56WWDFu7ZdffomWLVsiLCxMd67TUrJkSfz111+GfwMhroAS6zoosc5BibUPJZZ4lJdeekl3kG7fvt2wHNFDiSWEuAtPSKwYs3bcuHGoWbMm/P39dec3Lbly5ZJb8MyfPx+XLl0y3H9CXAUl1nVQYp2DEmsfSizxKJ06ddIdpFu3bjUsR/RQYgkh7iIjJDYxMVEWBLH+UqVK6c5nloixbd955x15fFveyJGMhBLrOiixzkGJtQ8llngUcUHQHqRbtmwxLEf0UGIJIe7CXRIr1v3dd9/h5ZdflmtUtecwLX5+fqhevTpGjRqFvXv3Wu0fIRkFJdZ1UGKdgxJrH0os8Sivvfaa7iDdtGmTYTmihxJLCHEXrpTYv//+G59++imaNGmCoKAg3XlLS2hoKJ599lm57KlTpwz3i5CMhhLrOiixzkGJtQ8llniUzp076w7SjRs3GpYjeiixhBB3kV6J/d///ievo1KlSrrzlCX58uWTb0CWLFmCq1evGu4LIZ6EEus6KLHOQYm1DyWWeBQxbIL2IN2wYYNhOaKHEksIcRfOSmx8fLz8vGq3bt1QuHBh3bnJkgoVKqB///7YvHkz/vnnH8PtE+ItUGJdByXWOSix9qHEEo/y5ptv6g7S9evXG5YjeiixhBB34YjE3rhxQ+4huF27doiIiNCdj7QEBATI9wgfffQR/vjjD8PtEeKtUGJdByXWOSix9qHEEo/y9ttv6w7StWvXGpYjeiixhBB3YUtijx8/jkmTJsnXfCGn2nOQluzZs6Nt27byWK/nzp0z3AYhmQFKrOugxDoHJdY+lFjiUbp37647SFevXm1YjuihxBJC3IVWYmvUqIGB0s1n+fLldeccS4oUKSL/KLly5Uq5ltZovYRkNiixroMS6xyUWPtQYolH6dmzp+4gFTdARuWIHkosIcRdaCU2NSpXroyhQ4fi119/NVwPIZkdSqzroMQ6ByXWPpRY4lF69eqlO0hXrFhhWI7oocQSQtzF6NGjdecXheDgYHmonE8++QR//fWX4bKE+BKU2DRy7RoeDhigI6FWLVVi7z39NG698w7+7d9fnvdAOucYricLQ4m1DyWWeJTevXvrDtIffvjBsBzRQ4klhLgLUbOqPPOaO3duvPTSS1i4cCEuXbpkWJ4QX4USm3YSpfdCehMc4v/atTNcR1aGEmsfSizxKH369NEdpMuXLzcsR/RQYgkh7kTUtIphcG7fvm04n5CsACU27TwcNcpKVm1x48svceHCBVy5csVwXVkRSqx9KLHEo4ieL7UH6dKlSw3LET2UWEIIIcS9UGLTzt2DB61k1YiksDCcOXpUfkb26tWrhuvKilBi7eMSiQ0KCpK73SfEWWJjY3UHaefOnQ3LET3PPfec7n174YUXDMsRQgghJG1YPvJUrVo1w3IKhQoV0pWfMGGCYbmswuVHH7WSVkvO1qmDZcuWyUyZMsVwPVmRR6X3jt+l1KlVq5b8w5Kjkb5x+ggT7tu3rzxUCiHOEhMToztIn3nmGcNyRE/NmjV175v4McCoHCGEEELSRrt27XTXWjHUlFE5haioKF15MeyUUbmswvc1alhJqyU/SeW++OILWWCN1pFVyZMnj/T28Ltkj+3bt5uN1H6kbxzDuC6WQzmIjp0Y+5k4caLufVuwYIF5DsMwDMMwrsjevXt119quXbua5xhHDDulLZ+YmGiek0Vz6pSVtGpJypYNF6UyFy9exL1798wLMSKWlTxZ/rvkgkjfOoZxXUaNGqU7SEXHToz9UGIZhmEYxr2hxLogVapYyavCv23ayAIr4HulDyXW9ZG+dQzjulh2UCQ6dmLshxLLMAzDMO4NJdYFGT/eSl4VbsydKwvs9evXzYUZJZRY10f61jGM6zJ27FjdQbpkyRLzHCa1UGIZhmEYxr2hxLogNpoUsylx6qHEuj6UWMalGTdunO4gXbRokXkOk1oosQzDMAzj3lBiXRSDJsVsSpx6KLGuDyWWcWnGjx+vO0gXLlxonsOkFkoswzAMw7g3lFgXZcIEK4m98dVXbEqcSiixrg8llnFpKGNpC983hmEYhnFvKLEuikWTYjYlth9KrOtDiWVcmsmTJ+sO0vnz55vnMKmFEsswDMMw7g0l1oWpWlWV2PtsSmw3lFjXhxLLuDRicGvtQTpv3jzzHPsRFxdxQenYsaPPMWzYMNy8edP8l1qHEsswDMMw7o03SuyJEyfQq1cvw3sHr+bJJ9FRek8EratVQ8uWLdG6dWvjspkce/dwjoQS6/pQYhmXZurUqbqDdO7cueY5qee///5D0aJFdcv6GoMGDTL/tdahxDIMwzCMe+ONEtu4cWPdNoh3MnjwYPMnlrZQYl0fSizj0kybNk13kM6ZM8c8J/X8+++/uuV8kTZt2pj/WutQYhmGYRjGvfFGiS1SpIhuG8Q7adu2rfkTS1sosa4PJZZxaWbMmKE7SGfPnm2ek3osJVY8S+sLPPPMM+rfRIllGIZhGM/F2yVWNFs1upcgnqFp06bqZ0OJ9b5QYhmX5rPPPtMdpLNmzTLPST1aifX39zdPzfz59ttv1b+LEsswDMMwnou3S+xff/1lnsp4Q8QwkcpnQ4n1vlBiGZdGSKv2IBVS60gosZRYhmEYhnFnKLGMM6HEencosYxLI5oPaw9S0bzYkaRZYu+fwvYVq7DnYsrJIOnqfqxeshjfbzmK2+ZpRkm8ehDrli7Gsi3HoY5qlngRe1YsxiJJPoWAKiz6bgtOPEgu4sz6B/Z+R/27KLEMwzAM47lQYhlnQon17lBiGZdGdOSkPUhFR0+OJK0Sm/D7UDxhCkKjzy4rU3BweCWY/Pzg5x+FNvMvIck8R5fEk5jROBL+olz2Dlh8P3lywv7hqGjyQ4C0zqCgFILDa2PcYXHCcW79fpr3ghLLMAzDMJ4LJZZxJpRY7w4llnFpxJA62oNUDLnjSFwpsb8PfQImUyXUqhKK0LqTcMzgPBG/ZxCigwuiZq0SCMzWBgsVidWsz1BOnVx/6dJ51b+LEsswDMMwngsllnEmlFjvDiWWcWnmzZunO0inTJlinpN6XC6xwS0wadozyG56HIP3JpjnKbmDVV0eRdBj/TG7/2MwpUViHVx/12cLqX8XJZZhGIZhPBdKLONMKLHeHUos49KILsm1B+mkSZPMc1KP6yW2Jb4+vwQd85hQ9K31Kc+8Skm6+CWa5whD3UmHsev9tEqsY+sf1YISyzAMwzDeEEqsQZLu4er5czh79izOnjuHC5dv4J4Df+b9G+dx7sJ13De+WdIn6T6uXziH89fvW91bJd27ivPnpG2L7Ws5dwm3482FcB83pH28YLC8UZLuX8eFc+dx3aGdsx1KrHeHEsu4NN98843uIJ0wYYJ5TnL+++8/8//0cYfEzr93D+veLAJTng5YdN08G4n488MaCM3ZCvMuP8RvhhIbgAJVWqJdu3bJtO+Igd+dlZaUSzi1/tGUWIZhGIbxilBiLROPX98rB5Nfyt/4yCN+8DNFokjMc+j+8QacNndqqU38b4PxeJAfHvELQI7qo7DboIyaxMP4pHEUAqRt+AVXx9g/Ne9h/K94r5wJ2v5DVPxC8MwX4uYqHr8NfhxBYvmAHKg+ajdS39wnaBwVIK3TD8HVx5qnpi2UWO8OJZZxabRDygjGjx9vngMMGTIEkZGReOaZZ3Du3Dnz1OS4RWIlMY3fNQDlTRFo/OnZ5F/vHmxDnzImPNplFe6IE6MNiS1YvQ06duyYzAsvY9DSM9YS68D6KbEMwzAM4x2hxFrmIda/+SgC/PMitt9UuTPOqZPGYkj3dqheKAR+kqTmrjUYP1/V12g+XP8mHg2Q5uXLg0Bp2Re+u2meY527a99AkcAQ5MufA/6BZfDuDrV6VawIbz4aAP+8seg3dZq8fZXpX2DDSfF+m/cxIDfy5QmUyr4A25u7i7VvFEFgSD7kz+GPwDLvmqenLZRY7w4llnFpFi1apDtIx40bJ08/ceKEbnrJkiV1IusuiUXiIXxQLRhBVUYjLgG4ufRF5DOVx4Bd4iRqS2Ida07syPopsQzDMAzjHaHEWsYsiIGl0GebRi5F7hzE5x1KIEgS2fztFuC85qYoWWJNqPjWO2gQ7o/sTWfhnNFNU9JlzGudEwF526J/51IItCGxgaX6wHLzKTHvo6ki3nqnAcL9s6PprHOG92hJl+ehdc4A5G3bH51LBVJifTyUWMalWbJkie4gHTs2uSnH9evXERAQoJtXokQJVWTdJrHSae7MjEYIN5VB363HMKNRBEJrT8BR+dzhAom1s35KLMMwDMN4RyixlklFYkXubMY7ZQLhJwnksP0pnVgqElt5+BbMa5ML/sHV8aG2mbA5iUcnoE5oIEr0WIcNfdIrsZUxfMs8tMnlj+DqH8J6c4k4OqEOQgNLoMe6DehDifX5UGIZl2bp0qW6g3TMmDHmOcCsWbPg5+enm6+IrPskVtLMqwukk14g8tV+CuWCcqDF3ItmQXWFxKa+fkoswzAMw3hHKLGWsSOx0j3P/uEVYXrEhBrjjpmnaSR2xEHcXNkZhQICUa7/TumuR5uH+LV/OQSaKmH4gXvY5gKJHXHwJlZ2LiTtbzn032mxwMNf0b9cIEyVhuPAvW2U2CwQSizj0ixfvlx3kI4aNco8JzkzZ840FNljx46pr10tsWLIm5WvSyc9ad0BhV7HijvmyTYl1oSYdxZi5cqVKqtWb8fxu3IJp9ZPiWUYhmEY7wgl1jL2JBa4v+xF5PQPQMEua81ThHumSGzCQ9EXSKB0/9MFq+T7JHNu/4hXCwYgPHY6TifFpyqxfuElUKvpM3KfKTLNnsXLU/eYpVgrsQl4uK0PygQGoFCXVdBv7lUUDAhH7PTTSIqnxGaFUGIZl+aHH37QHaQjRowwz0mJkcgWLVpU/b9TEhv3AaqFRqD5XKV74ATEjamKkMgOWKJKpnQK3DEAj4WG4olBv0qnQyUJODAiBiG5X8Jyc1d3icemoF42/b7JSCfefvKvfs6tf1yb4uo6KLEMwzAM47lQYi1jX2IfrnsDhQL8EdXpB/MUaZpWYsW91PDKMPnnROuvr5hboiXh/OxmiAzIgw7y8A12JDYkP8pVjpFFL5kqaDR8q/l+Si+xSDiA4ZVN8M/ZGl9fMbeZSzqP2c0iEaCMFkGJzRKhxDIuzYoVK3QH6YABA3Dnzh0rpk6dqiunxRmJ9fZoe2tu3ry54XshEM2ute8BJZZhGIZhXBtKrGXsS+y9xe0R6ReA4j03m6dYSiyQeHIK6of5Iaz+x5A7FE6Iw5iqwQgs3g0b5R/8U5dYx5sTy1vDySn1EeYXhvofn5RHjkiIG4OqwYEo3m0jkjdHic0KocQyLs2qVat0B2la8ZV8/PHHhn+fPb7++mvzGhiGYRiGcUUosZaxJ7Hx2D2wAgL9QtH4s4vmadYSi6RLmNsiB/xFB1C/J+DBL71QKtCEisN+T57vUokVm5uLFjn8Yao4DL8nPMAvvaR1m7cthxKbJUKJZVya2bNn6w7StOIradiwoeHfZ4/Ro0eb18AwDMMwjCtCibWMHYm9tQ5vlQiEX1h9fCxXsSbHSmKl3Fr+MvL7B6BE9+WY3zEvArI1xCenlGVcK7HS1rD85fzwDyiB7svno2PeAGRr+AlSNkeJzQqhxDIuzfHjx3UHaVrxlYjnYI3+PnuIGm2GYRiGYVwXSqxlUpHY27/jszbFYPIzoXT39ZI2psRIYvFgE3qUCIB/ZF7kCQlAVPtvcVUd5sHVEis21wMlAvwRmTcPQgKi0P7bqymjSlBis0QosYzLM2nSJOTPnx+lSpVCvXr1DKlbty6ioqJ0B7SC6PTJVzJ//nz17xJ/r9F7oVCuXDkUKlQIAwcONC/NMAzDMIyrQom1jFkQ/XOjdpdhGD58OIYP6Y9uLzXB43lM0v1YMIq1mobf75mLm2MosdL/9g5+XJJe6W8JKIa3N2gXSl1i/XPXRpdh0rbF9hVGfIAFe0X/w8YSi4S9GPy4tI/S+xZQ7G3oN0eJzQqhxDIZnv/7v/9D69atdQezFl/t2Cm13okZhmEYhnFvKLGWkcRzRAzChHiKffDzg78pFDkKlUWN57pizJKDuKlWb6Yk/pc+KC2Vqz3+iNyxkpLEY1MRm8OE8GqjoTyempx4/CYJbnBwRQzbqxfRETFhsogq74GKJNB1JhyXCsXjlz6lYQqtjfFHdFvDsamxyGEKR7XRyrO35sT/JgluMIIrDjNPSFsosd4dSiyTobElsNpplFiGYRiGYVwdSizjTCix3h1KLJNhEQLbqlUr3UEsaN++vTzMjPKaEsswDMMwjKtDiWWcCSXWu0OJZTIsL7/8su4AFgiBTUhIwL///qtOo8QyDMMwDOPqUGIZZ0KJ9e5QYpkMyYkTJ+QOm7QHcIcOHWSBFaHEMgzDMAzjzlBiGWdCifXuUGKZDIloLmwymdSDVyuwIpRYhmEYhmHcGU9KrLjPMQol1ntDifXuUGKZDMv27dvx0ksv4aOPPtIJrAgllmEYhmEYd8ZTEisepwoICJCHFzxz5ox5anIosd4bSqx3hxLLeEUosQzDMAzDuDOekNg9e/bo1lG8eHGdyFJivTeUWO8OJZbxilBiGYZhGIZxZzwhsX///bdcC6tdT7FixVSRdUxik3DvymmcunxP+p/9PFjZHY9F9zC/sswDrOz+GKJ7rDK/ZmyFEuvdocQyXhFKLMMwDMMw7oynmhPPnj3bqnNLIbKnT592SGKTLn2J5pF+8MsWi2mn7Wvs/fktERLSyvzKMvcxv2UIQlotML9mbIUS692hxDJeEUoswzAMwzDujCc7djIS2aJFi6JgwYLqa2OJTcKZ6bGILFMHtQuGodb4o7C3F5RY14QS692hxDJeEUoswzAMwzDujCclVuSLL76wElltU2NDiU08hgl1IlBx2G6s71EcITEjcFDfNybuH16M99vWRcXoyojtPBnrP26hkdj7OLz4fbStWxHRlWPRefJ6fNxCI7FJV7H+o3cwdfMfWNqvKWKerIsB6+4mz8viocR6dyixjFeEEsswDMMwjDuTXokVY96LJsDpYdy4cbp1ajGS2IS4UYjJFoPRcQmI394XZYIrYODuePNcKbfW4e1SQchV7U1MnjsbH3SqhHzZQuBnlthb695GqaBcqPbmZMyd/QE6VcqHbCF+KRKbeBgfVAtBkbLlUbbZUHz+xXR89/vD5HlZPJRY7w4llvGKUGIZhmEYhnFnnJXYsmXL6sq7mx07dpi3rCQBewdHI6zGhzginCf+NwysEIySvX6Bopk35rdGjrCnMOm4WYqSbmBjj3IIlCX2Bua3zoGwpyYhZfZG9CgXaCGxJpjKvoNNt5MnMcmhxHp3KLGMV4QSyzAMwzCMO+OsxObIkUNX3t106tTJvGVzHm5D3zLZUHfiCfNzsAnYP7wiggu/gbX3xOt4/Nq/LIKjB2Ovpomx+kxs/K/oXzYY0YP3SksqsXgm1lwTW6bfTmltjDaUWO8OJZbxilBiGYZhGIZxZ5yV2GrVqunKu5tRo0aZt5yc+xveQtEAEyILFJN7M5bJH4EA/3x4ebmoNn2ITd2LIriy/jlZVWIfbkL3osGoPOKgXYkt258SaxlKrHeHEst4RSixDMMwDMO4M85K7D///INGjRqhXLlyeOaZZ+TreHpp3rw5cuXKpdsPBf0zsXfw46sFEFqlH5Zv3oItW8xsXoyeTwYhV9tvcF1S07hRMQgq8DpW3jcvhiRc+rQRgoTEJsRhVEwQCry+UlJXc5Iu4dNGQV4isUm4e+kEjh09imPHjuPU+Ru4n0Ful3T3Ek4cO4qjx47hxJnLuGPRWZYIJda7Q4llvCKUWIZhGIZh3BlnJdbVEVJcs2ZN3T5o0UnsjcXoEBWKupOUpsRKEnF4bHUERz6HOReTEL+zH8qaotB0ahzuSVJ7acsoNMwXYO7YKR47+5WFKaoppsbdk6T2EraMaoh8AdYdO3lEYh8sx4s5/TXvgR9MOUqifpdPsO2y/fFw5SRdwKrRb2HkivOSEjuaB1j+Yk74a7YbmL0EGr67DCc1MkuJ9e5QYhmvCCWWYRiGYRh3xpMSKwS2Ro0auu0LIiIi1P9rJfbu0hcRFRmLaaesZSfx2CQ8FZ4dLb66KkncZazpG4McASaE54xEeP7a6DO2C6JzdZDLJl1eg74xORBgCkfOyHDkr90HY7tEI1eHxfJ8JB6Xh/B5fPAeTZPjDMr9xWgfEYyG087hYfxD3LlyDNvmDUDso0EIi+6NDTcc0NKE3zH0iRBED3Jm/+9jcfsIBDechnMP43H/+nFsnvgcCgVG4pnPz6kyTIn17lBiGa8IJZZhGIZhGHfGUxJrS2D79euHIkWKqK8Nx4l1KIm4eXw3ftm6D2fuGohf4k0c3/0Ltu47A6PZHotZYmNnXNTVoj74fRSqhYlnefdLrx7i1Pop6NWuAapEl0d0tSboPP5nXBAOeHcrpnRthcq5A5GrUku8+noXDPjmiLyOh6fWY0qvdmhQJRrlo6uhSefx+FleSMQssbEzcFHZ8MMNeKuwCYXeWKf2/EyJ9e5QYhmviFZiBeLE7gsULFhQ/ZsosQzDMAzjuXhKYuvXr6/brkDcI4i4RmIzaWxIrKhd/rxpGEzVPwTit2NIo1h0GfMllq9ZhUUftUPpkNxos+AKkh7sxzcj3kS9/Cbke6orBg8djqnrzkkriMf2IY0Q22UMvly+BqsWfYR2pUOQu80CXJE3ZC2xiSemokF4KGpPOKo2354xY4b62QQGBiIyMjLNBAQEqOsSUGLTH0os4xV58OCB7uD2RdL7Kx7DMAzDMGmPJyR2z549um0K+vfvb55LiTWUWDzElp7FYSrSzfxak8QTGF8rBMV6bE6uMXWoOXEiToyvhZBiPbBZXihZYgML18drb72Frp2ao3L+7Cj23GT8dkdeQE5sbKzuc3MlSUn6v5hxPpRYxmtSsWJFwwPdV5g0aZL5L2UYhmEYJqPjCYm9du2aXIunbFMrsCKUWGOJ3fh2YZiK90x+mXAF+3+YibGD+6F3zy5oUMSEQl3X2pHYBFzZ/wNmjh2Mfr17okuDIjAV6oq1Wol99Cm83LkTWsTkQ3Ce+vhg5y15SSWiR2rls3ElJpPJvAUmPaHEMl6TK1euyE03xo0b53MsX74cCQkZ3mUCwzAMwzDmeKo5saiN7dWrF+bPn2+ekhJKrFFz4rOY2iAYwQ0+kXz2ACbH5kO2wnXRqe9QjBo9CK1K25PYhzgwORb5shVG3U59MXTUaAxqVdpKYtXmxIkn8UXzvAgu3x/bH4j5yZk9e7b62WTLlg0lSpRIM+JzFuvIkycPFiww9wzNpCuUWIZhGIZhGMbn4ymJTS2UWGuJvbtzIJ4MicTTn55G/NZeKBkcjUF7zAMAJV3EjNgQvcQ+GYIKA39LGSIofit6lQyWxTZ5WhIuzohFiC2JlRK/ayAqmKLQ/tur6r64smMnxvWhxDIMwzAMwzA+H0qsl0WW2CDUGr4NcYfisP/X9Vg4vguq5TEhb+OPcVASzvjtfVEmqAx6bbkrLZCE69tGol7uwBSJTTyJibWDkbP1fFxJSsTDBwlyZ1B9ywShTK8tkJe6vg0j6+VGYCoSi8Sj8rO22RpMxUlzn0uUWO8OJZZhGIZhGIbx+VBivSwPVqNLwUD4ib/fzw+BoTlR+IlG6DJuNU4qzXoTDmNWqyIICS+ECo+XQrGYV9GnTUmU6PZzssQiEUemP42oABMicuZAmR6bxEI4PKsVioSEo1CFx1GqWAxe7dMGJUt0w8/yQg+w/OXcCG/2hbm3YpEkXJjbCrnDamPCsWSLpcR6dyixDMMwDMMwjM+HEptZcx8XDm7Dlp1Hcd1wZJoEXD28A5s278FpTe/C9y8cxLYtO3HUeCG7ocR6dyixDMMwDMMwjM+HEss4E0qsd4cSyzAMwzAMw/h8KLGMM6HEencosQzDMAzDMIzPhxLLOBNKrHeHEsswDMMwDMP4fCixjDOhxHp3KLEMwzAMwzCMz4cSyzgTSqx3hxLLMAzDMAzD+HwosYwzocR6dyixDMMwDMMwjM/HUxJ77949rF+/HteuXTNPSQkl1ntDifXuUGIZhmEYhmEYn48nJDY+Ph6PP/64vL2wsDD88MMP5jnJocR6byix3h1KLMMwDMMwDOPz8YTEHjx4ULdNk8mE77//3jyXEuvNocR6dyixDMMwDMMwjM/HExIrmhIXKFBAt12tyDossUl3cenEMRw9egzHjp/C+Rv3kWie5c4k3rmIUxduIcH8WknS3Us4ffGO9T48uIqzBuUzYyix3h1KLMMwDMMwDOPz8dQzsXFxcciTJ49u20Jkly9f7rDEPlj+InL6pyz/iJ8JOUrWR5dPtuFykrmQvSRdwKrRb2HkivNwbJFEnJhQG0ERzfHlVe0SN7GgdST8szXBzAva6fHY9V55BJfrj1/jzZMycSix3h1KLMMwDMMwDOPz8ZTEitgS2aioKPV1ahJ7f3F7RAQ3xLRzDxH/8A6uHNuGeQNi8WhQGKJ7b8ANR6w04XcMfSIE0YP2OFxTmrB/GJ40ReHFpXfMU6TcX4XOBfwlkc6B1gtumidKSTyMD6oFo/Cb6/HAPCkzhxLr3aHEMgzDMAzDMD4fT0qsyKFDh6xEVot9iY3FjItaW32A30dVQ1hwZYzYL7T0IU6tn4Je7RqgSnR5RFdrgs7jf8YF0eb37lZM6doKlXMHIlellnj19S4Y8M0ReS0PT63HlF7t0KBKNMpHV0OTzuPxs7yQlPid6FfGhMJvbZDWrkzqh7IRlVFdEuJ8r/6Ie+bpSec/RaNs+dDph7vmKZk7lFjvDiWWYRiGYRiG8flYSmzdunUxZ86cDGXUqFGIiIjQ7YeC8xIriePlz9E0zITqHx6V7HI7hjSKRZcxX2L5mlVY9FE7lA7JjTYLriDpwX58M+JN1MtvQr6numLw0OGYuu6ctIZ4bB/SCLFdxuDL5WuwatFHaFc6BLnbLMAVeVMPsbFbUQSVH4BdchPhRBwZWw3Zan+E1SNiEFy8Jzab7fbmN22QI2c7LNRUzmbmUGK9O5RYhmEYhmEYxudjKbHexrx588x7ah1bEouHW9CzuAlFum00T9Ak8QTG1wpBsR6bk2tRHWpOnIgT42shpFgPVU7vrXgN+YOr4oPDiZI1X8TMp7Pj8cF7ce/X91AuOBqD9oi13ceqzgWR/dk5jj+j6+WhxHp3KLEMwzAMwzCMz2fLli06afQ2nn76afOeWse2xG7E24VNKN5zc/LrhCvY/8NMjB3cD717dkGDIiYU6rrWjsQm4Mr+HzBz7GD0690TXRoUgalQV6xV2g/fWowOuULRcNo5JN5ZguejiuCtDdJMse0iIaj+4REkxm9H3zLhaDDtrIOdRnl/KLHeHUoswzAMwzAMkyUSFhamE0dv4ssvvzTvpXVsNic+OxUNgoPR4JOzklQewOTYfMhWuC469R2KUaMHoVVpexL7EAcmxyJftsKo26kvho4ajUGtSuslNukq5jbPjshWX+Pixm4oGvU8lsj9PN3F9y/nRVjsDJw+OBIxYTXx0bGMGPgnY0KJ9e5QYhmGYRiGYZgskdu3b6NXr14YPnw4Pv300wxHbDd79uw6eVVw/pnYu9g58EmERD6NT08nIn5rL5SUm/eax7dJuogZsSF6iX0yBBUG/gZ1BJz4rehVMlgW2+RpSbg4IxYhWomVpp2f0QjZ8r2IMe8+juxNZkLZjRvzWyNHZAt8NKo+wisNx0Hb7ZQzXSix3h1KLMMwDMMwDMO4OUePHkWBAgV04qrFrsQG1cLwbXE4FLcfv65fiPFdqiGPKS8af3xQltT47X1RJqgMem0RvQMn4fq2kaiXOzBFYhNPYmLtYORsPR9XkhLx8IFknHIz4CCU6bVFUmJpqevbMLJebgTqJFY8XjsRdUJyIipXCKqPPQKlvlX0SNw4WyTy5glH+fd2pcixD4QS692hxDIMwzAMwzCMG3PkyBHkz59fJ60BAQHInTu3+jo1iX2wugsKBvrJ5fz8AhGaszCeaNQF41afTBmTNeEwZrUqgpDwQqjweCkUi3kVfdqURIluPydLrOhZePrTiAowISJnDpTpsUkshMOzWqFISDgKVXgcpYrF4NU+bVCyRDf8rJFYJBzCuNrhCAipiKG/aVQ18QSmNsyOgOBy6LdNu0DmDyXWu0OJZRiGYRiGYRg3xZbALlq0CEWKFFGnpSaxjuc+Lhzchi07j+K64eOpCbh6eAc2bd6D0/Jzrcm5f+Egtm3ZiaPGC3ltRPPwY8eOmV+5NpRY7w4llmEYhmEYhmHckMTERJQsWVKVIYEQ2MWLF8vzXS+xWSeXL1/Go48+Kr93Y8aMMU91XSix3h1KLMMwDMMwDMO4Ifv371dFSKAVWBFKbNojOujSvrfnzp0zz3FNKLHeHUoswzAMwzAMw7ghCQkJKF26tCxCJpMJS5YsMc9JDiU2bbl48SJCQkLU907w9ttvm+e6JpRY7w4llmEYhmEYhmHclHv37mHFihU4fvy4eUpKKLFpS+/evdX3TSEoKAhnz541l0h/KLHeHUoswzAMwzAMw3gglFjnY1QLq/DWW2+ZS6U/lFjvDiWWYRiGYRiGYTwQSqzz0T4LW7FiRaxdu1Z9LZpsu6o2lhLr3aHEMgzDMAzDMIwHQol1LhcuXNDVwv7444/y9Bo1aqjT3nzzTXlaekOJ9e5QYhmGYRiGYRjGA6HEOpd33nlHfb8qVapkngqsX79enS5qY8+cOWOek/ZQYr07lFiGYRiGYRiG8UAosY5H1MIGBwer75foLEubmjVrqvPeeOMN89S0hxLr3aHEMgzDMAzDMIwHQol1PD179lTfq8qVK5unpuSnn35S54va2NOnT5vnpC2UWO8OJZZhGIZhGIZhPBBKrGM5f/68rhZ25cqV5jn61KpVSy3TtWtX89S0hRLr3aHEMgzDMAzDMIwHQol1LD169FDfp5iYGPNU62zYsEEtJ2pjT506ZZ7jfCix3h1KLMMwDMMwDMN4IJRY+/n77791tbCrVq0yzzFO7dq11bJdunQxT3U+lFjvDiWWYRiGYRiGYTwQSqz9dO/eXX2PqlSpYp5qOxs3blTLBwYG4uTJk+Y5zoUS692hxDIMwzAMwzCMB0KJTT2iFjYoKEh9j1avXm2ek3rq1KmjLvP666+bpzoXSqx3hxLLMAzDMAzDMB6IVmL79OmDTz/9lGioW7eu+v4Inn/+eYd48skndcuNHDnScP2poW2WTIn1vlBiGYZhGIZhGMYD0Uos8V4osd4XSizDMAzDMAzDeCDNmjUzlCbiXYwYMcL8iTHeEkoswzAMwzAMw3gg586dw5AhQ/DGG28QA4Tkly9fHuXKlUszojOoTp06Ga7fESZOnIg7d+6YPzHGW0KJZRiGYRiGYRiGYTJNKLEMwzAMwzAMwzBMpgkllmEYhmEYhmEYhsk0ocQyDMMwDMMwDMMwmSaUWIZhGIZhGIZhGCbThBLLMAzDMAzDMAzDZJIA/w9oFzcDcxNSiwAAAABJRU5ErkJggg==;" vertex="1" parent="1">
                    <mxGeometry x="78" y="121" width="945" height="609" as="geometry"/>
                </mxCell>
                <mxCell id="3" value="" style="verticalLabelPosition=bottom;shadow=0;dashed=0;align=center;html=1;verticalAlign=top;shape=mxgraph.electrical.abstract.ota_3;fillColor=#FFFFFF;strokeColor=#000000;strokeWidth=3;" vertex="1" parent="1">
                    <mxGeometry x="652" y="477" width="40" height="90" as="geometry"/>
                </mxCell>
                <mxCell id="8" value="" style="endArrow=classic;html=1;entryX=0.25;entryY=0.089;entryDx=0;entryDy=0;entryPerimeter=0;exitX=0.5;exitY=1;exitDx=0;exitDy=0;fillColor=#e51400;strokeColor=#B20000;strokeWidth=3;" edge="1" parent="1">
                    <mxGeometry width="50" height="50" relative="1" as="geometry">
                        <mxPoint x="656" y="190" as="sourcePoint"/>
                        <mxPoint x="658" y="408.01" as="targetPoint"/>
                        <Array as="points"/>
                    </mxGeometry>
                </mxCell>
                <mxCell id="9" value="" style="endArrow=classic;html=1;entryX=0.425;entryY=0.289;entryDx=0;entryDy=0;entryPerimeter=0;exitX=0.5;exitY=1;exitDx=0;exitDy=0;fillColor=#e51400;strokeColor=#B20000;strokeWidth=3;" edge="1" parent="1" target="3">
                    <mxGeometry width="50" height="50" relative="1" as="geometry">
                        <mxPoint x="669" y="191.99" as="sourcePoint"/>
                        <mxPoint x="671" y="410" as="targetPoint"/>
                        <Array as="points"/>
                    </mxGeometry>
                </mxCell>
                <mxCell id="4" value="" style="verticalLabelPosition=bottom;shadow=0;dashed=0;align=center;html=1;verticalAlign=top;shape=mxgraph.electrical.abstract.ota_3;fillColor=#FFFFFF;strokeColor=#000000;strokeWidth=3;" vertex="1" parent="1">
                    <mxGeometry x="652" y="400" width="40" height="90" as="geometry"/>
                </mxCell>
                <mxCell id="10" value="" style="endArrow=classic;html=1;strokeWidth=3;entryX=0.025;entryY=0.2;entryDx=0;entryDy=0;entryPerimeter=0;exitX=0.5;exitY=1;exitDx=0;exitDy=0;fillColor=#dae8fc;gradientColor=#7ea6e0;strokeColor=#6c8ebf;" edge="1" parent="1" target="4">
                    <mxGeometry width="50" height="50" relative="1" as="geometry">
                        <mxPoint x="630" y="282" as="sourcePoint"/>
                        <mxPoint x="570" y="400" as="targetPoint"/>
                        <Array as="points">
                            <mxPoint x="630" y="418"/>
                        </Array>
                    </mxGeometry>
                </mxCell>
                <mxCell id="11" value="" style="endArrow=classic;html=1;strokeWidth=3;exitX=1;exitY=0.5;exitDx=0;exitDy=0;strokeColor=#6c8ebf;fillColor=#dae8fc;gradientColor=#7ea6e0;" edge="1" parent="1" source="12">
                    <mxGeometry width="50" height="50" relative="1" as="geometry">
                        <mxPoint x="517" y="454" as="sourcePoint"/>
                        <mxPoint x="657" y="514" as="targetPoint"/>
                    </mxGeometry>
                </mxCell>
                <mxCell id="12" value="&lt;font style=&quot;font-size: 14px&quot;&gt;&lt;font color=&quot;#000000&quot; style=&quot;font-size: 14px&quot;&gt;&lt;b&gt;0x&lt;/b&gt;&lt;/font&gt;&lt;font color=&quot;#000000&quot; style=&quot;font-size: 14px&quot;&gt;&lt;b&gt;ffffffff&lt;/b&gt;&lt;/font&gt;&lt;/font&gt;" style="text;html=1;strokeColor=none;fillColor=none;align=center;verticalAlign=middle;whiteSpace=wrap;rounded=0;" vertex="1" parent="1">
                    <mxGeometry x="533" y="499" width="60" height="30" as="geometry"/>
                </mxCell>
                <mxCell id="15" style="edgeStyle=none;html=1;exitX=0.5;exitY=0;exitDx=0;exitDy=0;entryX=0;entryY=0.5;entryDx=0;entryDy=0;fontSize=14;fontColor=#000000;strokeColor=#6c8ebf;strokeWidth=3;fillColor=#dae8fc;gradientColor=#7ea6e0;" edge="1" parent="1">
                    <mxGeometry relative="1" as="geometry">
                        <mxPoint x="736" y="482" as="sourcePoint"/>
                        <mxPoint x="374" y="410" as="targetPoint"/>
                        <Array as="points">
                            <mxPoint x="735" y="250"/>
                            <mxPoint x="320" y="250"/>
                            <mxPoint x="320" y="410"/>
                        </Array>
                    </mxGeometry>
                </mxCell>
            </root>
        </mxGraphModel>
    </diagram>
</mxfile>